%TF.GenerationSoftware,KiCad,Pcbnew,8.0.7*%
%TF.CreationDate,2025-07-10T17:56:55-04:00*%
%TF.ProjectId,_autosave-Hexapod V2,5f617574-6f73-4617-9665-2d4865786170,rev?*%
%TF.SameCoordinates,Original*%
%TF.FileFunction,Plated,1,4,PTH,Drill*%
%TF.FilePolarity,Positive*%
%FSLAX46Y46*%
G04 Gerber Fmt 4.6, Leading zero omitted, Abs format (unit mm)*
G04 Created by KiCad (PCBNEW 8.0.7) date 2025-07-10 17:56:55*
%MOMM*%
%LPD*%
G01*
G04 APERTURE LIST*
%TA.AperFunction,ViaDrill*%
%ADD10C,0.300000*%
%TD*%
%TA.AperFunction,ComponentDrill*%
%ADD11C,0.600000*%
%TD*%
%TA.AperFunction,ComponentDrill*%
%ADD12C,0.762000*%
%TD*%
%TA.AperFunction,ComponentDrill*%
%ADD13C,0.800000*%
%TD*%
%TA.AperFunction,ComponentDrill*%
%ADD14C,1.000000*%
%TD*%
%TA.AperFunction,ComponentDrill*%
%ADD15C,1.016000*%
%TD*%
%TA.AperFunction,ComponentDrill*%
%ADD16C,1.300000*%
%TD*%
G04 APERTURE END LIST*
D10*
X134850000Y-124450000D03*
X135025000Y-115650000D03*
X138012500Y-115687500D03*
X156579800Y-61635200D03*
X159419800Y-64560200D03*
X161595000Y-116525000D03*
X161595000Y-121475000D03*
X162800000Y-114600000D03*
X162865000Y-121475000D03*
X164135000Y-121475000D03*
X164450000Y-112650000D03*
X165405000Y-121475000D03*
X187840000Y-59670000D03*
D11*
%TO.C,C3*%
X133000000Y-104839500D03*
X133000000Y-106839500D03*
D12*
%TO.C,U1*%
X134000000Y-63000000D03*
X136540000Y-63000000D03*
X139080000Y-63000000D03*
X141620000Y-63000000D03*
X144160000Y-63000000D03*
X146700000Y-63000000D03*
X149240000Y-63000000D03*
X151780000Y-63000000D03*
D13*
%TO.C,C7*%
X156000000Y-118000000D03*
X156000000Y-120000000D03*
%TO.C,R1*%
X174650000Y-112300000D03*
X174650000Y-119920000D03*
%TO.C,R2*%
X179337600Y-112170000D03*
X179337600Y-119790000D03*
D14*
%TO.C,C4*%
X95625000Y-69980000D03*
%TO.C,C5*%
X95625000Y-109000000D03*
%TO.C,C4*%
X103125000Y-69980000D03*
%TO.C,C5*%
X103125000Y-109000000D03*
%TO.C,REF\u002A\u002A*%
X108610000Y-69170000D03*
X108610000Y-109810000D03*
%TO.C,Tibia*%
X112100000Y-48570000D03*
X112100000Y-51110000D03*
X112100000Y-53650000D03*
X112100000Y-124920000D03*
X112100000Y-127460000D03*
X112100000Y-130000000D03*
%TO.C,Femur*%
X116750000Y-48570000D03*
X116750000Y-51110000D03*
X116750000Y-53650000D03*
X116750000Y-124920000D03*
X116750000Y-127460000D03*
X116750000Y-130000000D03*
%TO.C,Coxa*%
X121400000Y-48570000D03*
X121400000Y-51110000D03*
X121400000Y-53650000D03*
X121400000Y-124920000D03*
X121400000Y-127460000D03*
X121400000Y-130000000D03*
%TO.C,REF\u002A\u002A*%
X126390000Y-69170000D03*
X126390000Y-109810000D03*
%TO.C,U2*%
X139175000Y-104299500D03*
X139175000Y-106839500D03*
X141715000Y-104299500D03*
X141715000Y-106839500D03*
%TO.C,Tibia*%
X143650000Y-48570000D03*
X143650000Y-51110000D03*
X143650000Y-53650000D03*
X143650000Y-124920000D03*
X143650000Y-127460000D03*
X143650000Y-130000000D03*
%TO.C,U2*%
X144255000Y-104299500D03*
X144255000Y-106839500D03*
X146795000Y-104299500D03*
X146795000Y-106839500D03*
%TO.C,Femur*%
X148300000Y-48570000D03*
X148300000Y-51110000D03*
X148300000Y-53650000D03*
X148300000Y-124920000D03*
X148300000Y-127460000D03*
X148300000Y-130000000D03*
%TO.C,Coxa*%
X152950000Y-48570000D03*
X152950000Y-51110000D03*
X152950000Y-53650000D03*
X152950000Y-124920000D03*
X152950000Y-127460000D03*
X152950000Y-130000000D03*
%TO.C,Tibia*%
X170000000Y-48570000D03*
X170000000Y-51110000D03*
X170000000Y-53650000D03*
X170000000Y-124920000D03*
X170000000Y-127460000D03*
X170000000Y-130000000D03*
%TO.C,Femur*%
X174650000Y-48570000D03*
X174650000Y-51110000D03*
X174650000Y-53650000D03*
X174650000Y-124920000D03*
X174650000Y-127460000D03*
X174650000Y-130000000D03*
%TO.C,Coxa*%
X179300000Y-48570000D03*
X179300000Y-51110000D03*
X179300000Y-53650000D03*
X179300000Y-124920000D03*
X179300000Y-127460000D03*
X179300000Y-130000000D03*
%TO.C,BZ1*%
X189800000Y-116200000D03*
X189800000Y-123800000D03*
D15*
%TO.C,A1*%
X156295000Y-72670000D03*
X156295000Y-75210000D03*
X156295000Y-85370000D03*
X156295000Y-87910000D03*
X156295000Y-90450000D03*
X156295000Y-98070000D03*
X156295000Y-100610000D03*
X156295000Y-103150000D03*
X156295000Y-105690000D03*
X156295000Y-108230000D03*
X158835000Y-72670000D03*
X158835000Y-75210000D03*
X158835000Y-85370000D03*
X158835000Y-87910000D03*
X158835000Y-90450000D03*
X158835000Y-98070000D03*
X158835000Y-100610000D03*
X158835000Y-103150000D03*
X158835000Y-105690000D03*
X158835000Y-108230000D03*
X161375000Y-72670000D03*
X161375000Y-75210000D03*
X161375000Y-105690000D03*
X161375000Y-108230000D03*
X163915000Y-72670000D03*
X163915000Y-75210000D03*
X163915000Y-105690000D03*
X163915000Y-108230000D03*
X166455000Y-72670000D03*
X166455000Y-75210000D03*
X166455000Y-105690000D03*
X166455000Y-108230000D03*
X168995000Y-72670000D03*
X168995000Y-75210000D03*
X168995000Y-105690000D03*
X168995000Y-108230000D03*
X171535000Y-72670000D03*
X171535000Y-75210000D03*
X171535000Y-105690000D03*
X171535000Y-108230000D03*
X174075000Y-72670000D03*
X174075000Y-75210000D03*
X174075000Y-105690000D03*
X174075000Y-108230000D03*
X176615000Y-72670000D03*
X176615000Y-75210000D03*
X176615000Y-105690000D03*
X176615000Y-108230000D03*
X179155000Y-72670000D03*
X179155000Y-75210000D03*
X179155000Y-105690000D03*
X179155000Y-108230000D03*
X181695000Y-72670000D03*
X181695000Y-75210000D03*
X181695000Y-105690000D03*
X181695000Y-108230000D03*
X184235000Y-72670000D03*
X184235000Y-75210000D03*
X184235000Y-105690000D03*
X184235000Y-108230000D03*
X186775000Y-72670000D03*
X186775000Y-75210000D03*
X186775000Y-105690000D03*
X186775000Y-108230000D03*
X189315000Y-72670000D03*
X189315000Y-75210000D03*
X189315000Y-105690000D03*
X189315000Y-108230000D03*
X191855000Y-72670000D03*
X191855000Y-75210000D03*
X191855000Y-105690000D03*
X191855000Y-108230000D03*
X194395000Y-72670000D03*
X194395000Y-75210000D03*
X194395000Y-105690000D03*
X194395000Y-108230000D03*
X196935000Y-72670000D03*
X196935000Y-75210000D03*
X199475000Y-72670000D03*
X199475000Y-75210000D03*
X202015000Y-72670000D03*
X202015000Y-75210000D03*
X204555000Y-72670000D03*
X204555000Y-75210000D03*
X207095000Y-72670000D03*
X207095000Y-75210000D03*
D16*
%TO.C,J1*%
X95000000Y-80950000D03*
X95000000Y-86030000D03*
X95000000Y-92950000D03*
X95000000Y-98030000D03*
M02*
