%TF.GenerationSoftware,KiCad,Pcbnew,8.0.7*%
%TF.CreationDate,2025-07-10T17:57:13-04:00*%
%TF.ProjectId,_autosave-Hexapod V2,5f617574-6f73-4617-9665-2d4865786170,rev?*%
%TF.SameCoordinates,Original*%
%TF.FileFunction,Copper,L1,Top*%
%TF.FilePolarity,Positive*%
%FSLAX46Y46*%
G04 Gerber Fmt 4.6, Leading zero omitted, Abs format (unit mm)*
G04 Created by KiCad (PCBNEW 8.0.7) date 2025-07-10 17:57:13*
%MOMM*%
%LPD*%
G01*
G04 APERTURE LIST*
G04 Aperture macros list*
%AMRoundRect*
0 Rectangle with rounded corners*
0 $1 Rounding radius*
0 $2 $3 $4 $5 $6 $7 $8 $9 X,Y pos of 4 corners*
0 Add a 4 corners polygon primitive as box body*
4,1,4,$2,$3,$4,$5,$6,$7,$8,$9,$2,$3,0*
0 Add four circle primitives for the rounded corners*
1,1,$1+$1,$2,$3*
1,1,$1+$1,$4,$5*
1,1,$1+$1,$6,$7*
1,1,$1+$1,$8,$9*
0 Add four rect primitives between the rounded corners*
20,1,$1+$1,$2,$3,$4,$5,0*
20,1,$1+$1,$4,$5,$6,$7,0*
20,1,$1+$1,$6,$7,$8,$9,0*
20,1,$1+$1,$8,$9,$2,$3,0*%
G04 Aperture macros list end*
%TA.AperFunction,ComponentPad*%
%ADD10R,1.700000X1.700000*%
%TD*%
%TA.AperFunction,ComponentPad*%
%ADD11O,1.700000X1.700000*%
%TD*%
%TA.AperFunction,SMDPad,CuDef*%
%ADD12RoundRect,0.090000X-0.360000X0.660000X-0.360000X-0.660000X0.360000X-0.660000X0.360000X0.660000X0*%
%TD*%
%TA.AperFunction,SMDPad,CuDef*%
%ADD13RoundRect,0.250000X0.325000X0.650000X-0.325000X0.650000X-0.325000X-0.650000X0.325000X-0.650000X0*%
%TD*%
%TA.AperFunction,ComponentPad*%
%ADD14R,2.600000X2.600000*%
%TD*%
%TA.AperFunction,ComponentPad*%
%ADD15C,2.600000*%
%TD*%
%TA.AperFunction,ComponentPad*%
%ADD16C,2.540000*%
%TD*%
%TA.AperFunction,ComponentPad*%
%ADD17R,2.540000X2.540000*%
%TD*%
%TA.AperFunction,ComponentPad*%
%ADD18R,1.200000X1.200000*%
%TD*%
%TA.AperFunction,ComponentPad*%
%ADD19C,1.200000*%
%TD*%
%TA.AperFunction,ComponentPad*%
%ADD20R,2.000000X2.000000*%
%TD*%
%TA.AperFunction,ComponentPad*%
%ADD21C,2.000000*%
%TD*%
%TA.AperFunction,SMDPad,CuDef*%
%ADD22RoundRect,0.150000X0.150000X-0.825000X0.150000X0.825000X-0.150000X0.825000X-0.150000X-0.825000X0*%
%TD*%
%TA.AperFunction,ComponentPad*%
%ADD23R,1.600000X1.600000*%
%TD*%
%TA.AperFunction,ComponentPad*%
%ADD24C,1.600000*%
%TD*%
%TA.AperFunction,SMDPad,CuDef*%
%ADD25RoundRect,0.250000X-0.250000X-0.475000X0.250000X-0.475000X0.250000X0.475000X-0.250000X0.475000X0*%
%TD*%
%TA.AperFunction,ComponentPad*%
%ADD26C,1.700000*%
%TD*%
%TA.AperFunction,ComponentPad*%
%ADD27O,1.727200X1.727200*%
%TD*%
%TA.AperFunction,ComponentPad*%
%ADD28R,1.727200X1.727200*%
%TD*%
%TA.AperFunction,ComponentPad*%
%ADD29O,1.600000X1.600000*%
%TD*%
%TA.AperFunction,ComponentPad*%
%ADD30C,1.524000*%
%TD*%
%TA.AperFunction,ViaPad*%
%ADD31C,0.600000*%
%TD*%
%TA.AperFunction,Conductor*%
%ADD32C,0.300000*%
%TD*%
%TA.AperFunction,Conductor*%
%ADD33C,0.500000*%
%TD*%
%TA.AperFunction,Conductor*%
%ADD34C,0.200000*%
%TD*%
G04 APERTURE END LIST*
D10*
%TO.P,Tibia,1,Pin_1*%
%TO.N,GND*%
X143650000Y-53650000D03*
D11*
%TO.P,Tibia,2,Pin_2*%
%TO.N,S+*%
X143650000Y-51110000D03*
%TO.P,Tibia,3,Pin_3*%
%TO.N,S15*%
X143650000Y-48570000D03*
%TD*%
D12*
%TO.P,Hexapod,1,VDD*%
%TO.N,+5V*%
X190965000Y-63570000D03*
%TO.P,Hexapod,2,DOUT*%
%TO.N,unconnected-(D1-DOUT-Pad2)*%
X187665000Y-63570000D03*
%TO.P,Hexapod,3,VSS*%
%TO.N,GND*%
X187665000Y-68470000D03*
%TO.P,Hexapod,4,DIN*%
%TO.N,LED1*%
X190965000Y-68470000D03*
%TD*%
D13*
%TO.P,C1,1*%
%TO.N,+5V*%
X190790000Y-59670000D03*
%TO.P,C1,2*%
%TO.N,GND*%
X187840000Y-59670000D03*
%TD*%
D14*
%TO.P,J1,1,Pin_1*%
%TO.N,GND*%
X95000000Y-80950000D03*
D15*
%TO.P,J1,2,Pin_2*%
%TO.N,VIN*%
X95000000Y-86030000D03*
%TD*%
D10*
%TO.P,Femur,1,Pin_1*%
%TO.N,GND*%
X174650000Y-53650000D03*
D11*
%TO.P,Femur,2,Pin_2*%
%TO.N,S+*%
X174650000Y-51110000D03*
%TO.P,Femur,3,Pin_3*%
%TO.N,S11*%
X174650000Y-48570000D03*
%TD*%
D16*
%TO.P,REF\u002A\u002A,2*%
%TO.N,GND*%
X108610000Y-69170000D03*
%TO.P,REF\u002A\u002A,3*%
X108610000Y-109810000D03*
%TO.P,REF\u002A\u002A,4*%
%TO.N,S+*%
X126390000Y-109810000D03*
D17*
%TO.P,REF\u002A\u002A,B*%
%TO.N,VIN*%
X126390000Y-69170000D03*
%TD*%
D12*
%TO.P,Battery,1,VDD*%
%TO.N,+5V*%
X138150000Y-119550000D03*
%TO.P,Battery,2,DOUT*%
%TO.N,unconnected-(D2-DOUT-Pad2)*%
X134850000Y-119550000D03*
%TO.P,Battery,3,VSS*%
%TO.N,GND*%
X134850000Y-124450000D03*
%TO.P,Battery,4,DIN*%
%TO.N,LED2*%
X138150000Y-124450000D03*
%TD*%
D18*
%TO.P,C3,1*%
%TO.N,+3.3V*%
X133000000Y-104839500D03*
D19*
%TO.P,C3,2*%
%TO.N,GND*%
X133000000Y-106839500D03*
%TD*%
D20*
%TO.P,C5,1*%
%TO.N,VIN*%
X95625000Y-109000000D03*
D21*
%TO.P,C5,2*%
%TO.N,GND*%
X103125000Y-109000000D03*
%TD*%
D22*
%TO.P,U3,1,IP+*%
%TO.N,VIN*%
X161595000Y-121475000D03*
%TO.P,U3,2,IP+*%
X162865000Y-121475000D03*
%TO.P,U3,3,IP-*%
X164135000Y-121475000D03*
%TO.P,U3,4,IP-*%
X165405000Y-121475000D03*
%TO.P,U3,5,GND*%
%TO.N,GND*%
X165405000Y-116525000D03*
%TO.P,U3,6,FILTER*%
%TO.N,Net-(U3-FILTER)*%
X164135000Y-116525000D03*
%TO.P,U3,7,VIOUT*%
%TO.N,Current Reading*%
X162865000Y-116525000D03*
%TO.P,U3,8,VCC*%
%TO.N,+5V*%
X161595000Y-116525000D03*
%TD*%
D20*
%TO.P,BZ1,1,+*%
%TO.N,Buzzer*%
X189800000Y-116200000D03*
D21*
%TO.P,BZ1,2,-*%
%TO.N,GND*%
X189800000Y-123800000D03*
%TD*%
D10*
%TO.P,Femur,1,Pin_1*%
%TO.N,GND*%
X148300000Y-130000000D03*
D11*
%TO.P,Femur,2,Pin_2*%
%TO.N,S+*%
X148300000Y-127460000D03*
%TO.P,Femur,3,Pin_3*%
%TO.N,S5*%
X148300000Y-124920000D03*
%TD*%
D10*
%TO.P,Coxa,1,Pin_1*%
%TO.N,GND*%
X152950000Y-53650000D03*
D11*
%TO.P,Coxa,2,Pin_2*%
%TO.N,S+*%
X152950000Y-51110000D03*
%TO.P,Coxa,3,Pin_3*%
%TO.N,S13*%
X152950000Y-48570000D03*
%TD*%
D10*
%TO.P,Coxa,1,Pin_1*%
%TO.N,GND*%
X179300000Y-130000000D03*
D11*
%TO.P,Coxa,2,Pin_2*%
%TO.N,S+*%
X179300000Y-127460000D03*
%TO.P,Coxa,3,Pin_3*%
%TO.N,S1*%
X179300000Y-124920000D03*
%TD*%
D23*
%TO.P,C7,1*%
%TO.N,GND*%
X156000000Y-118000000D03*
D24*
%TO.P,C7,2*%
%TO.N,+5V*%
X156000000Y-120000000D03*
%TD*%
D10*
%TO.P,Femur,1,Pin_1*%
%TO.N,GND*%
X174650000Y-130000000D03*
D11*
%TO.P,Femur,2,Pin_2*%
%TO.N,S+*%
X174650000Y-127460000D03*
%TO.P,Femur,3,Pin_3*%
%TO.N,S2*%
X174650000Y-124920000D03*
%TD*%
D10*
%TO.P,Coxa,1,Pin_1*%
%TO.N,GND*%
X179300000Y-53650000D03*
D11*
%TO.P,Coxa,2,Pin_2*%
%TO.N,S+*%
X179300000Y-51110000D03*
%TO.P,Coxa,3,Pin_3*%
%TO.N,S10*%
X179300000Y-48570000D03*
%TD*%
D10*
%TO.P,Coxa,1,Pin_1*%
%TO.N,GND*%
X121400000Y-53650000D03*
D11*
%TO.P,Coxa,2,Pin_2*%
%TO.N,S+*%
X121400000Y-51110000D03*
%TO.P,Coxa,3,Pin_3*%
%TO.N,S16*%
X121400000Y-48570000D03*
%TD*%
D25*
%TO.P,C6,1*%
%TO.N,Net-(U3-FILTER)*%
X162550000Y-112650000D03*
%TO.P,C6,2*%
%TO.N,GND*%
X164450000Y-112650000D03*
%TD*%
D10*
%TO.P,Tibia,1,Pin_1*%
%TO.N,GND*%
X112100000Y-130000000D03*
D11*
%TO.P,Tibia,2,Pin_2*%
%TO.N,S+*%
X112100000Y-127460000D03*
%TO.P,Tibia,3,Pin_3*%
%TO.N,S9*%
X112100000Y-124920000D03*
%TD*%
D10*
%TO.P,Femur,1,Pin_1*%
%TO.N,GND*%
X116750000Y-130000000D03*
D11*
%TO.P,Femur,2,Pin_2*%
%TO.N,S+*%
X116750000Y-127460000D03*
%TO.P,Femur,3,Pin_3*%
%TO.N,S8*%
X116750000Y-124920000D03*
%TD*%
D10*
%TO.P,Tibia,1,Pin_1*%
%TO.N,GND*%
X170000000Y-130000000D03*
D11*
%TO.P,Tibia,2,Pin_2*%
%TO.N,S+*%
X170000000Y-127460000D03*
%TO.P,Tibia,3,Pin_3*%
%TO.N,S3*%
X170000000Y-124920000D03*
%TD*%
D10*
%TO.P,U2,1,GND*%
%TO.N,GND*%
X139175000Y-106839500D03*
D26*
%TO.P,U2,2,VCC*%
%TO.N,+3.3V*%
X139175000Y-104299500D03*
%TO.P,U2,3,CE*%
%TO.N,CE*%
X141715000Y-106839500D03*
%TO.P,U2,4,~{CSN}*%
%TO.N,CSN*%
X141715000Y-104299500D03*
%TO.P,U2,5,SCK*%
%TO.N,SCK*%
X144255000Y-106839500D03*
%TO.P,U2,6,MOSI*%
%TO.N,MOSI*%
X144255000Y-104299500D03*
%TO.P,U2,7,MISO*%
%TO.N,MISO*%
X146795000Y-106839500D03*
%TO.P,U2,8,IRQ*%
%TO.N,unconnected-(U2-IRQ-Pad8)*%
X146795000Y-104299500D03*
%TD*%
D27*
%TO.P,A1,3V31,3.3V*%
%TO.N,+3.3V*%
X199475000Y-75210000D03*
%TO.P,A1,3V32,3.3V*%
X199475000Y-72670000D03*
%TO.P,A1,5V1,5V*%
%TO.N,+5V*%
X202015000Y-75210000D03*
%TO.P,A1,5V2,SPI_5V*%
X156295000Y-90450000D03*
%TO.P,A1,5V3,5V*%
X202015000Y-72670000D03*
%TO.P,A1,A0,A0*%
%TO.N,unconnected-(A1-PadA0)*%
X194395000Y-108230000D03*
%TO.P,A1,A1,A1*%
%TO.N,unconnected-(A1-PadA1)*%
X194395000Y-105690000D03*
%TO.P,A1,A2,A2*%
%TO.N,VD Reading*%
X191855000Y-108230000D03*
%TO.P,A1,A3,A3*%
%TO.N,unconnected-(A1-PadA3)*%
X191855000Y-105690000D03*
%TO.P,A1,A4,A4*%
%TO.N,Buzzer*%
X189315000Y-108230000D03*
%TO.P,A1,A5,A5*%
%TO.N,unconnected-(A1-PadA5)*%
X189315000Y-105690000D03*
%TO.P,A1,A6,A6*%
%TO.N,unconnected-(A1-PadA6)*%
X186775000Y-108230000D03*
%TO.P,A1,A7,A7*%
%TO.N,unconnected-(A1-PadA7)*%
X186775000Y-105690000D03*
%TO.P,A1,A8,A8*%
%TO.N,unconnected-(A1-PadA8)*%
X184235000Y-108230000D03*
%TO.P,A1,A9,A9*%
%TO.N,unconnected-(A1-PadA9)*%
X184235000Y-105690000D03*
%TO.P,A1,A10,A10*%
%TO.N,unconnected-(A1-PadA10)*%
X181695000Y-108230000D03*
%TO.P,A1,A11,A11*%
%TO.N,unconnected-(A1-PadA11)*%
X181695000Y-105690000D03*
%TO.P,A1,A12,A12*%
%TO.N,unconnected-(A1-PadA12)*%
X179155000Y-108230000D03*
%TO.P,A1,A13,A13*%
%TO.N,unconnected-(A1-PadA13)*%
X179155000Y-105690000D03*
%TO.P,A1,A14,A14*%
%TO.N,Current Reading*%
X176615000Y-108230000D03*
%TO.P,A1,A15,A15*%
%TO.N,unconnected-(A1-PadA15)*%
X176615000Y-105690000D03*
%TO.P,A1,AREF,AREF*%
%TO.N,unconnected-(A1-PadAREF)*%
X196935000Y-75210000D03*
%TO.P,A1,D0,D0/RX0*%
%TO.N,unconnected-(A1-D0{slash}RX0-PadD0)*%
X194395000Y-75210000D03*
%TO.P,A1,D1,D1/TX0*%
%TO.N,unconnected-(A1-D1{slash}TX0-PadD1)*%
X194395000Y-72670000D03*
%TO.P,A1,D2,D2_INT0*%
%TO.N,unconnected-(A1-D2_INT0-PadD2)*%
X191855000Y-75210000D03*
%TO.P,A1,D3,D3_INT1*%
%TO.N,unconnected-(A1-D3_INT1-PadD3)*%
X191855000Y-72670000D03*
%TO.P,A1,D4,D4*%
%TO.N,LED1*%
X189315000Y-75210000D03*
%TO.P,A1,D5,D5*%
%TO.N,unconnected-(A1-PadD5)*%
X189315000Y-72670000D03*
%TO.P,A1,D6,D6*%
%TO.N,unconnected-(A1-PadD6)*%
X186775000Y-75210000D03*
%TO.P,A1,D7,D7*%
%TO.N,S10*%
X186775000Y-72670000D03*
%TO.P,A1,D8,D8*%
%TO.N,unconnected-(A1-PadD8)*%
X184235000Y-75210000D03*
%TO.P,A1,D9,D9*%
%TO.N,S11*%
X184235000Y-72670000D03*
%TO.P,A1,D10,D10*%
%TO.N,unconnected-(A1-PadD10)*%
X181695000Y-75210000D03*
%TO.P,A1,D11,D11*%
%TO.N,S12*%
X181695000Y-72670000D03*
%TO.P,A1,D12,D12*%
%TO.N,unconnected-(A1-PadD12)*%
X179155000Y-75210000D03*
%TO.P,A1,D13,D13*%
%TO.N,S13*%
X179155000Y-72670000D03*
%TO.P,A1,D14,D14/TX3*%
%TO.N,unconnected-(A1-D14{slash}TX3-PadD14)*%
X176615000Y-75210000D03*
%TO.P,A1,D15,D15/RX3*%
%TO.N,unconnected-(A1-D15{slash}RX3-PadD15)*%
X176615000Y-72670000D03*
%TO.P,A1,D16,D16/TX2*%
%TO.N,unconnected-(A1-D16{slash}TX2-PadD16)*%
X174075000Y-75210000D03*
%TO.P,A1,D17,D17/RX2*%
%TO.N,unconnected-(A1-D17{slash}RX2-PadD17)*%
X174075000Y-72670000D03*
%TO.P,A1,D18,D18/TX1*%
%TO.N,unconnected-(A1-D18{slash}TX1-PadD18)*%
X171535000Y-75210000D03*
%TO.P,A1,D19,D19/RX1*%
%TO.N,unconnected-(A1-D19{slash}RX1-PadD19)*%
X171535000Y-72670000D03*
%TO.P,A1,D20,D20/SDA*%
%TO.N,SDA*%
X168995000Y-75210000D03*
%TO.P,A1,D21,D21/SCL*%
%TO.N,SCL*%
X168995000Y-72670000D03*
%TO.P,A1,D22,D22*%
%TO.N,unconnected-(A1-PadD22)*%
X166455000Y-75210000D03*
%TO.P,A1,D23,D23*%
%TO.N,S14*%
X166455000Y-72670000D03*
%TO.P,A1,D24,D24*%
%TO.N,unconnected-(A1-PadD24)*%
X163915000Y-75210000D03*
%TO.P,A1,D25,D25*%
%TO.N,S15*%
X163915000Y-72670000D03*
%TO.P,A1,D26,D26*%
%TO.N,unconnected-(A1-PadD26)*%
X161375000Y-75210000D03*
%TO.P,A1,D27,D27*%
%TO.N,S16*%
X161375000Y-72670000D03*
%TO.P,A1,D28,D28*%
%TO.N,unconnected-(A1-PadD28)*%
X158835000Y-75210000D03*
%TO.P,A1,D29,D29*%
%TO.N,S17*%
X158835000Y-72670000D03*
%TO.P,A1,D30,D30*%
%TO.N,unconnected-(A1-PadD30)*%
X156295000Y-75210000D03*
%TO.P,A1,D31,D31*%
%TO.N,S18*%
X156295000Y-72670000D03*
%TO.P,A1,D32,D32*%
%TO.N,S1*%
X174075000Y-108230000D03*
%TO.P,A1,D33,D33*%
%TO.N,unconnected-(A1-PadD33)*%
X174075000Y-105690000D03*
%TO.P,A1,D34,D34*%
%TO.N,S2*%
X171535000Y-108230000D03*
%TO.P,A1,D35,D35*%
%TO.N,unconnected-(A1-PadD35)*%
X171535000Y-105690000D03*
%TO.P,A1,D36,D36*%
%TO.N,S3*%
X168995000Y-108230000D03*
%TO.P,A1,D37,D37*%
%TO.N,unconnected-(A1-PadD37)*%
X168995000Y-105690000D03*
%TO.P,A1,D38,D38*%
%TO.N,S4*%
X166455000Y-108230000D03*
%TO.P,A1,D39,D39*%
%TO.N,unconnected-(A1-PadD39)*%
X166455000Y-105690000D03*
%TO.P,A1,D40,D40*%
%TO.N,S5*%
X163915000Y-108230000D03*
%TO.P,A1,D41,D41*%
%TO.N,unconnected-(A1-PadD41)*%
X163915000Y-105690000D03*
%TO.P,A1,D42,D42*%
%TO.N,S6*%
X161375000Y-108230000D03*
%TO.P,A1,D43,D43*%
%TO.N,unconnected-(A1-PadD43)*%
X161375000Y-105690000D03*
%TO.P,A1,D44,D44*%
%TO.N,LED2*%
X158835000Y-108230000D03*
%TO.P,A1,D45,D45*%
%TO.N,S7*%
X158835000Y-105690000D03*
%TO.P,A1,D46,D46*%
%TO.N,S8*%
X156295000Y-108230000D03*
%TO.P,A1,D47,D47*%
%TO.N,S9*%
X156295000Y-105690000D03*
%TO.P,A1,D48,D48*%
%TO.N,CE*%
X156295000Y-103150000D03*
%TO.P,A1,D49,D49*%
%TO.N,unconnected-(A1-PadD49)*%
X158835000Y-103150000D03*
%TO.P,A1,D50,D50_MISO*%
%TO.N,MISO*%
X156295000Y-100610000D03*
%TO.P,A1,D51,D51_MOSI*%
%TO.N,MOSI*%
X158835000Y-100610000D03*
%TO.P,A1,D52,D52_SCK*%
%TO.N,SCK*%
X156295000Y-98070000D03*
%TO.P,A1,D53,D53_CS*%
%TO.N,CSN*%
X158835000Y-98070000D03*
D28*
%TO.P,A1,GND1,GND*%
%TO.N,GND*%
X204555000Y-75210000D03*
%TO.P,A1,GND2,GND*%
X204555000Y-72670000D03*
%TO.P,A1,GND4,SPI_GND*%
X156295000Y-85370000D03*
D27*
%TO.P,A1,MISO,SPI_MISO*%
%TO.N,unconnected-(A1-SPI_MISO-PadMISO)*%
X158835000Y-90450000D03*
%TO.P,A1,MOSI,SPI_MOSI*%
%TO.N,unconnected-(A1-SPI_MOSI-PadMOSI)*%
X156295000Y-87910000D03*
%TO.P,A1,RST1,RESET*%
%TO.N,unconnected-(A1-RESET-PadRST1)*%
X196935000Y-72670000D03*
%TO.P,A1,RST2,SPI_RESET*%
%TO.N,unconnected-(A1-SPI_RESET-PadRST2)*%
X158835000Y-85370000D03*
%TO.P,A1,SCK,SPI_SCK*%
%TO.N,unconnected-(A1-SPI_SCK-PadSCK)*%
X158835000Y-87910000D03*
%TO.P,A1,VIN1,VIN*%
%TO.N,VIN*%
X207095000Y-75210000D03*
%TO.P,A1,VIN2,VIN*%
X207095000Y-72670000D03*
%TD*%
D10*
%TO.P,Tibia,1,Pin_1*%
%TO.N,GND*%
X143650000Y-130000000D03*
D11*
%TO.P,Tibia,2,Pin_2*%
%TO.N,S+*%
X143650000Y-127460000D03*
%TO.P,Tibia,3,Pin_3*%
%TO.N,S6*%
X143650000Y-124920000D03*
%TD*%
D10*
%TO.P,Coxa,1,Pin_1*%
%TO.N,GND*%
X121400000Y-130000000D03*
D11*
%TO.P,Coxa,2,Pin_2*%
%TO.N,S+*%
X121400000Y-127460000D03*
%TO.P,Coxa,3,Pin_3*%
%TO.N,S7*%
X121400000Y-124920000D03*
%TD*%
D10*
%TO.P,Coxa,1,Pin_1*%
%TO.N,GND*%
X152950000Y-130000000D03*
D11*
%TO.P,Coxa,2,Pin_2*%
%TO.N,S+*%
X152950000Y-127460000D03*
%TO.P,Coxa,3,Pin_3*%
%TO.N,S4*%
X152950000Y-124920000D03*
%TD*%
D20*
%TO.P,C4,1*%
%TO.N,VIN*%
X95625000Y-69980000D03*
D21*
%TO.P,C4,2*%
%TO.N,GND*%
X103125000Y-69980000D03*
%TD*%
D10*
%TO.P,Tibia,1,Pin_1*%
%TO.N,GND*%
X112100000Y-53650000D03*
D11*
%TO.P,Tibia,2,Pin_2*%
%TO.N,S+*%
X112100000Y-51110000D03*
%TO.P,Tibia,3,Pin_3*%
%TO.N,S18*%
X112100000Y-48570000D03*
%TD*%
D13*
%TO.P,C2,1*%
%TO.N,+5V*%
X137975000Y-115650000D03*
%TO.P,C2,2*%
%TO.N,GND*%
X135025000Y-115650000D03*
%TD*%
D10*
%TO.P,Tibia,1,Pin_1*%
%TO.N,GND*%
X170000000Y-53650000D03*
D11*
%TO.P,Tibia,2,Pin_2*%
%TO.N,S+*%
X170000000Y-51110000D03*
%TO.P,Tibia,3,Pin_3*%
%TO.N,S12*%
X170000000Y-48570000D03*
%TD*%
D24*
%TO.P,R2,1*%
%TO.N,GND*%
X179337600Y-119790000D03*
D29*
%TO.P,R2,2*%
%TO.N,VD Reading*%
X179337600Y-112170000D03*
%TD*%
D10*
%TO.P,Femur,1,Pin_1*%
%TO.N,GND*%
X148300000Y-53650000D03*
D11*
%TO.P,Femur,2,Pin_2*%
%TO.N,S+*%
X148300000Y-51110000D03*
%TO.P,Femur,3,Pin_3*%
%TO.N,S14*%
X148300000Y-48570000D03*
%TD*%
D30*
%TO.P,U1,1,VCC*%
%TO.N,+3.3V*%
X151780000Y-63000000D03*
%TO.P,U1,2,GND*%
%TO.N,GND*%
X149240000Y-63000000D03*
%TO.P,U1,3,SCL*%
%TO.N,SCL*%
X146700000Y-63000000D03*
%TO.P,U1,4,SDA*%
%TO.N,SDA*%
X144160000Y-63000000D03*
%TO.P,U1,5,XDA*%
%TO.N,unconnected-(U1-XDA-Pad5)*%
X141620000Y-63000000D03*
%TO.P,U1,6,XCL*%
%TO.N,unconnected-(U1-XCL-Pad6)*%
X139080000Y-63000000D03*
%TO.P,U1,7,ADD*%
%TO.N,unconnected-(U1-ADD-Pad7)*%
X136540000Y-63000000D03*
%TO.P,U1,8,INT*%
%TO.N,unconnected-(U1-INT-Pad8)*%
X134000000Y-63000000D03*
%TD*%
D24*
%TO.P,R1,1*%
%TO.N,VD Reading*%
X174650000Y-119920000D03*
D29*
%TO.P,R1,2*%
%TO.N,VIN*%
X174650000Y-112300000D03*
%TD*%
D14*
%TO.P,J1,1,Pin_1*%
%TO.N,VIN*%
X95000000Y-92950000D03*
D15*
%TO.P,J1,2,Pin_2*%
X95000000Y-98030000D03*
%TD*%
D10*
%TO.P,Femur,1,Pin_1*%
%TO.N,GND*%
X116750000Y-53650000D03*
D11*
%TO.P,Femur,2,Pin_2*%
%TO.N,S+*%
X116750000Y-51110000D03*
%TO.P,Femur,3,Pin_3*%
%TO.N,S17*%
X116750000Y-48570000D03*
%TD*%
D31*
%TO.N,+5V*%
X161595000Y-116525000D03*
X138012500Y-115687500D03*
%TO.N,GND*%
X164450000Y-112650000D03*
X134850000Y-124450000D03*
X135025000Y-115650000D03*
X187840000Y-59670000D03*
%TO.N,VIN*%
X165405000Y-121475000D03*
X161595000Y-121475000D03*
X162865000Y-121475000D03*
X164135000Y-121475000D03*
%TO.N,SDA*%
X156579800Y-61635200D03*
%TO.N,SCL*%
X159419800Y-64560200D03*
%TO.N,Current Reading*%
X162800000Y-114600000D03*
%TD*%
D32*
%TO.N,+5V*%
X161595000Y-116525000D02*
X158120000Y-120000000D01*
X158120000Y-120000000D02*
X156000000Y-120000000D01*
X190965000Y-59845000D02*
X190790000Y-59670000D01*
X138012500Y-115687500D02*
X137975000Y-115650000D01*
X190965000Y-63570000D02*
X190965000Y-59845000D01*
X190965000Y-63570000D02*
X192915000Y-63570000D01*
X202015000Y-72670000D02*
X202015000Y-75210000D01*
X138150000Y-119550000D02*
X138150000Y-115825000D01*
X138150000Y-115825000D02*
X138012500Y-115687500D01*
X192915000Y-63570000D02*
X202015000Y-72670000D01*
%TO.N,GND*%
X186700000Y-60810000D02*
X187840000Y-59670000D01*
X186700000Y-68200000D02*
X186700000Y-60810000D01*
D33*
X155977500Y-85687500D02*
X156295000Y-85370000D01*
D32*
X187665000Y-68470000D02*
X186970000Y-68470000D01*
X186970000Y-68470000D02*
X186700000Y-68200000D01*
X134850000Y-124450000D02*
X134050000Y-123650000D01*
X165405000Y-116525000D02*
X165405000Y-113605000D01*
X134050000Y-123650000D02*
X134050000Y-116625000D01*
X165405000Y-113605000D02*
X164450000Y-112650000D01*
X134050000Y-116625000D02*
X135025000Y-115650000D01*
%TO.N,LED1*%
X190641400Y-73883600D02*
X189315000Y-75210000D01*
X190641400Y-68793600D02*
X190641400Y-73883600D01*
X190965000Y-68470000D02*
X190641400Y-68793600D01*
%TO.N,LED2*%
X158835000Y-108665000D02*
X158835000Y-108230000D01*
X148100000Y-112400000D02*
X155100000Y-112400000D01*
X141700000Y-120900000D02*
X141700000Y-118800000D01*
X141700000Y-118800000D02*
X148100000Y-112400000D01*
X138150000Y-124450000D02*
X141700000Y-120900000D01*
X155100000Y-112400000D02*
X158835000Y-108665000D01*
%TO.N,S1*%
X171300000Y-119200000D02*
X171300000Y-111005000D01*
X177020000Y-124920000D02*
X171300000Y-119200000D01*
X179300000Y-124920000D02*
X177020000Y-124920000D01*
X171300000Y-111005000D02*
X174075000Y-108230000D01*
%TO.N,S2*%
X168900000Y-110865000D02*
X171535000Y-108230000D01*
X174650000Y-124920000D02*
X168900000Y-119170000D01*
X168900000Y-119170000D02*
X168900000Y-110865000D01*
%TO.N,S3*%
X167500000Y-109725000D02*
X168995000Y-108230000D01*
X170000000Y-124920000D02*
X168720000Y-124920000D01*
X167500000Y-123700000D02*
X167500000Y-109725000D01*
X168720000Y-124920000D02*
X167500000Y-123700000D01*
%TO.N,S4*%
X163256400Y-109943600D02*
X164741400Y-109943600D01*
X153000000Y-124870000D02*
X153000000Y-117400000D01*
X154600000Y-115800000D02*
X157400000Y-115800000D01*
X165342500Y-109642500D02*
X165342500Y-109342500D01*
X152950000Y-124920000D02*
X153000000Y-124870000D01*
X157400000Y-115800000D02*
X163256400Y-109943600D01*
X165042500Y-109642500D02*
X165342500Y-109642500D01*
X153000000Y-117400000D02*
X154600000Y-115800000D01*
X164741400Y-109943600D02*
X165042500Y-109642500D01*
X165342500Y-109342500D02*
X166455000Y-108230000D01*
%TO.N,S5*%
X162970000Y-108230000D02*
X162588600Y-108611400D01*
X150600000Y-115200000D02*
X150600000Y-122620000D01*
X162588600Y-108732690D02*
X161877690Y-109443600D01*
X150900000Y-114900000D02*
X150600000Y-115200000D01*
X161877690Y-109443600D02*
X161156400Y-109443600D01*
X150600000Y-122620000D02*
X148300000Y-124920000D01*
X163915000Y-108230000D02*
X162970000Y-108230000D01*
X155700000Y-114900000D02*
X150900000Y-114900000D01*
X161156400Y-109443600D02*
X155700000Y-114900000D01*
X162588600Y-108611400D02*
X162588600Y-108732690D01*
%TO.N,S6*%
X149900000Y-113700000D02*
X155200000Y-113700000D01*
X160670000Y-108230000D02*
X161375000Y-108230000D01*
X155200000Y-113700000D02*
X160670000Y-108230000D01*
X143650000Y-124920000D02*
X143650000Y-119950000D01*
X143650000Y-119950000D02*
X149900000Y-113700000D01*
%TO.N,S7*%
X157508600Y-107016400D02*
X158835000Y-105690000D01*
X145300000Y-111400000D02*
X154841290Y-111400000D01*
X144200000Y-112500000D02*
X145300000Y-111400000D01*
X121680000Y-124920000D02*
X134100000Y-112500000D01*
X121400000Y-124920000D02*
X121680000Y-124920000D01*
X134100000Y-112500000D02*
X144200000Y-112500000D01*
X157508600Y-108732690D02*
X157508600Y-107016400D01*
X154841290Y-111400000D02*
X157508600Y-108732690D01*
%TO.N,S8*%
X127220000Y-116500000D02*
X124200000Y-116500000D01*
X156295000Y-108230000D02*
X154225000Y-110300000D01*
X154225000Y-110300000D02*
X133420000Y-110300000D01*
X124200000Y-116500000D02*
X116750000Y-123950000D01*
X133420000Y-110300000D02*
X127220000Y-116500000D01*
X116750000Y-123950000D02*
X116750000Y-124920000D01*
%TO.N,S9*%
X151300000Y-109200000D02*
X132300000Y-109200000D01*
X112100000Y-118400000D02*
X112100000Y-124920000D01*
X156295000Y-105690000D02*
X154810000Y-105690000D01*
X132300000Y-109200000D02*
X129300000Y-106200000D01*
X129300000Y-106200000D02*
X124300000Y-106200000D01*
X124300000Y-106200000D02*
X112100000Y-118400000D01*
X154810000Y-105690000D02*
X151300000Y-109200000D01*
%TO.N,S10*%
X177000000Y-63500000D02*
X186170000Y-72670000D01*
X179300000Y-48570000D02*
X177000000Y-50870000D01*
X177000000Y-50870000D02*
X177000000Y-63500000D01*
X186170000Y-72670000D02*
X186775000Y-72670000D01*
%TO.N,S11*%
X183670000Y-72670000D02*
X184235000Y-72670000D01*
X173000000Y-50220000D02*
X173000000Y-62000000D01*
X174650000Y-48570000D02*
X173000000Y-50220000D01*
X173000000Y-62000000D02*
X183670000Y-72670000D01*
%TO.N,S12*%
X168000000Y-50570000D02*
X168000000Y-66000000D01*
X168000000Y-66000000D02*
X169500000Y-67500000D01*
X176525000Y-67500000D02*
X181695000Y-72670000D01*
X169500000Y-67500000D02*
X176525000Y-67500000D01*
X170000000Y-48570000D02*
X168000000Y-50570000D01*
%TO.N,S13*%
X164500000Y-60120000D02*
X164500000Y-62500000D01*
X176485000Y-70000000D02*
X179155000Y-72670000D01*
X169000000Y-70000000D02*
X176485000Y-70000000D01*
X166500000Y-67500000D02*
X169000000Y-70000000D01*
X166500000Y-64500000D02*
X166500000Y-67500000D01*
X152950000Y-48570000D02*
X164500000Y-60120000D01*
X164500000Y-62500000D02*
X166500000Y-64500000D01*
%TO.N,S14*%
X149500000Y-49770000D02*
X148300000Y-48570000D01*
X155000000Y-58500000D02*
X149500000Y-53000000D01*
X162500000Y-60500000D02*
X160500000Y-58500000D01*
X162500000Y-67000000D02*
X162500000Y-60500000D01*
X149500000Y-53000000D02*
X149500000Y-49770000D01*
X160500000Y-58500000D02*
X155000000Y-58500000D01*
X166455000Y-70955000D02*
X162500000Y-67000000D01*
X166455000Y-72670000D02*
X166455000Y-70955000D01*
%TO.N,S15*%
X129930000Y-48570000D02*
X129000000Y-49500000D01*
X143650000Y-48570000D02*
X129930000Y-48570000D01*
X132112000Y-66500000D02*
X157745000Y-66500000D01*
X157745000Y-66500000D02*
X163915000Y-72670000D01*
X129000000Y-49500000D02*
X129000000Y-63388000D01*
X129000000Y-63388000D02*
X132112000Y-66500000D01*
%TO.N,S16*%
X156705000Y-68000000D02*
X161375000Y-72670000D01*
X124000000Y-51170000D02*
X124000000Y-61500000D01*
X121400000Y-48570000D02*
X124000000Y-51170000D01*
X124000000Y-61500000D02*
X130500000Y-68000000D01*
X130500000Y-68000000D02*
X156705000Y-68000000D01*
%TO.N,S17*%
X116750000Y-48570000D02*
X118500000Y-50320000D01*
X122400000Y-71400000D02*
X157565000Y-71400000D01*
X157565000Y-71400000D02*
X158835000Y-72670000D01*
X118500000Y-50320000D02*
X118500000Y-67500000D01*
X118500000Y-67500000D02*
X122400000Y-71400000D01*
%TO.N,S18*%
X112245000Y-49910000D02*
X111602943Y-49910000D01*
X155965000Y-73000000D02*
X156295000Y-72670000D01*
X111602943Y-49910000D02*
X110000000Y-51512943D01*
X113585000Y-48570000D02*
X112245000Y-49910000D01*
X112100000Y-48570000D02*
X113585000Y-48570000D01*
X110000000Y-67000000D02*
X116000000Y-73000000D01*
X116000000Y-73000000D02*
X155965000Y-73000000D01*
X110000000Y-51512943D02*
X110000000Y-67000000D01*
%TO.N,SDA*%
X145524800Y-61635200D02*
X156579800Y-61635200D01*
X144160000Y-63000000D02*
X145524800Y-61635200D01*
D34*
%TO.N,+3.3V*%
X133540000Y-104299500D02*
X133000000Y-104839500D01*
D32*
X199475000Y-72670000D02*
X199475000Y-75210000D01*
D34*
X139175000Y-104299500D02*
X133540000Y-104299500D01*
D32*
%TO.N,SCL*%
X149172700Y-65472700D02*
X146700000Y-63000000D01*
X159419800Y-64560200D02*
X158507300Y-65472700D01*
X158507300Y-65472700D02*
X149172700Y-65472700D01*
%TO.N,MISO*%
X156295000Y-100610000D02*
X156295000Y-101936400D01*
X156295000Y-101936400D02*
X152663600Y-101936400D01*
X147760500Y-106839500D02*
X146795000Y-106839500D01*
X152663600Y-101936400D02*
X147760500Y-106839500D01*
%TO.N,CSN*%
X141715000Y-102285000D02*
X141715000Y-104299500D01*
X147143600Y-96856400D02*
X141715000Y-102285000D01*
X157621400Y-96856400D02*
X147143600Y-96856400D01*
X158835000Y-98070000D02*
X157621400Y-96856400D01*
%TO.N,SCK*%
X156225000Y-98000000D02*
X156295000Y-98070000D01*
X143000000Y-105584500D02*
X143000000Y-103717443D01*
X144234416Y-106818916D02*
X143894089Y-106478589D01*
X148717443Y-98000000D02*
X156225000Y-98000000D01*
X143000000Y-103717443D02*
X148717443Y-98000000D01*
X143894089Y-106478589D02*
X143000000Y-105584500D01*
X144255000Y-106839500D02*
X144234416Y-106818916D01*
%TO.N,MOSI*%
X158835000Y-100610000D02*
X157621400Y-99396400D01*
X149500000Y-102000000D02*
X146554500Y-102000000D01*
X152103600Y-99396400D02*
X149500000Y-102000000D01*
X157621400Y-99396400D02*
X152103600Y-99396400D01*
X146554500Y-102000000D02*
X144255000Y-104299500D01*
%TO.N,Buzzer*%
X189800000Y-116200000D02*
X189800000Y-108715000D01*
X189800000Y-108715000D02*
X189315000Y-108230000D01*
%TO.N,Net-(U3-FILTER)*%
X164135000Y-116525000D02*
X164135000Y-114235000D01*
X164135000Y-114235000D02*
X162550000Y-112650000D01*
%TO.N,Current Reading*%
X162865000Y-116525000D02*
X162865000Y-114665000D01*
X162865000Y-114665000D02*
X162800000Y-114600000D01*
%TO.N,CE*%
X156295000Y-103150000D02*
X154750000Y-103150000D01*
X154750000Y-103150000D02*
X149860500Y-108039500D01*
X149860500Y-108039500D02*
X142915000Y-108039500D01*
X142915000Y-108039500D02*
X141715000Y-106839500D01*
%TD*%
M02*
