%TF.GenerationSoftware,KiCad,Pcbnew,8.0.7*%
%TF.CreationDate,2025-07-19T14:15:59-04:00*%
%TF.ProjectId,Hexapod V2,48657861-706f-4642-9056-322e6b696361,rev?*%
%TF.SameCoordinates,Original*%
%TF.FileFunction,Soldermask,Top*%
%TF.FilePolarity,Negative*%
%FSLAX46Y46*%
G04 Gerber Fmt 4.6, Leading zero omitted, Abs format (unit mm)*
G04 Created by KiCad (PCBNEW 8.0.7) date 2025-07-19 14:15:59*
%MOMM*%
%LPD*%
G01*
G04 APERTURE LIST*
G04 Aperture macros list*
%AMRoundRect*
0 Rectangle with rounded corners*
0 $1 Rounding radius*
0 $2 $3 $4 $5 $6 $7 $8 $9 X,Y pos of 4 corners*
0 Add a 4 corners polygon primitive as box body*
4,1,4,$2,$3,$4,$5,$6,$7,$8,$9,$2,$3,0*
0 Add four circle primitives for the rounded corners*
1,1,$1+$1,$2,$3*
1,1,$1+$1,$4,$5*
1,1,$1+$1,$6,$7*
1,1,$1+$1,$8,$9*
0 Add four rect primitives between the rounded corners*
20,1,$1+$1,$2,$3,$4,$5,0*
20,1,$1+$1,$4,$5,$6,$7,0*
20,1,$1+$1,$6,$7,$8,$9,0*
20,1,$1+$1,$8,$9,$2,$3,0*%
G04 Aperture macros list end*
%ADD10O,1.600000X2.000000*%
%ADD11R,1.700000X1.700000*%
%ADD12O,1.700000X1.700000*%
%ADD13R,2.600000X2.600000*%
%ADD14C,2.600000*%
%ADD15RoundRect,0.150000X-0.825000X-0.150000X0.825000X-0.150000X0.825000X0.150000X-0.825000X0.150000X0*%
%ADD16RoundRect,0.250000X-0.475000X0.250000X-0.475000X-0.250000X0.475000X-0.250000X0.475000X0.250000X0*%
%ADD17RoundRect,0.201000X-0.886000X-0.201000X0.886000X-0.201000X0.886000X0.201000X-0.886000X0.201000X0*%
%ADD18RoundRect,0.250000X-0.650000X0.325000X-0.650000X-0.325000X0.650000X-0.325000X0.650000X0.325000X0*%
%ADD19R,2.000000X2.000000*%
%ADD20C,2.000000*%
%ADD21RoundRect,0.090000X-0.660000X-0.360000X0.660000X-0.360000X0.660000X0.360000X-0.660000X0.360000X0*%
%ADD22C,1.512000*%
%ADD23C,1.462000*%
%ADD24C,1.412000*%
%ADD25R,1.200000X1.200000*%
%ADD26C,1.200000*%
%ADD27C,1.600000*%
%ADD28O,1.600000X1.600000*%
%ADD29C,1.524000*%
%ADD30R,1.524000X1.524000*%
%ADD31C,1.700000*%
G04 APERTURE END LIST*
D10*
%TO.C,SSD1306*%
X134420000Y-107450000D03*
X131880000Y-107450000D03*
X129340000Y-107450000D03*
X126800000Y-107450000D03*
%TD*%
D11*
%TO.C,T4*%
X102500000Y-48080000D03*
D12*
X102500000Y-45540000D03*
X102500000Y-43000000D03*
%TD*%
D13*
%TO.C,J3*%
X80000000Y-86000000D03*
D14*
X80000000Y-91080000D03*
%TD*%
D11*
%TO.C,C44*%
X132500000Y-48080000D03*
D12*
X132500000Y-45540000D03*
X132500000Y-43000000D03*
%TD*%
D15*
%TO.C,U3*%
X87800000Y-71460000D03*
X87800000Y-72730000D03*
X87800000Y-74000000D03*
X87800000Y-75270000D03*
X92750000Y-75270000D03*
X92750000Y-74000000D03*
X92750000Y-72730000D03*
X92750000Y-71460000D03*
%TD*%
D11*
%TO.C,T2*%
X107500000Y-48080000D03*
D12*
X107500000Y-45540000D03*
X107500000Y-43000000D03*
%TD*%
D16*
%TO.C,C7*%
X96250000Y-69300000D03*
X96250000Y-71200000D03*
%TD*%
D11*
%TO.C,T5*%
X137500000Y-117000000D03*
D12*
X137500000Y-119540000D03*
X137500000Y-122080000D03*
%TD*%
D16*
%TO.C,C3*%
X96275000Y-73465000D03*
X96275000Y-75365000D03*
%TD*%
D11*
%TO.C,F1*%
X112500000Y-117000000D03*
D12*
X112500000Y-119540000D03*
X112500000Y-122080000D03*
%TD*%
D11*
%TO.C,C33*%
X102500000Y-117000000D03*
D12*
X102500000Y-119540000D03*
X102500000Y-122080000D03*
%TD*%
D11*
%TO.C,F4*%
X117500000Y-48080000D03*
D12*
X117500000Y-45540000D03*
X117500000Y-43000000D03*
%TD*%
D17*
%TO.C,U6*%
X105525000Y-102940000D03*
X105525000Y-104210000D03*
X105525000Y-105480000D03*
X105525000Y-106750000D03*
X105525000Y-108020000D03*
X105525000Y-109290000D03*
X105525000Y-110560000D03*
X110475000Y-110560000D03*
X110475000Y-109290000D03*
X110475000Y-108020000D03*
X110475000Y-106750000D03*
X110475000Y-105480000D03*
X110475000Y-104210000D03*
X110475000Y-102940000D03*
%TD*%
D18*
%TO.C,C6*%
X108750000Y-81025000D03*
X108750000Y-83975000D03*
%TD*%
%TO.C,C7*%
X108450000Y-71875000D03*
X108450000Y-74825000D03*
%TD*%
D19*
%TO.C,C8*%
X80000000Y-63000000D03*
D20*
X87500000Y-63000000D03*
%TD*%
D21*
%TO.C,D2*%
X101300000Y-80850000D03*
X101300000Y-84150000D03*
X106200000Y-84150000D03*
X106200000Y-80850000D03*
%TD*%
%TO.C,D1*%
X101000000Y-71700000D03*
X101000000Y-75000000D03*
X105900000Y-75000000D03*
X105900000Y-71700000D03*
%TD*%
D22*
%TO.C,U4*%
X149750000Y-54790000D03*
X149750000Y-57330000D03*
X149750000Y-59870000D03*
X149750000Y-62410000D03*
X149750000Y-87810000D03*
X164990000Y-57330000D03*
X154830000Y-97970000D03*
X149750000Y-64950000D03*
X149750000Y-67490000D03*
D23*
X152800000Y-58600000D03*
D22*
X149750000Y-70030000D03*
X149750000Y-72570000D03*
X149750000Y-75110000D03*
X149750000Y-77650000D03*
X149750000Y-80190000D03*
X149750000Y-82730000D03*
X149750000Y-85270000D03*
X164990000Y-85270000D03*
X164990000Y-82730000D03*
X164990000Y-80190000D03*
X164990000Y-77650000D03*
X164990000Y-75110000D03*
X164990000Y-72570000D03*
X164990000Y-70030000D03*
X164990000Y-67490000D03*
X164990000Y-64950000D03*
X164990000Y-62410000D03*
X164990000Y-59870000D03*
X149750000Y-90350000D03*
X149750000Y-92890000D03*
X149750000Y-95430000D03*
X149750000Y-97970000D03*
X149750000Y-100510000D03*
X149750000Y-103050000D03*
X149750000Y-105590000D03*
X149750000Y-108130000D03*
X149750000Y-110670000D03*
X164990000Y-110670000D03*
X164990000Y-108130000D03*
X164990000Y-105590000D03*
X164990000Y-103050000D03*
X164990000Y-100510000D03*
X164990000Y-97970000D03*
X164990000Y-95430000D03*
X164990000Y-92890000D03*
X164990000Y-90350000D03*
D23*
X152800000Y-63680000D03*
X152800000Y-61140000D03*
D22*
X149750000Y-52250000D03*
X164990000Y-87810000D03*
X164990000Y-54790000D03*
X157370000Y-97970000D03*
D24*
X160540000Y-67220000D03*
X160540000Y-65220000D03*
D22*
X162450000Y-97970000D03*
X159910000Y-97970000D03*
D24*
X162540000Y-65220000D03*
X162540000Y-67220000D03*
X158540000Y-67220000D03*
X158540000Y-65220000D03*
D23*
X152800000Y-66220000D03*
X152800000Y-68760000D03*
D22*
X152290000Y-97970000D03*
X164990000Y-52250000D03*
X162450000Y-54790000D03*
%TD*%
D11*
%TO.C,F5*%
X122500000Y-117000000D03*
D12*
X122500000Y-119540000D03*
X122500000Y-122080000D03*
%TD*%
D11*
%TO.C,F3*%
X117500000Y-117000000D03*
D12*
X117500000Y-119540000D03*
X117500000Y-122080000D03*
%TD*%
D11*
%TO.C,F2*%
X122500000Y-48080000D03*
D12*
X122500000Y-45540000D03*
X122500000Y-43000000D03*
%TD*%
D11*
%TO.C,T1*%
X127500000Y-117000000D03*
D12*
X127500000Y-119540000D03*
X127500000Y-122080000D03*
%TD*%
D11*
%TO.C,F6*%
X112500000Y-48080000D03*
D12*
X112500000Y-45540000D03*
X112500000Y-43000000D03*
%TD*%
D25*
%TO.C,C1*%
X144750000Y-65000000D03*
D26*
X146750000Y-65000000D03*
%TD*%
D11*
%TO.C,C55*%
X107500000Y-117000000D03*
D12*
X107500000Y-119540000D03*
X107500000Y-122080000D03*
%TD*%
D11*
%TO.C,C11*%
X97500000Y-117000000D03*
D12*
X97500000Y-119540000D03*
X97500000Y-122080000D03*
%TD*%
D11*
%TO.C,C44*%
X127500000Y-48250000D03*
D12*
X127500000Y-45710000D03*
X127500000Y-43170000D03*
%TD*%
D27*
%TO.C,R3*%
X98060000Y-84000000D03*
D28*
X90440000Y-84000000D03*
%TD*%
D11*
%TO.C,T3*%
X132500000Y-117000000D03*
D12*
X132500000Y-119540000D03*
X132500000Y-122080000D03*
%TD*%
D19*
%TO.C,BZ1*%
X97600000Y-111350000D03*
D20*
X97600000Y-103750000D03*
%TD*%
D29*
%TO.C,U2*%
X111763000Y-52765000D03*
X109223000Y-52765000D03*
X106683000Y-52765000D03*
X104143000Y-52765000D03*
X101603000Y-52765000D03*
X99063000Y-52765000D03*
X96523000Y-52765000D03*
X93983000Y-52765000D03*
%TD*%
D13*
%TO.C,J2*%
X80000000Y-74000000D03*
D14*
X80000000Y-79080000D03*
%TD*%
D30*
%TO.C,U5*%
X105700000Y-88900000D03*
X105700000Y-98300000D03*
X90300000Y-88900000D03*
X90300000Y-98300000D03*
%TD*%
D11*
%TO.C,C22*%
X137500000Y-48080000D03*
D12*
X137500000Y-45540000D03*
X137500000Y-43000000D03*
%TD*%
D11*
%TO.C,T6*%
X97500000Y-48080000D03*
D12*
X97500000Y-45540000D03*
X97500000Y-43000000D03*
%TD*%
D19*
%TO.C,C9*%
X80000000Y-102080000D03*
D20*
X87500000Y-102080000D03*
%TD*%
D27*
%TO.C,R4*%
X98060000Y-79250000D03*
D28*
X90440000Y-79250000D03*
%TD*%
D11*
%TO.C,U3*%
X141289500Y-65125000D03*
D31*
X138749500Y-65125000D03*
X141289500Y-62585000D03*
X138749500Y-62585000D03*
X141289500Y-60045000D03*
X138749500Y-60045000D03*
X141289500Y-57505000D03*
X138749500Y-57505000D03*
%TD*%
D20*
%TO.C,REF\u002A\u002A*%
X124750000Y-78250000D03*
X118250000Y-78250000D03*
X124750000Y-73750000D03*
X118250000Y-73750000D03*
%TD*%
M02*
