%TF.GenerationSoftware,KiCad,Pcbnew,8.0.7*%
%TF.CreationDate,2025-07-19T14:16:11-04:00*%
%TF.ProjectId,Hexapod V2,48657861-706f-4642-9056-322e6b696361,rev?*%
%TF.SameCoordinates,Original*%
%TF.FileFunction,Plated,1,4,PTH,Drill*%
%TF.FilePolarity,Positive*%
%FSLAX46Y46*%
G04 Gerber Fmt 4.6, Leading zero omitted, Abs format (unit mm)*
G04 Created by KiCad (PCBNEW 8.0.7) date 2025-07-19 14:16:11*
%MOMM*%
%LPD*%
G01*
G04 APERTURE LIST*
%TA.AperFunction,ViaDrill*%
%ADD10C,0.300000*%
%TD*%
%TA.AperFunction,ComponentDrill*%
%ADD11C,0.600000*%
%TD*%
%TA.AperFunction,ComponentDrill*%
%ADD12C,0.700000*%
%TD*%
%TA.AperFunction,ComponentDrill*%
%ADD13C,0.750000*%
%TD*%
%TA.AperFunction,ComponentDrill*%
%ADD14C,0.762000*%
%TD*%
%TA.AperFunction,ComponentDrill*%
%ADD15C,0.800000*%
%TD*%
%TA.AperFunction,ComponentDrill*%
%ADD16C,1.000000*%
%TD*%
%TA.AperFunction,ComponentDrill*%
%ADD17C,1.100000*%
%TD*%
%TA.AperFunction,ComponentDrill*%
%ADD18C,1.300000*%
%TD*%
G04 APERTURE END LIST*
D10*
X92750000Y-71500000D03*
X96250000Y-69300000D03*
X96250000Y-71200000D03*
X96275000Y-75365000D03*
X101025000Y-71725000D03*
X101325000Y-80825000D03*
X105525000Y-110560000D03*
X105900000Y-75000000D03*
X106200000Y-84150000D03*
X108450000Y-71875000D03*
X108450000Y-74825000D03*
X108750000Y-81000000D03*
X108750000Y-83975000D03*
X113000000Y-99750000D03*
D11*
%TO.C,C1*%
X144750000Y-65000000D03*
X146750000Y-65000000D03*
D12*
%TO.C,U4*%
X158540000Y-65220000D03*
X158540000Y-67220000D03*
X160540000Y-65220000D03*
X160540000Y-67220000D03*
X162540000Y-65220000D03*
X162540000Y-67220000D03*
D13*
X152800000Y-58600000D03*
X152800000Y-61140000D03*
X152800000Y-63680000D03*
X152800000Y-66220000D03*
X152800000Y-68760000D03*
D14*
%TO.C,U5*%
X90300000Y-88900000D03*
X90300000Y-98300000D03*
%TO.C,U2*%
X93983000Y-52765000D03*
X96523000Y-52765000D03*
X99063000Y-52765000D03*
X101603000Y-52765000D03*
X104143000Y-52765000D03*
%TO.C,U5*%
X105700000Y-88900000D03*
X105700000Y-98300000D03*
%TO.C,U2*%
X106683000Y-52765000D03*
X109223000Y-52765000D03*
X111763000Y-52765000D03*
D15*
%TO.C,R4*%
X90440000Y-79250000D03*
%TO.C,R3*%
X90440000Y-84000000D03*
%TO.C,R4*%
X98060000Y-79250000D03*
%TO.C,R3*%
X98060000Y-84000000D03*
%TO.C,U4*%
X149750000Y-52250000D03*
X149750000Y-54790000D03*
X149750000Y-57330000D03*
X149750000Y-59870000D03*
X149750000Y-62410000D03*
X149750000Y-64950000D03*
X149750000Y-67490000D03*
X149750000Y-70030000D03*
X149750000Y-72570000D03*
X149750000Y-75110000D03*
X149750000Y-77650000D03*
X149750000Y-80190000D03*
X149750000Y-82730000D03*
X149750000Y-85270000D03*
X149750000Y-87810000D03*
X149750000Y-90350000D03*
X149750000Y-92890000D03*
X149750000Y-95430000D03*
X149750000Y-97970000D03*
X149750000Y-100510000D03*
X149750000Y-103050000D03*
X149750000Y-105590000D03*
X149750000Y-108130000D03*
X149750000Y-110670000D03*
X152290000Y-97970000D03*
X154830000Y-97970000D03*
X157370000Y-97970000D03*
X159910000Y-97970000D03*
X162450000Y-54790000D03*
X162450000Y-97970000D03*
X164990000Y-52250000D03*
X164990000Y-54790000D03*
X164990000Y-57330000D03*
X164990000Y-59870000D03*
X164990000Y-62410000D03*
X164990000Y-64950000D03*
X164990000Y-67490000D03*
X164990000Y-70030000D03*
X164990000Y-72570000D03*
X164990000Y-75110000D03*
X164990000Y-77650000D03*
X164990000Y-80190000D03*
X164990000Y-82730000D03*
X164990000Y-85270000D03*
X164990000Y-87810000D03*
X164990000Y-90350000D03*
X164990000Y-92890000D03*
X164990000Y-95430000D03*
X164990000Y-97970000D03*
X164990000Y-100510000D03*
X164990000Y-103050000D03*
X164990000Y-105590000D03*
X164990000Y-108130000D03*
X164990000Y-110670000D03*
D16*
%TO.C,C8*%
X80000000Y-63000000D03*
%TO.C,C9*%
X80000000Y-102080000D03*
%TO.C,C8*%
X87500000Y-63000000D03*
%TO.C,C9*%
X87500000Y-102080000D03*
%TO.C,T6*%
X97500000Y-43000000D03*
X97500000Y-45540000D03*
X97500000Y-48080000D03*
%TO.C,C11*%
X97500000Y-117000000D03*
X97500000Y-119540000D03*
X97500000Y-122080000D03*
%TO.C,BZ1*%
X97600000Y-103750000D03*
X97600000Y-111350000D03*
%TO.C,T4*%
X102500000Y-43000000D03*
X102500000Y-45540000D03*
X102500000Y-48080000D03*
%TO.C,C33*%
X102500000Y-117000000D03*
X102500000Y-119540000D03*
X102500000Y-122080000D03*
%TO.C,T2*%
X107500000Y-43000000D03*
X107500000Y-45540000D03*
X107500000Y-48080000D03*
%TO.C,C55*%
X107500000Y-117000000D03*
X107500000Y-119540000D03*
X107500000Y-122080000D03*
%TO.C,F6*%
X112500000Y-43000000D03*
X112500000Y-45540000D03*
X112500000Y-48080000D03*
%TO.C,F1*%
X112500000Y-117000000D03*
X112500000Y-119540000D03*
X112500000Y-122080000D03*
%TO.C,F4*%
X117500000Y-43000000D03*
X117500000Y-45540000D03*
X117500000Y-48080000D03*
%TO.C,F3*%
X117500000Y-117000000D03*
X117500000Y-119540000D03*
X117500000Y-122080000D03*
%TO.C,F2*%
X122500000Y-43000000D03*
X122500000Y-45540000D03*
X122500000Y-48080000D03*
%TO.C,F5*%
X122500000Y-117000000D03*
X122500000Y-119540000D03*
X122500000Y-122080000D03*
%TO.C,SSD1306*%
X126800000Y-107450000D03*
%TO.C,C44*%
X127500000Y-43170000D03*
X127500000Y-45710000D03*
X127500000Y-48250000D03*
%TO.C,T1*%
X127500000Y-117000000D03*
X127500000Y-119540000D03*
X127500000Y-122080000D03*
%TO.C,SSD1306*%
X129340000Y-107450000D03*
X131880000Y-107450000D03*
%TO.C,C44*%
X132500000Y-43000000D03*
X132500000Y-45540000D03*
X132500000Y-48080000D03*
%TO.C,T3*%
X132500000Y-117000000D03*
X132500000Y-119540000D03*
X132500000Y-122080000D03*
%TO.C,SSD1306*%
X134420000Y-107450000D03*
%TO.C,C22*%
X137500000Y-43000000D03*
X137500000Y-45540000D03*
X137500000Y-48080000D03*
%TO.C,T5*%
X137500000Y-117000000D03*
X137500000Y-119540000D03*
X137500000Y-122080000D03*
%TO.C,U3*%
X138749500Y-57505000D03*
X138749500Y-60045000D03*
X138749500Y-62585000D03*
X138749500Y-65125000D03*
X141289500Y-57505000D03*
X141289500Y-60045000D03*
X141289500Y-62585000D03*
X141289500Y-65125000D03*
D17*
%TO.C,REF\u002A\u002A*%
X118250000Y-73750000D03*
X118250000Y-78250000D03*
X124750000Y-73750000D03*
X124750000Y-78250000D03*
D18*
%TO.C,J2*%
X80000000Y-74000000D03*
X80000000Y-79080000D03*
%TO.C,J3*%
X80000000Y-86000000D03*
X80000000Y-91080000D03*
M02*
