%TF.GenerationSoftware,KiCad,Pcbnew,8.0.7*%
%TF.CreationDate,2025-07-19T14:15:59-04:00*%
%TF.ProjectId,Hexapod V2,48657861-706f-4642-9056-322e6b696361,rev?*%
%TF.SameCoordinates,Original*%
%TF.FileFunction,Copper,L1,Top*%
%TF.FilePolarity,Positive*%
%FSLAX46Y46*%
G04 Gerber Fmt 4.6, Leading zero omitted, Abs format (unit mm)*
G04 Created by KiCad (PCBNEW 8.0.7) date 2025-07-19 14:15:59*
%MOMM*%
%LPD*%
G01*
G04 APERTURE LIST*
G04 Aperture macros list*
%AMRoundRect*
0 Rectangle with rounded corners*
0 $1 Rounding radius*
0 $2 $3 $4 $5 $6 $7 $8 $9 X,Y pos of 4 corners*
0 Add a 4 corners polygon primitive as box body*
4,1,4,$2,$3,$4,$5,$6,$7,$8,$9,$2,$3,0*
0 Add four circle primitives for the rounded corners*
1,1,$1+$1,$2,$3*
1,1,$1+$1,$4,$5*
1,1,$1+$1,$6,$7*
1,1,$1+$1,$8,$9*
0 Add four rect primitives between the rounded corners*
20,1,$1+$1,$2,$3,$4,$5,0*
20,1,$1+$1,$4,$5,$6,$7,0*
20,1,$1+$1,$6,$7,$8,$9,0*
20,1,$1+$1,$8,$9,$2,$3,0*%
G04 Aperture macros list end*
%TA.AperFunction,ComponentPad*%
%ADD10O,1.600000X2.000000*%
%TD*%
%TA.AperFunction,ComponentPad*%
%ADD11R,1.700000X1.700000*%
%TD*%
%TA.AperFunction,ComponentPad*%
%ADD12O,1.700000X1.700000*%
%TD*%
%TA.AperFunction,ComponentPad*%
%ADD13R,2.600000X2.600000*%
%TD*%
%TA.AperFunction,ComponentPad*%
%ADD14C,2.600000*%
%TD*%
%TA.AperFunction,SMDPad,CuDef*%
%ADD15RoundRect,0.150000X-0.825000X-0.150000X0.825000X-0.150000X0.825000X0.150000X-0.825000X0.150000X0*%
%TD*%
%TA.AperFunction,SMDPad,CuDef*%
%ADD16RoundRect,0.250000X-0.475000X0.250000X-0.475000X-0.250000X0.475000X-0.250000X0.475000X0.250000X0*%
%TD*%
%TA.AperFunction,SMDPad,CuDef*%
%ADD17RoundRect,0.150000X-0.835000X-0.150000X0.835000X-0.150000X0.835000X0.150000X-0.835000X0.150000X0*%
%TD*%
%TA.AperFunction,SMDPad,CuDef*%
%ADD18RoundRect,0.250000X-0.650000X0.325000X-0.650000X-0.325000X0.650000X-0.325000X0.650000X0.325000X0*%
%TD*%
%TA.AperFunction,ComponentPad*%
%ADD19R,2.000000X2.000000*%
%TD*%
%TA.AperFunction,ComponentPad*%
%ADD20C,2.000000*%
%TD*%
%TA.AperFunction,SMDPad,CuDef*%
%ADD21RoundRect,0.090000X-0.660000X-0.360000X0.660000X-0.360000X0.660000X0.360000X-0.660000X0.360000X0*%
%TD*%
%TA.AperFunction,ComponentPad*%
%ADD22C,1.308000*%
%TD*%
%TA.AperFunction,ComponentPad*%
%ADD23C,1.258000*%
%TD*%
%TA.AperFunction,ComponentPad*%
%ADD24C,1.208000*%
%TD*%
%TA.AperFunction,ComponentPad*%
%ADD25R,1.200000X1.200000*%
%TD*%
%TA.AperFunction,ComponentPad*%
%ADD26C,1.200000*%
%TD*%
%TA.AperFunction,ComponentPad*%
%ADD27C,1.600000*%
%TD*%
%TA.AperFunction,ComponentPad*%
%ADD28O,1.600000X1.600000*%
%TD*%
%TA.AperFunction,ComponentPad*%
%ADD29C,1.524000*%
%TD*%
%TA.AperFunction,ComponentPad*%
%ADD30R,1.524000X1.524000*%
%TD*%
%TA.AperFunction,ComponentPad*%
%ADD31C,1.700000*%
%TD*%
%TA.AperFunction,ViaPad*%
%ADD32C,0.600000*%
%TD*%
%TA.AperFunction,Conductor*%
%ADD33C,0.300000*%
%TD*%
%TA.AperFunction,Conductor*%
%ADD34C,2.500000*%
%TD*%
%TA.AperFunction,Conductor*%
%ADD35C,0.200000*%
%TD*%
%TA.AperFunction,Conductor*%
%ADD36C,0.500000*%
%TD*%
G04 APERTURE END LIST*
D10*
%TO.P,SSD1306,1*%
%TO.N,GND*%
X134420000Y-107450000D03*
%TO.P,SSD1306,2*%
%TO.N,+3.3V*%
X131880000Y-107450000D03*
%TO.P,SSD1306,3*%
%TO.N,N/C*%
X129340000Y-107450000D03*
%TO.P,SSD1306,4*%
X126800000Y-107450000D03*
%TD*%
D11*
%TO.P,T4,1,Pin_1*%
%TO.N,GND*%
X102500000Y-48080000D03*
D12*
%TO.P,T4,2,Pin_2*%
%TO.N,VIN*%
X102500000Y-45540000D03*
%TO.P,T4,3,Pin_3*%
%TO.N,S8*%
X102500000Y-43000000D03*
%TD*%
D13*
%TO.P,J3,1,Pin_1*%
%TO.N,VIN*%
X80000000Y-86000000D03*
D14*
%TO.P,J3,2,Pin_2*%
X80000000Y-91080000D03*
%TD*%
D11*
%TO.P,C44,1,Pin_1*%
%TO.N,GND*%
X132500000Y-48080000D03*
D12*
%TO.P,C44,2,Pin_2*%
%TO.N,VIN*%
X132500000Y-45540000D03*
%TO.P,C44,3,Pin_3*%
%TO.N,S2*%
X132500000Y-43000000D03*
%TD*%
D15*
%TO.P,U3,1,IP+*%
%TO.N,VIN*%
X87800000Y-71460000D03*
%TO.P,U3,2,IP+*%
X87800000Y-72730000D03*
%TO.P,U3,3,IP-*%
X87800000Y-74000000D03*
%TO.P,U3,4,IP-*%
X87800000Y-75270000D03*
%TO.P,U3,5,GND*%
%TO.N,GND*%
X92750000Y-75270000D03*
%TO.P,U3,6,FILTER*%
%TO.N,Net-(U3-FILTER)*%
X92750000Y-74000000D03*
%TO.P,U3,7,VIOUT*%
%TO.N,Current Reading*%
X92750000Y-72730000D03*
%TO.P,U3,8,VCC*%
%TO.N,+5V*%
X92750000Y-71460000D03*
%TD*%
D11*
%TO.P,T2,1,Pin_1*%
%TO.N,GND*%
X107500000Y-48080000D03*
D12*
%TO.P,T2,2,Pin_2*%
%TO.N,VIN*%
X107500000Y-45540000D03*
%TO.P,T2,3,Pin_3*%
%TO.N,S7*%
X107500000Y-43000000D03*
%TD*%
D16*
%TO.P,C7,1*%
%TO.N,GND*%
X96250000Y-69300000D03*
%TO.P,C7,2*%
%TO.N,+5V*%
X96250000Y-71200000D03*
%TD*%
D11*
%TO.P,T5,1,Pin_1*%
%TO.N,GND*%
X137500000Y-117000000D03*
D12*
%TO.P,T5,2,Pin_2*%
%TO.N,VIN*%
X137500000Y-119540000D03*
%TO.P,T5,3,Pin_3*%
%TO.N,S10*%
X137500000Y-122080000D03*
%TD*%
D16*
%TO.P,C3,1*%
%TO.N,Net-(U3-FILTER)*%
X96275000Y-73465000D03*
%TO.P,C3,2*%
%TO.N,GND*%
X96275000Y-75365000D03*
%TD*%
D11*
%TO.P,F1,1,Pin_1*%
%TO.N,GND*%
X112500000Y-117000000D03*
D12*
%TO.P,F1,2,Pin_2*%
%TO.N,VIN*%
X112500000Y-119540000D03*
%TO.P,F1,3,Pin_3*%
%TO.N,S15*%
X112500000Y-122080000D03*
%TD*%
D11*
%TO.P,C33,1,Pin_1*%
%TO.N,GND*%
X102500000Y-117000000D03*
D12*
%TO.P,C33,2,Pin_2*%
%TO.N,VIN*%
X102500000Y-119540000D03*
%TO.P,C33,3,Pin_3*%
%TO.N,S17*%
X102500000Y-122080000D03*
%TD*%
D11*
%TO.P,F4,1,Pin_1*%
%TO.N,GND*%
X117500000Y-48080000D03*
D12*
%TO.P,F4,2,Pin_2*%
%TO.N,VIN*%
X117500000Y-45540000D03*
%TO.P,F4,3,Pin_3*%
%TO.N,S5*%
X117500000Y-43000000D03*
%TD*%
D17*
%TO.P,U6,1*%
%TO.N,1OE*%
X105525000Y-102940000D03*
%TO.P,U6,2*%
%TO.N,1A*%
X105525000Y-104210000D03*
%TO.P,U6,3*%
%TO.N,1Y*%
X105525000Y-105480000D03*
%TO.P,U6,4*%
%TO.N,2OE*%
X105525000Y-106750000D03*
%TO.P,U6,5*%
%TO.N,2A*%
X105525000Y-108020000D03*
%TO.P,U6,6*%
%TO.N,2Y*%
X105525000Y-109290000D03*
%TO.P,U6,7*%
%TO.N,GND*%
X105525000Y-110560000D03*
%TO.P,U6,8*%
%TO.N,LED2*%
X110475000Y-110560000D03*
%TO.P,U6,9*%
X110475000Y-109290000D03*
%TO.P,U6,10*%
%TO.N,3OE*%
X110475000Y-108020000D03*
%TO.P,U6,11*%
%TO.N,LED1*%
X110475000Y-106750000D03*
%TO.P,U6,12*%
X110475000Y-105480000D03*
%TO.P,U6,13*%
%TO.N,4OE*%
X110475000Y-104210000D03*
%TO.P,U6,14*%
%TO.N,+5V*%
X110475000Y-102940000D03*
%TD*%
D18*
%TO.P,C6,1*%
%TO.N,+5V*%
X108750000Y-81025000D03*
%TO.P,C6,2*%
%TO.N,GND*%
X108750000Y-83975000D03*
%TD*%
%TO.P,C7,1*%
%TO.N,+5V*%
X108450000Y-71875000D03*
%TO.P,C7,2*%
%TO.N,GND*%
X108450000Y-74825000D03*
%TD*%
D19*
%TO.P,C8,1*%
%TO.N,GND*%
X80000000Y-63000000D03*
D20*
%TO.P,C8,2*%
%TO.N,VIN*%
X87500000Y-63000000D03*
%TD*%
D21*
%TO.P,D2,1,VDD*%
%TO.N,+5V*%
X101300000Y-80850000D03*
%TO.P,D2,2,DOUT*%
%TO.N,unconnected-(D2-DOUT-Pad2)*%
X101300000Y-84150000D03*
%TO.P,D2,3,VSS*%
%TO.N,GND*%
X106200000Y-84150000D03*
%TO.P,D2,4,DIN*%
%TO.N,LED2*%
X106200000Y-80850000D03*
%TD*%
%TO.P,D1,1,VDD*%
%TO.N,+5V*%
X101000000Y-71700000D03*
%TO.P,D1,2,DOUT*%
%TO.N,unconnected-(D1-DOUT-Pad2)*%
X101000000Y-75000000D03*
%TO.P,D1,3,VSS*%
%TO.N,GND*%
X105900000Y-75000000D03*
%TO.P,D1,4,DIN*%
%TO.N,LED1*%
X105900000Y-71700000D03*
%TD*%
D22*
%TO.P,U4,0,RX1*%
%TO.N,S1*%
X149750000Y-54790000D03*
%TO.P,U4,1,TX1*%
%TO.N,S2*%
X149750000Y-57330000D03*
%TO.P,U4,2,OUT2*%
%TO.N,S3*%
X149750000Y-59870000D03*
%TO.P,U4,3,LRCLK2*%
%TO.N,S4*%
X149750000Y-62410000D03*
%TO.P,U4,3.3V_1,3.3V*%
%TO.N,+3.3V*%
X149750000Y-87810000D03*
%TO.P,U4,3.3V_2,3.3V*%
X164990000Y-57330000D03*
%TO.P,U4,3.3V_3,3.3V*%
X154830000Y-97970000D03*
%TO.P,U4,4,BCLK2*%
%TO.N,S5*%
X149750000Y-64950000D03*
%TO.P,U4,5,IN2*%
%TO.N,S6*%
X149750000Y-67490000D03*
D23*
%TO.P,U4,5V,5V*%
%TO.N,+5V*%
X152800000Y-58600000D03*
D22*
%TO.P,U4,6,OUT1D*%
%TO.N,S7*%
X149750000Y-70030000D03*
%TO.P,U4,7,RX2*%
%TO.N,S8*%
X149750000Y-72570000D03*
%TO.P,U4,8,TX2*%
%TO.N,S9*%
X149750000Y-75110000D03*
%TO.P,U4,9,OUT1C*%
%TO.N,N/C*%
X149750000Y-77650000D03*
%TO.P,U4,10,CS1*%
%TO.N,CSN*%
X149750000Y-80190000D03*
%TO.P,U4,11,MOSI*%
%TO.N,MOSI*%
X149750000Y-82730000D03*
%TO.P,U4,12,MISO*%
%TO.N,MISO*%
X149750000Y-85270000D03*
%TO.P,U4,13,SCK*%
%TO.N,SCK*%
X164990000Y-85270000D03*
%TO.P,U4,14,A0*%
%TO.N,S13*%
X164990000Y-82730000D03*
%TO.P,U4,15,A1*%
%TO.N,S14*%
X164990000Y-80190000D03*
%TO.P,U4,16,A2*%
%TO.N,Current Reading*%
X164990000Y-77650000D03*
%TO.P,U4,17,A3*%
%TO.N,N/C*%
X164990000Y-75110000D03*
%TO.P,U4,18,A4*%
%TO.N,S15*%
X164990000Y-72570000D03*
%TO.P,U4,19,A5*%
%TO.N,S16*%
X164990000Y-70030000D03*
%TO.P,U4,20,A6*%
%TO.N,VD Reading*%
X164990000Y-67490000D03*
%TO.P,U4,21,A7*%
%TO.N,unconnected-(U4-A7-Pad21)*%
X164990000Y-64950000D03*
%TO.P,U4,22,A8*%
%TO.N,S17*%
X164990000Y-62410000D03*
%TO.P,U4,23,A9*%
%TO.N,S18*%
X164990000Y-59870000D03*
%TO.P,U4,24,A10*%
%TO.N,SCL*%
X149750000Y-90350000D03*
%TO.P,U4,25,A11*%
%TO.N,SDA*%
X149750000Y-92890000D03*
%TO.P,U4,26,A12*%
%TO.N,CE*%
X149750000Y-95430000D03*
%TO.P,U4,27,A13*%
%TO.N,Buzzer*%
X149750000Y-97970000D03*
%TO.P,U4,28,RX7*%
%TO.N,Button*%
X149750000Y-100510000D03*
%TO.P,U4,29,TX7*%
%TO.N,unconnected-(U4-TX7-Pad29)*%
X149750000Y-103050000D03*
%TO.P,U4,30,CRX3*%
%TO.N,LED1*%
X149750000Y-105590000D03*
%TO.P,U4,31,CTX3*%
%TO.N,LED2*%
X149750000Y-108130000D03*
%TO.P,U4,32,OUT1B*%
%TO.N,unconnected-(U4-OUT1B-Pad32)*%
X149750000Y-110670000D03*
%TO.P,U4,33,MCLK2*%
%TO.N,S10*%
X164990000Y-110670000D03*
%TO.P,U4,34,RX8*%
%TO.N,unconnected-(U4-RX8-Pad34)*%
X164990000Y-108130000D03*
%TO.P,U4,35,TX8*%
%TO.N,unconnected-(U4-TX8-Pad35)*%
X164990000Y-105590000D03*
%TO.P,U4,36,CS2*%
%TO.N,S11*%
X164990000Y-103050000D03*
%TO.P,U4,37,CS3*%
%TO.N,S12*%
X164990000Y-100510000D03*
%TO.P,U4,38,A14*%
%TO.N,unconnected-(U4-A14-Pad38)*%
X164990000Y-97970000D03*
%TO.P,U4,39,A15*%
%TO.N,unconnected-(U4-A15-Pad39)*%
X164990000Y-95430000D03*
%TO.P,U4,40,A16*%
%TO.N,unconnected-(U4-A16-Pad40)*%
X164990000Y-92890000D03*
%TO.P,U4,41,A17*%
%TO.N,unconnected-(U4-A17-Pad41)*%
X164990000Y-90350000D03*
D23*
%TO.P,U4,D+,D+*%
%TO.N,unconnected-(U4-PadD+)*%
X152800000Y-63680000D03*
%TO.P,U4,D-,D-*%
%TO.N,unconnected-(U4-PadD-)*%
X152800000Y-61140000D03*
D22*
%TO.P,U4,GND1,GND*%
%TO.N,GND*%
X149750000Y-52250000D03*
%TO.P,U4,GND2,GND*%
X164990000Y-87810000D03*
%TO.P,U4,GND3,GND*%
X164990000Y-54790000D03*
%TO.P,U4,GND4,GND*%
X157370000Y-97970000D03*
D24*
%TO.P,U4,GND5,GND*%
X160540000Y-67220000D03*
%TO.P,U4,LED,LED*%
%TO.N,unconnected-(U4-PadLED)*%
X160540000Y-65220000D03*
D22*
%TO.P,U4,ON/OFF,ON/OFF*%
%TO.N,unconnected-(U4-PadON{slash}OFF)*%
X162450000Y-97970000D03*
%TO.P,U4,PROGRAM,PROGRAM*%
%TO.N,unconnected-(U4-PadPROGRAM)*%
X159910000Y-97970000D03*
D24*
%TO.P,U4,R+,R+*%
%TO.N,unconnected-(U4-PadR+)*%
X162540000Y-65220000D03*
%TO.P,U4,R-,R-*%
%TO.N,unconnected-(U4-PadR-)*%
X162540000Y-67220000D03*
%TO.P,U4,T+,T+*%
%TO.N,unconnected-(U4-PadT+)*%
X158540000Y-67220000D03*
%TO.P,U4,T-,T-*%
%TO.N,unconnected-(U4-PadT-)*%
X158540000Y-65220000D03*
D23*
%TO.P,U4,USB_GND1,USB_GND*%
%TO.N,Net-(U4-USB_GND-PadUSB_GND1)*%
X152800000Y-66220000D03*
%TO.P,U4,USB_GND2,USB_GND*%
X152800000Y-68760000D03*
D22*
%TO.P,U4,VBAT,VBAT*%
%TO.N,unconnected-(U4-PadVBAT)*%
X152290000Y-97970000D03*
%TO.P,U4,VIN,VIN*%
%TO.N,+5V*%
X164990000Y-52250000D03*
%TO.P,U4,VUSB,VUSB*%
%TO.N,unconnected-(U4-PadVUSB)*%
X162450000Y-54790000D03*
%TD*%
D11*
%TO.P,F5,1,Pin_1*%
%TO.N,GND*%
X122500000Y-117000000D03*
D12*
%TO.P,F5,2,Pin_2*%
%TO.N,VIN*%
X122500000Y-119540000D03*
%TO.P,F5,3,Pin_3*%
%TO.N,S13*%
X122500000Y-122080000D03*
%TD*%
D11*
%TO.P,F3,1,Pin_1*%
%TO.N,GND*%
X117500000Y-117000000D03*
D12*
%TO.P,F3,2,Pin_2*%
%TO.N,VIN*%
X117500000Y-119540000D03*
%TO.P,F3,3,Pin_3*%
%TO.N,S14*%
X117500000Y-122080000D03*
%TD*%
D11*
%TO.P,F2,1,Pin_1*%
%TO.N,GND*%
X122500000Y-48080000D03*
D12*
%TO.P,F2,2,Pin_2*%
%TO.N,VIN*%
X122500000Y-45540000D03*
%TO.P,F2,3,Pin_3*%
%TO.N,S4*%
X122500000Y-43000000D03*
%TD*%
D11*
%TO.P,T1,1,Pin_1*%
%TO.N,GND*%
X127500000Y-117000000D03*
D12*
%TO.P,T1,2,Pin_2*%
%TO.N,VIN*%
X127500000Y-119540000D03*
%TO.P,T1,3,Pin_3*%
%TO.N,S12*%
X127500000Y-122080000D03*
%TD*%
D11*
%TO.P,F6,1,Pin_1*%
%TO.N,GND*%
X112500000Y-48080000D03*
D12*
%TO.P,F6,2,Pin_2*%
%TO.N,VIN*%
X112500000Y-45540000D03*
%TO.P,F6,3,Pin_3*%
%TO.N,S6*%
X112500000Y-43000000D03*
%TD*%
D25*
%TO.P,C1,1*%
%TO.N,+3.3V*%
X144750000Y-65000000D03*
D26*
%TO.P,C1,2*%
%TO.N,GND*%
X146750000Y-65000000D03*
%TD*%
D11*
%TO.P,C55,1,Pin_1*%
%TO.N,GND*%
X107500000Y-117000000D03*
D12*
%TO.P,C55,2,Pin_2*%
%TO.N,VIN*%
X107500000Y-119540000D03*
%TO.P,C55,3,Pin_3*%
%TO.N,S16*%
X107500000Y-122080000D03*
%TD*%
D11*
%TO.P,C11,1,Pin_1*%
%TO.N,GND*%
X97500000Y-117000000D03*
D12*
%TO.P,C11,2,Pin_2*%
%TO.N,VIN*%
X97500000Y-119540000D03*
%TO.P,C11,3,Pin_3*%
%TO.N,S18*%
X97500000Y-122080000D03*
%TD*%
D11*
%TO.P,C44,1,Pin_1*%
%TO.N,GND*%
X127500000Y-48250000D03*
D12*
%TO.P,C44,2,Pin_2*%
%TO.N,VIN*%
X127500000Y-45710000D03*
%TO.P,C44,3,Pin_3*%
%TO.N,S3*%
X127500000Y-43170000D03*
%TD*%
D27*
%TO.P,R3,1*%
%TO.N,GND*%
X98060000Y-84000000D03*
D28*
%TO.P,R3,2*%
%TO.N,VD Reading*%
X90440000Y-84000000D03*
%TD*%
D11*
%TO.P,T3,1,Pin_1*%
%TO.N,GND*%
X132500000Y-117000000D03*
D12*
%TO.P,T3,2,Pin_2*%
%TO.N,VIN*%
X132500000Y-119540000D03*
%TO.P,T3,3,Pin_3*%
%TO.N,S11*%
X132500000Y-122080000D03*
%TD*%
D19*
%TO.P,BZ1,1,+*%
%TO.N,Buzzer*%
X97600000Y-111350000D03*
D20*
%TO.P,BZ1,2,-*%
%TO.N,GND*%
X97600000Y-103750000D03*
%TD*%
D29*
%TO.P,U2,1,VCC*%
%TO.N,+3.3V*%
X111763000Y-52765000D03*
%TO.P,U2,2,GND*%
%TO.N,GND*%
X109223000Y-52765000D03*
%TO.P,U2,3,SCL*%
%TO.N,SCL*%
X106683000Y-52765000D03*
%TO.P,U2,4,SDA*%
%TO.N,SDA*%
X104143000Y-52765000D03*
%TO.P,U2,5,XDA*%
%TO.N,unconnected-(U2-XDA-Pad5)*%
X101603000Y-52765000D03*
%TO.P,U2,6,XCL*%
%TO.N,unconnected-(U2-XCL-Pad6)*%
X99063000Y-52765000D03*
%TO.P,U2,7,ADD*%
%TO.N,unconnected-(U2-ADD-Pad7)*%
X96523000Y-52765000D03*
%TO.P,U2,8,INT*%
%TO.N,unconnected-(U2-INT-Pad8)*%
X93983000Y-52765000D03*
%TD*%
D13*
%TO.P,J2,1,Pin_1*%
%TO.N,GND*%
X80000000Y-74000000D03*
D14*
%TO.P,J2,2,Pin_2*%
%TO.N,VIN*%
X80000000Y-79080000D03*
%TD*%
D30*
%TO.P,U5,1*%
%TO.N,GND*%
X105700000Y-88900000D03*
%TO.P,U5,2*%
%TO.N,+5V*%
X105700000Y-98300000D03*
%TO.P,U5,3*%
%TO.N,GND*%
X90300000Y-88900000D03*
%TO.P,U5,4*%
%TO.N,VIN*%
X90300000Y-98300000D03*
%TD*%
D11*
%TO.P,C22,1,Pin_1*%
%TO.N,GND*%
X137500000Y-48080000D03*
D12*
%TO.P,C22,2,Pin_2*%
%TO.N,VIN*%
X137500000Y-45540000D03*
%TO.P,C22,3,Pin_3*%
%TO.N,S1*%
X137500000Y-43000000D03*
%TD*%
D11*
%TO.P,T6,1,Pin_1*%
%TO.N,GND*%
X97500000Y-48080000D03*
D12*
%TO.P,T6,2,Pin_2*%
%TO.N,VIN*%
X97500000Y-45540000D03*
%TO.P,T6,3,Pin_3*%
%TO.N,S9*%
X97500000Y-43000000D03*
%TD*%
D19*
%TO.P,C9,1*%
%TO.N,GND*%
X80000000Y-102080000D03*
D20*
%TO.P,C9,2*%
%TO.N,VIN*%
X87500000Y-102080000D03*
%TD*%
D27*
%TO.P,R4,1*%
%TO.N,VD Reading*%
X98060000Y-79250000D03*
D28*
%TO.P,R4,2*%
%TO.N,VIN*%
X90440000Y-79250000D03*
%TD*%
D11*
%TO.P,U3,1*%
%TO.N,GND*%
X141289500Y-65125000D03*
D31*
%TO.P,U3,2*%
%TO.N,+3.3V*%
X138749500Y-65125000D03*
%TO.P,U3,3*%
%TO.N,CE*%
X141289500Y-62585000D03*
%TO.P,U3,4*%
%TO.N,CSN*%
X138749500Y-62585000D03*
%TO.P,U3,5*%
%TO.N,SCK*%
X141289500Y-60045000D03*
%TO.P,U3,6*%
%TO.N,MOSI*%
X138749500Y-60045000D03*
%TO.P,U3,7*%
%TO.N,MISO*%
X141289500Y-57505000D03*
%TO.P,U3,8*%
%TO.N,N/C*%
X138749500Y-57505000D03*
%TD*%
D20*
%TO.P,REF\u002A\u002A,2*%
%TO.N,Button*%
X124750000Y-78250000D03*
X118250000Y-78250000D03*
%TO.P,REF\u002A\u002A,1*%
%TO.N,+3.3V*%
X124750000Y-73750000D03*
X118250000Y-73750000D03*
%TD*%
D32*
%TO.N,GND*%
X105525000Y-110560000D03*
X96275000Y-75365000D03*
X96250000Y-69300000D03*
X108750000Y-83975000D03*
X108450000Y-74825000D03*
X106200000Y-84150000D03*
X105900000Y-75000000D03*
%TO.N,+5V*%
X101325000Y-80825000D03*
X101025000Y-71725000D03*
X108750000Y-81000000D03*
X108450000Y-71875000D03*
X113000000Y-99750000D03*
X96250000Y-71200000D03*
X92750000Y-71500000D03*
%TD*%
D33*
%TO.N,S18*%
X98440000Y-121140000D02*
X97500000Y-122080000D01*
X105300000Y-128000000D02*
X98440000Y-121140000D01*
X165250000Y-121500000D02*
X151750000Y-121500000D01*
X165871321Y-122000000D02*
X165750000Y-122000000D01*
X171500000Y-66410000D02*
X171500000Y-116371321D01*
X171500000Y-116371321D02*
X165871321Y-122000000D01*
X165750000Y-122000000D02*
X165250000Y-121500000D01*
X145250000Y-128000000D02*
X105300000Y-128000000D01*
X151750000Y-121500000D02*
X145250000Y-128000000D01*
X165000000Y-59910000D02*
X171500000Y-66410000D01*
D34*
%TO.N,VIN*%
X87500000Y-101100000D02*
X90300000Y-98300000D01*
X87500000Y-102080000D02*
X87500000Y-101100000D01*
D35*
%TO.N,GND*%
X108575000Y-84150000D02*
X108737500Y-83987500D01*
X108450000Y-74825000D02*
X106075000Y-74825000D01*
X96180000Y-75270000D02*
X96275000Y-75365000D01*
X106075000Y-74825000D02*
X105900000Y-75000000D01*
X106250000Y-84150000D02*
X108575000Y-84150000D01*
X92750000Y-75270000D02*
X96180000Y-75270000D01*
X108737500Y-83987500D02*
X108750000Y-83975000D01*
X106200000Y-84150000D02*
X106250000Y-84150000D01*
D34*
%TO.N,VIN*%
X87750000Y-101830000D02*
X87750000Y-90500000D01*
X87750000Y-90500000D02*
X86750000Y-90500000D01*
X87750000Y-53230000D02*
X95440000Y-45540000D01*
X87750000Y-79250000D02*
X90440000Y-79250000D01*
X80000000Y-79080000D02*
X80000000Y-86000000D01*
X87500000Y-110800000D02*
X96240000Y-119540000D01*
X87750000Y-63250000D02*
X87500000Y-63000000D01*
X87750000Y-63250000D02*
X87750000Y-53230000D01*
X87500000Y-102080000D02*
X87750000Y-101830000D01*
X86170000Y-91080000D02*
X80000000Y-91080000D01*
X86750000Y-90500000D02*
X86170000Y-91080000D01*
X87750000Y-87750000D02*
X87750000Y-79250000D01*
X87750000Y-90500000D02*
X87750000Y-87750000D01*
D35*
X88580000Y-71650000D02*
X88525000Y-71595000D01*
D34*
X95440000Y-45540000D02*
X137500000Y-45540000D01*
X87750000Y-79250000D02*
X87750000Y-63250000D01*
X96240000Y-119540000D02*
X137500000Y-119540000D01*
X87500000Y-102080000D02*
X87500000Y-110800000D01*
D33*
%TO.N,+5V*%
X103000000Y-82750000D02*
X101750000Y-81500000D01*
D35*
X101750000Y-81300000D02*
X101750000Y-81500000D01*
X107775000Y-82000000D02*
X108750000Y-81025000D01*
D33*
X93010000Y-71200000D02*
X92750000Y-71460000D01*
X105400000Y-98000000D02*
X103000000Y-98000000D01*
D35*
X101300000Y-80850000D02*
X101750000Y-81300000D01*
D33*
X105700000Y-98300000D02*
X105400000Y-98000000D01*
X96250000Y-71200000D02*
X93010000Y-71200000D01*
D35*
X101025000Y-71725000D02*
X101000000Y-71700000D01*
X102250000Y-82000000D02*
X107775000Y-82000000D01*
D33*
X103000000Y-98000000D02*
X103000000Y-82750000D01*
D35*
X101750000Y-81500000D02*
X102250000Y-82000000D01*
%TO.N,Net-(U3-FILTER)*%
X93285000Y-73465000D02*
X92750000Y-74000000D01*
X96275000Y-73465000D02*
X93285000Y-73465000D01*
D33*
%TO.N,LED1*%
X109250000Y-106750000D02*
X108750000Y-106250000D01*
X108750000Y-106250000D02*
X108750000Y-102968738D01*
X149750000Y-105590000D02*
X145090000Y-110250000D01*
X110475000Y-106750000D02*
X109250000Y-106750000D01*
X108750000Y-102968738D02*
X111000000Y-100718738D01*
X106650000Y-70950000D02*
X105900000Y-71700000D01*
X111000000Y-72350000D02*
X109600000Y-70950000D01*
X116250000Y-110250000D02*
X111480000Y-105480000D01*
X145090000Y-110250000D02*
X116250000Y-110250000D01*
X111000000Y-100718738D02*
X111000000Y-72350000D01*
X111480000Y-105480000D02*
X110475000Y-105480000D01*
X109600000Y-70950000D02*
X106650000Y-70950000D01*
%TO.N,LED2*%
X110500000Y-85250000D02*
X110500000Y-79500000D01*
X112861262Y-111250000D02*
X146630000Y-111250000D01*
X110475000Y-110560000D02*
X107250000Y-107335000D01*
X107250000Y-107335000D02*
X107250000Y-88500000D01*
X110475000Y-109290000D02*
X110901262Y-109290000D01*
X107250000Y-88500000D02*
X110500000Y-85250000D01*
X110901262Y-109290000D02*
X112861262Y-111250000D01*
X146630000Y-111250000D02*
X149750000Y-108130000D01*
X107550000Y-79500000D02*
X106200000Y-80850000D01*
X110500000Y-79500000D02*
X107550000Y-79500000D01*
D36*
%TO.N,VD Reading*%
X98060000Y-79250000D02*
X95190000Y-79250000D01*
X95190000Y-79250000D02*
X90440000Y-84000000D01*
D33*
%TO.N,S1*%
X149760000Y-54830000D02*
X151000000Y-53590000D01*
X151000000Y-51500000D02*
X149500000Y-50000000D01*
X151000000Y-53590000D02*
X151000000Y-51500000D01*
D36*
X137500000Y-43000000D02*
X137500000Y-42830000D01*
D33*
X144500000Y-50000000D02*
X137500000Y-43000000D01*
X149500000Y-50000000D02*
X144500000Y-50000000D01*
%TO.N,S7*%
X113000000Y-37500000D02*
X107500000Y-43000000D01*
X152591000Y-67239000D02*
X153215516Y-67239000D01*
X153789000Y-65711000D02*
X158000000Y-61500000D01*
X148500000Y-37500000D02*
X113000000Y-37500000D01*
X158000000Y-47000000D02*
X148500000Y-37500000D01*
X149760000Y-70070000D02*
X152591000Y-67239000D01*
X153215516Y-67239000D02*
X153789000Y-66665516D01*
X158000000Y-61500000D02*
X158000000Y-47000000D01*
X153789000Y-66665516D02*
X153789000Y-65711000D01*
%TO.N,S13*%
X146750000Y-115000000D02*
X166664214Y-115000000D01*
X124920000Y-124500000D02*
X138191271Y-124500000D01*
X168000000Y-85770000D02*
X165000000Y-82770000D01*
X166664214Y-115000000D02*
X168000000Y-113664214D01*
X143000000Y-118750000D02*
X146750000Y-115000000D01*
X138191271Y-124500000D02*
X143000000Y-119691271D01*
X143000000Y-119691271D02*
X143000000Y-118750000D01*
X122500000Y-122080000D02*
X124920000Y-124500000D01*
X168000000Y-113664214D02*
X168000000Y-85770000D01*
%TO.N,S2*%
X149760000Y-57370000D02*
X152000000Y-55130000D01*
X152000000Y-50500000D02*
X150100000Y-48600000D01*
X146200000Y-48600000D02*
X139400000Y-41800000D01*
X139400000Y-41800000D02*
X133700000Y-41800000D01*
X152000000Y-55130000D02*
X152000000Y-50500000D01*
X133700000Y-41800000D02*
X132500000Y-43000000D01*
X150100000Y-48600000D02*
X146200000Y-48600000D01*
%TO.N,S8*%
X109000000Y-36500000D02*
X102500000Y-43000000D01*
X156250000Y-66250000D02*
X156250000Y-64500000D01*
X153789000Y-68711000D02*
X156250000Y-66250000D01*
X149000000Y-36500000D02*
X109000000Y-36500000D01*
X159600000Y-61150000D02*
X159600000Y-47100000D01*
X156250000Y-64500000D02*
X159600000Y-61150000D01*
X150384516Y-72610000D02*
X153789000Y-69205516D01*
X159600000Y-47100000D02*
X149000000Y-36500000D01*
X153789000Y-69205516D02*
X153789000Y-68711000D01*
X149760000Y-72610000D02*
X150384516Y-72610000D01*
%TO.N,S14*%
X147750000Y-116000000D02*
X138750000Y-125000000D01*
X138750000Y-125000000D02*
X120420000Y-125000000D01*
X165000000Y-80230000D02*
X168750000Y-83980000D01*
X168750000Y-115557106D02*
X168307106Y-116000000D01*
X120420000Y-125000000D02*
X117500000Y-122080000D01*
X168307106Y-116000000D02*
X147750000Y-116000000D01*
X168750000Y-83980000D02*
X168750000Y-115557106D01*
%TO.N,S3*%
X127500000Y-43000000D02*
X129300000Y-41200000D01*
X147150000Y-46800000D02*
X150300000Y-46800000D01*
X153000000Y-49500000D02*
X153000000Y-56670000D01*
X153000000Y-56670000D02*
X149760000Y-59910000D01*
X150300000Y-46800000D02*
X153000000Y-49500000D01*
X141550000Y-41200000D02*
X147150000Y-46800000D01*
X129300000Y-41200000D02*
X141550000Y-41200000D01*
%TO.N,S9*%
X97500000Y-43000000D02*
X105000000Y-35500000D01*
X157000000Y-65000000D02*
X157000000Y-67910000D01*
X160539160Y-61460840D02*
X157000000Y-65000000D01*
X105000000Y-35500000D02*
X149500000Y-35500000D01*
X149500000Y-35500000D02*
X161000000Y-47000000D01*
X161000000Y-47000000D02*
X161000000Y-61460840D01*
X157000000Y-67910000D02*
X149760000Y-75150000D01*
X161000000Y-61460840D02*
X160539160Y-61460840D01*
%TO.N,S15*%
X167514213Y-117500000D02*
X148750000Y-117500000D01*
X148750000Y-117500000D02*
X140500000Y-125750000D01*
X169750000Y-115264213D02*
X167514213Y-117500000D01*
X140500000Y-125750000D02*
X116170000Y-125750000D01*
X165000000Y-72610000D02*
X169750000Y-77360000D01*
X116170000Y-125750000D02*
X112500000Y-122080000D01*
X169750000Y-77360000D02*
X169750000Y-115264213D01*
%TO.N,S4*%
X152410000Y-59800000D02*
X153034516Y-59800000D01*
X154200000Y-58634516D02*
X154200000Y-49200000D01*
X154200000Y-49200000D02*
X147600000Y-42600000D01*
X147600000Y-42600000D02*
X145100000Y-42600000D01*
X145100000Y-42600000D02*
X142900000Y-40400000D01*
X153034516Y-59800000D02*
X154200000Y-58634516D01*
X125100000Y-40400000D02*
X122500000Y-43000000D01*
X149760000Y-62450000D02*
X152410000Y-59800000D01*
X142900000Y-40400000D02*
X125100000Y-40400000D01*
%TO.N,S10*%
X143500000Y-112000000D02*
X139750000Y-115750000D01*
X163710000Y-112000000D02*
X143500000Y-112000000D01*
X139750000Y-115750000D02*
X139750000Y-119830000D01*
X139750000Y-119830000D02*
X137500000Y-122080000D01*
X165000000Y-110710000D02*
X163710000Y-112000000D01*
%TO.N,S16*%
X170132106Y-115589213D02*
X166971319Y-118750000D01*
X149750000Y-118750000D02*
X142000000Y-126500000D01*
X142000000Y-126500000D02*
X111920000Y-126500000D01*
X170500000Y-75570000D02*
X170500000Y-115957107D01*
X166971319Y-118750000D02*
X149750000Y-118750000D01*
X165000000Y-70070000D02*
X170500000Y-75570000D01*
X170500000Y-115957107D02*
X170132106Y-115589213D01*
X111920000Y-126500000D02*
X107500000Y-122080000D01*
%TO.N,S5*%
X152591000Y-62159000D02*
X153215516Y-62159000D01*
X153215516Y-62159000D02*
X155400000Y-59974516D01*
X155400000Y-47900000D02*
X147000000Y-39500000D01*
X121000000Y-39500000D02*
X117500000Y-43000000D01*
X155400000Y-59974516D02*
X155400000Y-47900000D01*
X147000000Y-39500000D02*
X121000000Y-39500000D01*
X149760000Y-64990000D02*
X152591000Y-62159000D01*
%TO.N,S11*%
X133700000Y-123280000D02*
X132500000Y-122080000D01*
X165000000Y-103090000D02*
X166500000Y-104590000D01*
X166500000Y-104590000D02*
X166500000Y-112750000D01*
X137997057Y-123280000D02*
X133700000Y-123280000D01*
X141250000Y-116250000D02*
X141250000Y-120027057D01*
X166500000Y-112750000D02*
X144750000Y-112750000D01*
X141250000Y-120027057D02*
X137997057Y-123280000D01*
X144750000Y-112750000D02*
X141250000Y-116250000D01*
%TO.N,S17*%
X171000000Y-68450000D02*
X165000000Y-62450000D01*
X166664214Y-120500000D02*
X171000000Y-116164214D01*
X150000000Y-120500000D02*
X166664214Y-120500000D01*
X143250000Y-127250000D02*
X150000000Y-120500000D01*
X109550000Y-127250000D02*
X143250000Y-127250000D01*
X171000000Y-116164214D02*
X171000000Y-68450000D01*
X102500000Y-122080000D02*
X103440000Y-121140000D01*
X103440000Y-121140000D02*
X109550000Y-127250000D01*
%TO.N,S6*%
X152591000Y-64699000D02*
X153215516Y-64699000D01*
X149760000Y-67530000D02*
X152591000Y-64699000D01*
X117000000Y-38500000D02*
X112500000Y-43000000D01*
X153215516Y-64699000D02*
X156600000Y-61314516D01*
X156600000Y-61314516D02*
X156600000Y-47600000D01*
X147500000Y-38500000D02*
X117000000Y-38500000D01*
X156600000Y-47600000D02*
X147500000Y-38500000D01*
%TO.N,S12*%
X165000000Y-100550000D02*
X167250000Y-102800000D01*
X145250000Y-114000000D02*
X141750000Y-117500000D01*
X129420000Y-124000000D02*
X127500000Y-122080000D01*
X167250000Y-113707107D02*
X166957107Y-114000000D01*
X167250000Y-102800000D02*
X167250000Y-113707107D01*
X166957107Y-114000000D02*
X145250000Y-114000000D01*
X141750000Y-117500000D02*
X141750000Y-120234164D01*
X141750000Y-120234164D02*
X137984164Y-124000000D01*
X137984164Y-124000000D02*
X129420000Y-124000000D01*
D36*
%TO.N,Current Reading*%
X163560000Y-76250000D02*
X165000000Y-77690000D01*
X149328708Y-76250000D02*
X163560000Y-76250000D01*
X148646000Y-75567292D02*
X149328708Y-76250000D01*
X148646000Y-70646000D02*
X148646000Y-75567292D01*
X146750000Y-68750000D02*
X148646000Y-70646000D01*
X93050000Y-72430000D02*
X96741878Y-72430000D01*
X100421878Y-68750000D02*
X146750000Y-68750000D01*
X96741878Y-72430000D02*
X100421878Y-68750000D01*
X92750000Y-72730000D02*
X93050000Y-72430000D01*
D35*
%TO.N,+5V*%
X110475000Y-102940000D02*
X113000000Y-100415000D01*
X113000000Y-100415000D02*
X113000000Y-99750000D01*
%TD*%
M02*
