%TF.GenerationSoftware,KiCad,Pcbnew,8.0.7*%
%TF.CreationDate,2025-07-19T14:15:59-04:00*%
%TF.ProjectId,Hexapod V2,48657861-706f-4642-9056-322e6b696361,rev?*%
%TF.SameCoordinates,Original*%
%TF.FileFunction,Soldermask,Bot*%
%TF.FilePolarity,Negative*%
%FSLAX46Y46*%
G04 Gerber Fmt 4.6, Leading zero omitted, Abs format (unit mm)*
G04 Created by KiCad (PCBNEW 8.0.7) date 2025-07-19 14:15:59*
%MOMM*%
%LPD*%
G01*
G04 APERTURE LIST*
%ADD10O,1.600000X2.000000*%
%ADD11R,1.700000X1.700000*%
%ADD12O,1.700000X1.700000*%
%ADD13R,2.600000X2.600000*%
%ADD14C,2.600000*%
%ADD15R,2.000000X2.000000*%
%ADD16C,2.000000*%
%ADD17C,1.512000*%
%ADD18C,1.462000*%
%ADD19C,1.412000*%
%ADD20R,1.200000X1.200000*%
%ADD21C,1.200000*%
%ADD22C,1.600000*%
%ADD23O,1.600000X1.600000*%
%ADD24C,1.524000*%
%ADD25R,1.524000X1.524000*%
%ADD26C,1.700000*%
G04 APERTURE END LIST*
D10*
%TO.C,SSD1306*%
X134420000Y-107450000D03*
X131880000Y-107450000D03*
X129340000Y-107450000D03*
X126800000Y-107450000D03*
%TD*%
D11*
%TO.C,T4*%
X102500000Y-48080000D03*
D12*
X102500000Y-45540000D03*
X102500000Y-43000000D03*
%TD*%
D13*
%TO.C,J3*%
X80000000Y-86000000D03*
D14*
X80000000Y-91080000D03*
%TD*%
D11*
%TO.C,C44*%
X132500000Y-48080000D03*
D12*
X132500000Y-45540000D03*
X132500000Y-43000000D03*
%TD*%
D11*
%TO.C,T2*%
X107500000Y-48080000D03*
D12*
X107500000Y-45540000D03*
X107500000Y-43000000D03*
%TD*%
D11*
%TO.C,T5*%
X137500000Y-117000000D03*
D12*
X137500000Y-119540000D03*
X137500000Y-122080000D03*
%TD*%
D11*
%TO.C,F1*%
X112500000Y-117000000D03*
D12*
X112500000Y-119540000D03*
X112500000Y-122080000D03*
%TD*%
D11*
%TO.C,C33*%
X102500000Y-117000000D03*
D12*
X102500000Y-119540000D03*
X102500000Y-122080000D03*
%TD*%
D11*
%TO.C,F4*%
X117500000Y-48080000D03*
D12*
X117500000Y-45540000D03*
X117500000Y-43000000D03*
%TD*%
D15*
%TO.C,C8*%
X80000000Y-63000000D03*
D16*
X87500000Y-63000000D03*
%TD*%
D17*
%TO.C,U4*%
X149750000Y-54790000D03*
X149750000Y-57330000D03*
X149750000Y-59870000D03*
X149750000Y-62410000D03*
X149750000Y-87810000D03*
X164990000Y-57330000D03*
X154830000Y-97970000D03*
X149750000Y-64950000D03*
X149750000Y-67490000D03*
D18*
X152800000Y-58600000D03*
D17*
X149750000Y-70030000D03*
X149750000Y-72570000D03*
X149750000Y-75110000D03*
X149750000Y-77650000D03*
X149750000Y-80190000D03*
X149750000Y-82730000D03*
X149750000Y-85270000D03*
X164990000Y-85270000D03*
X164990000Y-82730000D03*
X164990000Y-80190000D03*
X164990000Y-77650000D03*
X164990000Y-75110000D03*
X164990000Y-72570000D03*
X164990000Y-70030000D03*
X164990000Y-67490000D03*
X164990000Y-64950000D03*
X164990000Y-62410000D03*
X164990000Y-59870000D03*
X149750000Y-90350000D03*
X149750000Y-92890000D03*
X149750000Y-95430000D03*
X149750000Y-97970000D03*
X149750000Y-100510000D03*
X149750000Y-103050000D03*
X149750000Y-105590000D03*
X149750000Y-108130000D03*
X149750000Y-110670000D03*
X164990000Y-110670000D03*
X164990000Y-108130000D03*
X164990000Y-105590000D03*
X164990000Y-103050000D03*
X164990000Y-100510000D03*
X164990000Y-97970000D03*
X164990000Y-95430000D03*
X164990000Y-92890000D03*
X164990000Y-90350000D03*
D18*
X152800000Y-63680000D03*
X152800000Y-61140000D03*
D17*
X149750000Y-52250000D03*
X164990000Y-87810000D03*
X164990000Y-54790000D03*
X157370000Y-97970000D03*
D19*
X160540000Y-67220000D03*
X160540000Y-65220000D03*
D17*
X162450000Y-97970000D03*
X159910000Y-97970000D03*
D19*
X162540000Y-65220000D03*
X162540000Y-67220000D03*
X158540000Y-67220000D03*
X158540000Y-65220000D03*
D18*
X152800000Y-66220000D03*
X152800000Y-68760000D03*
D17*
X152290000Y-97970000D03*
X164990000Y-52250000D03*
X162450000Y-54790000D03*
%TD*%
D11*
%TO.C,F5*%
X122500000Y-117000000D03*
D12*
X122500000Y-119540000D03*
X122500000Y-122080000D03*
%TD*%
D11*
%TO.C,F3*%
X117500000Y-117000000D03*
D12*
X117500000Y-119540000D03*
X117500000Y-122080000D03*
%TD*%
D11*
%TO.C,F2*%
X122500000Y-48080000D03*
D12*
X122500000Y-45540000D03*
X122500000Y-43000000D03*
%TD*%
D11*
%TO.C,T1*%
X127500000Y-117000000D03*
D12*
X127500000Y-119540000D03*
X127500000Y-122080000D03*
%TD*%
D11*
%TO.C,F6*%
X112500000Y-48080000D03*
D12*
X112500000Y-45540000D03*
X112500000Y-43000000D03*
%TD*%
D20*
%TO.C,C1*%
X144750000Y-65000000D03*
D21*
X146750000Y-65000000D03*
%TD*%
D11*
%TO.C,C55*%
X107500000Y-117000000D03*
D12*
X107500000Y-119540000D03*
X107500000Y-122080000D03*
%TD*%
D11*
%TO.C,C11*%
X97500000Y-117000000D03*
D12*
X97500000Y-119540000D03*
X97500000Y-122080000D03*
%TD*%
D11*
%TO.C,C44*%
X127500000Y-48250000D03*
D12*
X127500000Y-45710000D03*
X127500000Y-43170000D03*
%TD*%
D22*
%TO.C,R3*%
X98060000Y-84000000D03*
D23*
X90440000Y-84000000D03*
%TD*%
D11*
%TO.C,T3*%
X132500000Y-117000000D03*
D12*
X132500000Y-119540000D03*
X132500000Y-122080000D03*
%TD*%
D15*
%TO.C,BZ1*%
X97600000Y-111350000D03*
D16*
X97600000Y-103750000D03*
%TD*%
D24*
%TO.C,U2*%
X111763000Y-52765000D03*
X109223000Y-52765000D03*
X106683000Y-52765000D03*
X104143000Y-52765000D03*
X101603000Y-52765000D03*
X99063000Y-52765000D03*
X96523000Y-52765000D03*
X93983000Y-52765000D03*
%TD*%
D13*
%TO.C,J2*%
X80000000Y-74000000D03*
D14*
X80000000Y-79080000D03*
%TD*%
D25*
%TO.C,U5*%
X105700000Y-88900000D03*
X105700000Y-98300000D03*
X90300000Y-88900000D03*
X90300000Y-98300000D03*
%TD*%
D11*
%TO.C,C22*%
X137500000Y-48080000D03*
D12*
X137500000Y-45540000D03*
X137500000Y-43000000D03*
%TD*%
D11*
%TO.C,T6*%
X97500000Y-48080000D03*
D12*
X97500000Y-45540000D03*
X97500000Y-43000000D03*
%TD*%
D15*
%TO.C,C9*%
X80000000Y-102080000D03*
D16*
X87500000Y-102080000D03*
%TD*%
D22*
%TO.C,R4*%
X98060000Y-79250000D03*
D23*
X90440000Y-79250000D03*
%TD*%
D11*
%TO.C,U3*%
X141289500Y-65125000D03*
D26*
X138749500Y-65125000D03*
X141289500Y-62585000D03*
X138749500Y-62585000D03*
X141289500Y-60045000D03*
X138749500Y-60045000D03*
X141289500Y-57505000D03*
X138749500Y-57505000D03*
%TD*%
D16*
%TO.C,REF\u002A\u002A*%
X124750000Y-78250000D03*
X118250000Y-78250000D03*
X124750000Y-73750000D03*
X118250000Y-73750000D03*
%TD*%
M02*
