%TF.GenerationSoftware,KiCad,Pcbnew,8.0.7*%
%TF.CreationDate,2025-07-19T14:15:59-04:00*%
%TF.ProjectId,Hexapod V2,48657861-706f-4642-9056-322e6b696361,rev?*%
%TF.SameCoordinates,Original*%
%TF.FileFunction,Legend,Top*%
%TF.FilePolarity,Positive*%
%FSLAX46Y46*%
G04 Gerber Fmt 4.6, Leading zero omitted, Abs format (unit mm)*
G04 Created by KiCad (PCBNEW 8.0.7) date 2025-07-19 14:15:59*
%MOMM*%
%LPD*%
G01*
G04 APERTURE LIST*
%ADD10C,0.200000*%
%ADD11C,0.150000*%
%ADD12C,0.120000*%
%ADD13C,0.127000*%
%ADD14C,0.100000*%
G04 APERTURE END LIST*
D10*
X127238720Y-73891112D02*
X127238720Y-72391112D01*
X127238720Y-73105398D02*
X128095863Y-73105398D01*
X128095863Y-73891112D02*
X128095863Y-72391112D01*
X129381578Y-73819684D02*
X129238721Y-73891112D01*
X129238721Y-73891112D02*
X128953007Y-73891112D01*
X128953007Y-73891112D02*
X128810149Y-73819684D01*
X128810149Y-73819684D02*
X128738721Y-73676826D01*
X128738721Y-73676826D02*
X128738721Y-73105398D01*
X128738721Y-73105398D02*
X128810149Y-72962541D01*
X128810149Y-72962541D02*
X128953007Y-72891112D01*
X128953007Y-72891112D02*
X129238721Y-72891112D01*
X129238721Y-72891112D02*
X129381578Y-72962541D01*
X129381578Y-72962541D02*
X129453007Y-73105398D01*
X129453007Y-73105398D02*
X129453007Y-73248255D01*
X129453007Y-73248255D02*
X128738721Y-73391112D01*
X129953006Y-73891112D02*
X130738721Y-72891112D01*
X129953006Y-72891112D02*
X130738721Y-73891112D01*
X131953007Y-73891112D02*
X131953007Y-73105398D01*
X131953007Y-73105398D02*
X131881578Y-72962541D01*
X131881578Y-72962541D02*
X131738721Y-72891112D01*
X131738721Y-72891112D02*
X131453007Y-72891112D01*
X131453007Y-72891112D02*
X131310149Y-72962541D01*
X131953007Y-73819684D02*
X131810149Y-73891112D01*
X131810149Y-73891112D02*
X131453007Y-73891112D01*
X131453007Y-73891112D02*
X131310149Y-73819684D01*
X131310149Y-73819684D02*
X131238721Y-73676826D01*
X131238721Y-73676826D02*
X131238721Y-73533969D01*
X131238721Y-73533969D02*
X131310149Y-73391112D01*
X131310149Y-73391112D02*
X131453007Y-73319684D01*
X131453007Y-73319684D02*
X131810149Y-73319684D01*
X131810149Y-73319684D02*
X131953007Y-73248255D01*
X132667292Y-72891112D02*
X132667292Y-74391112D01*
X132667292Y-72962541D02*
X132810150Y-72891112D01*
X132810150Y-72891112D02*
X133095864Y-72891112D01*
X133095864Y-72891112D02*
X133238721Y-72962541D01*
X133238721Y-72962541D02*
X133310150Y-73033969D01*
X133310150Y-73033969D02*
X133381578Y-73176826D01*
X133381578Y-73176826D02*
X133381578Y-73605398D01*
X133381578Y-73605398D02*
X133310150Y-73748255D01*
X133310150Y-73748255D02*
X133238721Y-73819684D01*
X133238721Y-73819684D02*
X133095864Y-73891112D01*
X133095864Y-73891112D02*
X132810150Y-73891112D01*
X132810150Y-73891112D02*
X132667292Y-73819684D01*
X134238721Y-73891112D02*
X134095864Y-73819684D01*
X134095864Y-73819684D02*
X134024435Y-73748255D01*
X134024435Y-73748255D02*
X133953007Y-73605398D01*
X133953007Y-73605398D02*
X133953007Y-73176826D01*
X133953007Y-73176826D02*
X134024435Y-73033969D01*
X134024435Y-73033969D02*
X134095864Y-72962541D01*
X134095864Y-72962541D02*
X134238721Y-72891112D01*
X134238721Y-72891112D02*
X134453007Y-72891112D01*
X134453007Y-72891112D02*
X134595864Y-72962541D01*
X134595864Y-72962541D02*
X134667293Y-73033969D01*
X134667293Y-73033969D02*
X134738721Y-73176826D01*
X134738721Y-73176826D02*
X134738721Y-73605398D01*
X134738721Y-73605398D02*
X134667293Y-73748255D01*
X134667293Y-73748255D02*
X134595864Y-73819684D01*
X134595864Y-73819684D02*
X134453007Y-73891112D01*
X134453007Y-73891112D02*
X134238721Y-73891112D01*
X136024436Y-73891112D02*
X136024436Y-72391112D01*
X136024436Y-73819684D02*
X135881578Y-73891112D01*
X135881578Y-73891112D02*
X135595864Y-73891112D01*
X135595864Y-73891112D02*
X135453007Y-73819684D01*
X135453007Y-73819684D02*
X135381578Y-73748255D01*
X135381578Y-73748255D02*
X135310150Y-73605398D01*
X135310150Y-73605398D02*
X135310150Y-73176826D01*
X135310150Y-73176826D02*
X135381578Y-73033969D01*
X135381578Y-73033969D02*
X135453007Y-72962541D01*
X135453007Y-72962541D02*
X135595864Y-72891112D01*
X135595864Y-72891112D02*
X135881578Y-72891112D01*
X135881578Y-72891112D02*
X136024436Y-72962541D01*
X137881578Y-73891112D02*
X137881578Y-72391112D01*
X137881578Y-72391112D02*
X138453007Y-72391112D01*
X138453007Y-72391112D02*
X138595864Y-72462541D01*
X138595864Y-72462541D02*
X138667293Y-72533969D01*
X138667293Y-72533969D02*
X138738721Y-72676826D01*
X138738721Y-72676826D02*
X138738721Y-72891112D01*
X138738721Y-72891112D02*
X138667293Y-73033969D01*
X138667293Y-73033969D02*
X138595864Y-73105398D01*
X138595864Y-73105398D02*
X138453007Y-73176826D01*
X138453007Y-73176826D02*
X137881578Y-73176826D01*
X140238721Y-73748255D02*
X140167293Y-73819684D01*
X140167293Y-73819684D02*
X139953007Y-73891112D01*
X139953007Y-73891112D02*
X139810150Y-73891112D01*
X139810150Y-73891112D02*
X139595864Y-73819684D01*
X139595864Y-73819684D02*
X139453007Y-73676826D01*
X139453007Y-73676826D02*
X139381578Y-73533969D01*
X139381578Y-73533969D02*
X139310150Y-73248255D01*
X139310150Y-73248255D02*
X139310150Y-73033969D01*
X139310150Y-73033969D02*
X139381578Y-72748255D01*
X139381578Y-72748255D02*
X139453007Y-72605398D01*
X139453007Y-72605398D02*
X139595864Y-72462541D01*
X139595864Y-72462541D02*
X139810150Y-72391112D01*
X139810150Y-72391112D02*
X139953007Y-72391112D01*
X139953007Y-72391112D02*
X140167293Y-72462541D01*
X140167293Y-72462541D02*
X140238721Y-72533969D01*
X141381578Y-73105398D02*
X141595864Y-73176826D01*
X141595864Y-73176826D02*
X141667293Y-73248255D01*
X141667293Y-73248255D02*
X141738721Y-73391112D01*
X141738721Y-73391112D02*
X141738721Y-73605398D01*
X141738721Y-73605398D02*
X141667293Y-73748255D01*
X141667293Y-73748255D02*
X141595864Y-73819684D01*
X141595864Y-73819684D02*
X141453007Y-73891112D01*
X141453007Y-73891112D02*
X140881578Y-73891112D01*
X140881578Y-73891112D02*
X140881578Y-72391112D01*
X140881578Y-72391112D02*
X141381578Y-72391112D01*
X141381578Y-72391112D02*
X141524436Y-72462541D01*
X141524436Y-72462541D02*
X141595864Y-72533969D01*
X141595864Y-72533969D02*
X141667293Y-72676826D01*
X141667293Y-72676826D02*
X141667293Y-72819684D01*
X141667293Y-72819684D02*
X141595864Y-72962541D01*
X141595864Y-72962541D02*
X141524436Y-73033969D01*
X141524436Y-73033969D02*
X141381578Y-73105398D01*
X141381578Y-73105398D02*
X140881578Y-73105398D01*
X128024435Y-76306028D02*
X127167292Y-76306028D01*
X127595863Y-76306028D02*
X127595863Y-74806028D01*
X127595863Y-74806028D02*
X127453006Y-75020314D01*
X127453006Y-75020314D02*
X127310149Y-75163171D01*
X127310149Y-75163171D02*
X127167292Y-75234600D01*
X128881577Y-75448885D02*
X128738720Y-75377457D01*
X128738720Y-75377457D02*
X128667291Y-75306028D01*
X128667291Y-75306028D02*
X128595863Y-75163171D01*
X128595863Y-75163171D02*
X128595863Y-75091742D01*
X128595863Y-75091742D02*
X128667291Y-74948885D01*
X128667291Y-74948885D02*
X128738720Y-74877457D01*
X128738720Y-74877457D02*
X128881577Y-74806028D01*
X128881577Y-74806028D02*
X129167291Y-74806028D01*
X129167291Y-74806028D02*
X129310149Y-74877457D01*
X129310149Y-74877457D02*
X129381577Y-74948885D01*
X129381577Y-74948885D02*
X129453006Y-75091742D01*
X129453006Y-75091742D02*
X129453006Y-75163171D01*
X129453006Y-75163171D02*
X129381577Y-75306028D01*
X129381577Y-75306028D02*
X129310149Y-75377457D01*
X129310149Y-75377457D02*
X129167291Y-75448885D01*
X129167291Y-75448885D02*
X128881577Y-75448885D01*
X128881577Y-75448885D02*
X128738720Y-75520314D01*
X128738720Y-75520314D02*
X128667291Y-75591742D01*
X128667291Y-75591742D02*
X128595863Y-75734600D01*
X128595863Y-75734600D02*
X128595863Y-76020314D01*
X128595863Y-76020314D02*
X128667291Y-76163171D01*
X128667291Y-76163171D02*
X128738720Y-76234600D01*
X128738720Y-76234600D02*
X128881577Y-76306028D01*
X128881577Y-76306028D02*
X129167291Y-76306028D01*
X129167291Y-76306028D02*
X129310149Y-76234600D01*
X129310149Y-76234600D02*
X129381577Y-76163171D01*
X129381577Y-76163171D02*
X129453006Y-76020314D01*
X129453006Y-76020314D02*
X129453006Y-75734600D01*
X129453006Y-75734600D02*
X129381577Y-75591742D01*
X129381577Y-75591742D02*
X129310149Y-75520314D01*
X129310149Y-75520314D02*
X129167291Y-75448885D01*
X131167291Y-76234600D02*
X131381577Y-76306028D01*
X131381577Y-76306028D02*
X131738719Y-76306028D01*
X131738719Y-76306028D02*
X131881577Y-76234600D01*
X131881577Y-76234600D02*
X131953005Y-76163171D01*
X131953005Y-76163171D02*
X132024434Y-76020314D01*
X132024434Y-76020314D02*
X132024434Y-75877457D01*
X132024434Y-75877457D02*
X131953005Y-75734600D01*
X131953005Y-75734600D02*
X131881577Y-75663171D01*
X131881577Y-75663171D02*
X131738719Y-75591742D01*
X131738719Y-75591742D02*
X131453005Y-75520314D01*
X131453005Y-75520314D02*
X131310148Y-75448885D01*
X131310148Y-75448885D02*
X131238719Y-75377457D01*
X131238719Y-75377457D02*
X131167291Y-75234600D01*
X131167291Y-75234600D02*
X131167291Y-75091742D01*
X131167291Y-75091742D02*
X131238719Y-74948885D01*
X131238719Y-74948885D02*
X131310148Y-74877457D01*
X131310148Y-74877457D02*
X131453005Y-74806028D01*
X131453005Y-74806028D02*
X131810148Y-74806028D01*
X131810148Y-74806028D02*
X132024434Y-74877457D01*
X133238719Y-76234600D02*
X133095862Y-76306028D01*
X133095862Y-76306028D02*
X132810148Y-76306028D01*
X132810148Y-76306028D02*
X132667290Y-76234600D01*
X132667290Y-76234600D02*
X132595862Y-76091742D01*
X132595862Y-76091742D02*
X132595862Y-75520314D01*
X132595862Y-75520314D02*
X132667290Y-75377457D01*
X132667290Y-75377457D02*
X132810148Y-75306028D01*
X132810148Y-75306028D02*
X133095862Y-75306028D01*
X133095862Y-75306028D02*
X133238719Y-75377457D01*
X133238719Y-75377457D02*
X133310148Y-75520314D01*
X133310148Y-75520314D02*
X133310148Y-75663171D01*
X133310148Y-75663171D02*
X132595862Y-75806028D01*
X133953004Y-76306028D02*
X133953004Y-75306028D01*
X133953004Y-75591742D02*
X134024433Y-75448885D01*
X134024433Y-75448885D02*
X134095862Y-75377457D01*
X134095862Y-75377457D02*
X134238719Y-75306028D01*
X134238719Y-75306028D02*
X134381576Y-75306028D01*
X134738718Y-75306028D02*
X135095861Y-76306028D01*
X135095861Y-76306028D02*
X135453004Y-75306028D01*
X136238718Y-76306028D02*
X136095861Y-76234600D01*
X136095861Y-76234600D02*
X136024432Y-76163171D01*
X136024432Y-76163171D02*
X135953004Y-76020314D01*
X135953004Y-76020314D02*
X135953004Y-75591742D01*
X135953004Y-75591742D02*
X136024432Y-75448885D01*
X136024432Y-75448885D02*
X136095861Y-75377457D01*
X136095861Y-75377457D02*
X136238718Y-75306028D01*
X136238718Y-75306028D02*
X136453004Y-75306028D01*
X136453004Y-75306028D02*
X136595861Y-75377457D01*
X136595861Y-75377457D02*
X136667290Y-75448885D01*
X136667290Y-75448885D02*
X136738718Y-75591742D01*
X136738718Y-75591742D02*
X136738718Y-76020314D01*
X136738718Y-76020314D02*
X136667290Y-76163171D01*
X136667290Y-76163171D02*
X136595861Y-76234600D01*
X136595861Y-76234600D02*
X136453004Y-76306028D01*
X136453004Y-76306028D02*
X136238718Y-76306028D01*
X137310147Y-76234600D02*
X137453004Y-76306028D01*
X137453004Y-76306028D02*
X137738718Y-76306028D01*
X137738718Y-76306028D02*
X137881575Y-76234600D01*
X137881575Y-76234600D02*
X137953004Y-76091742D01*
X137953004Y-76091742D02*
X137953004Y-76020314D01*
X137953004Y-76020314D02*
X137881575Y-75877457D01*
X137881575Y-75877457D02*
X137738718Y-75806028D01*
X137738718Y-75806028D02*
X137524433Y-75806028D01*
X137524433Y-75806028D02*
X137381575Y-75734600D01*
X137381575Y-75734600D02*
X137310147Y-75591742D01*
X137310147Y-75591742D02*
X137310147Y-75520314D01*
X137310147Y-75520314D02*
X137381575Y-75377457D01*
X137381575Y-75377457D02*
X137524433Y-75306028D01*
X137524433Y-75306028D02*
X137738718Y-75306028D01*
X137738718Y-75306028D02*
X137881575Y-75377457D01*
D11*
X127633333Y-97003200D02*
X127776190Y-97050819D01*
X127776190Y-97050819D02*
X128014285Y-97050819D01*
X128014285Y-97050819D02*
X128109523Y-97003200D01*
X128109523Y-97003200D02*
X128157142Y-96955580D01*
X128157142Y-96955580D02*
X128204761Y-96860342D01*
X128204761Y-96860342D02*
X128204761Y-96765104D01*
X128204761Y-96765104D02*
X128157142Y-96669866D01*
X128157142Y-96669866D02*
X128109523Y-96622247D01*
X128109523Y-96622247D02*
X128014285Y-96574628D01*
X128014285Y-96574628D02*
X127823809Y-96527009D01*
X127823809Y-96527009D02*
X127728571Y-96479390D01*
X127728571Y-96479390D02*
X127680952Y-96431771D01*
X127680952Y-96431771D02*
X127633333Y-96336533D01*
X127633333Y-96336533D02*
X127633333Y-96241295D01*
X127633333Y-96241295D02*
X127680952Y-96146057D01*
X127680952Y-96146057D02*
X127728571Y-96098438D01*
X127728571Y-96098438D02*
X127823809Y-96050819D01*
X127823809Y-96050819D02*
X128061904Y-96050819D01*
X128061904Y-96050819D02*
X128204761Y-96098438D01*
X128585714Y-97003200D02*
X128728571Y-97050819D01*
X128728571Y-97050819D02*
X128966666Y-97050819D01*
X128966666Y-97050819D02*
X129061904Y-97003200D01*
X129061904Y-97003200D02*
X129109523Y-96955580D01*
X129109523Y-96955580D02*
X129157142Y-96860342D01*
X129157142Y-96860342D02*
X129157142Y-96765104D01*
X129157142Y-96765104D02*
X129109523Y-96669866D01*
X129109523Y-96669866D02*
X129061904Y-96622247D01*
X129061904Y-96622247D02*
X128966666Y-96574628D01*
X128966666Y-96574628D02*
X128776190Y-96527009D01*
X128776190Y-96527009D02*
X128680952Y-96479390D01*
X128680952Y-96479390D02*
X128633333Y-96431771D01*
X128633333Y-96431771D02*
X128585714Y-96336533D01*
X128585714Y-96336533D02*
X128585714Y-96241295D01*
X128585714Y-96241295D02*
X128633333Y-96146057D01*
X128633333Y-96146057D02*
X128680952Y-96098438D01*
X128680952Y-96098438D02*
X128776190Y-96050819D01*
X128776190Y-96050819D02*
X129014285Y-96050819D01*
X129014285Y-96050819D02*
X129157142Y-96098438D01*
X129585714Y-97050819D02*
X129585714Y-96050819D01*
X129585714Y-96050819D02*
X129823809Y-96050819D01*
X129823809Y-96050819D02*
X129966666Y-96098438D01*
X129966666Y-96098438D02*
X130061904Y-96193676D01*
X130061904Y-96193676D02*
X130109523Y-96288914D01*
X130109523Y-96288914D02*
X130157142Y-96479390D01*
X130157142Y-96479390D02*
X130157142Y-96622247D01*
X130157142Y-96622247D02*
X130109523Y-96812723D01*
X130109523Y-96812723D02*
X130061904Y-96907961D01*
X130061904Y-96907961D02*
X129966666Y-97003200D01*
X129966666Y-97003200D02*
X129823809Y-97050819D01*
X129823809Y-97050819D02*
X129585714Y-97050819D01*
X131109523Y-97050819D02*
X130538095Y-97050819D01*
X130823809Y-97050819D02*
X130823809Y-96050819D01*
X130823809Y-96050819D02*
X130728571Y-96193676D01*
X130728571Y-96193676D02*
X130633333Y-96288914D01*
X130633333Y-96288914D02*
X130538095Y-96336533D01*
X131442857Y-96050819D02*
X132061904Y-96050819D01*
X132061904Y-96050819D02*
X131728571Y-96431771D01*
X131728571Y-96431771D02*
X131871428Y-96431771D01*
X131871428Y-96431771D02*
X131966666Y-96479390D01*
X131966666Y-96479390D02*
X132014285Y-96527009D01*
X132014285Y-96527009D02*
X132061904Y-96622247D01*
X132061904Y-96622247D02*
X132061904Y-96860342D01*
X132061904Y-96860342D02*
X132014285Y-96955580D01*
X132014285Y-96955580D02*
X131966666Y-97003200D01*
X131966666Y-97003200D02*
X131871428Y-97050819D01*
X131871428Y-97050819D02*
X131585714Y-97050819D01*
X131585714Y-97050819D02*
X131490476Y-97003200D01*
X131490476Y-97003200D02*
X131442857Y-96955580D01*
X132680952Y-96050819D02*
X132776190Y-96050819D01*
X132776190Y-96050819D02*
X132871428Y-96098438D01*
X132871428Y-96098438D02*
X132919047Y-96146057D01*
X132919047Y-96146057D02*
X132966666Y-96241295D01*
X132966666Y-96241295D02*
X133014285Y-96431771D01*
X133014285Y-96431771D02*
X133014285Y-96669866D01*
X133014285Y-96669866D02*
X132966666Y-96860342D01*
X132966666Y-96860342D02*
X132919047Y-96955580D01*
X132919047Y-96955580D02*
X132871428Y-97003200D01*
X132871428Y-97003200D02*
X132776190Y-97050819D01*
X132776190Y-97050819D02*
X132680952Y-97050819D01*
X132680952Y-97050819D02*
X132585714Y-97003200D01*
X132585714Y-97003200D02*
X132538095Y-96955580D01*
X132538095Y-96955580D02*
X132490476Y-96860342D01*
X132490476Y-96860342D02*
X132442857Y-96669866D01*
X132442857Y-96669866D02*
X132442857Y-96431771D01*
X132442857Y-96431771D02*
X132490476Y-96241295D01*
X132490476Y-96241295D02*
X132538095Y-96146057D01*
X132538095Y-96146057D02*
X132585714Y-96098438D01*
X132585714Y-96098438D02*
X132680952Y-96050819D01*
X133871428Y-96050819D02*
X133680952Y-96050819D01*
X133680952Y-96050819D02*
X133585714Y-96098438D01*
X133585714Y-96098438D02*
X133538095Y-96146057D01*
X133538095Y-96146057D02*
X133442857Y-96288914D01*
X133442857Y-96288914D02*
X133395238Y-96479390D01*
X133395238Y-96479390D02*
X133395238Y-96860342D01*
X133395238Y-96860342D02*
X133442857Y-96955580D01*
X133442857Y-96955580D02*
X133490476Y-97003200D01*
X133490476Y-97003200D02*
X133585714Y-97050819D01*
X133585714Y-97050819D02*
X133776190Y-97050819D01*
X133776190Y-97050819D02*
X133871428Y-97003200D01*
X133871428Y-97003200D02*
X133919047Y-96955580D01*
X133919047Y-96955580D02*
X133966666Y-96860342D01*
X133966666Y-96860342D02*
X133966666Y-96622247D01*
X133966666Y-96622247D02*
X133919047Y-96527009D01*
X133919047Y-96527009D02*
X133871428Y-96479390D01*
X133871428Y-96479390D02*
X133776190Y-96431771D01*
X133776190Y-96431771D02*
X133585714Y-96431771D01*
X133585714Y-96431771D02*
X133490476Y-96479390D01*
X133490476Y-96479390D02*
X133442857Y-96527009D01*
X133442857Y-96527009D02*
X133395238Y-96622247D01*
X101738095Y-49864819D02*
X102309523Y-49864819D01*
X102023809Y-50864819D02*
X102023809Y-49864819D01*
X103071428Y-50198152D02*
X103071428Y-50864819D01*
X102833333Y-49817200D02*
X102595238Y-50531485D01*
X102595238Y-50531485D02*
X103214285Y-50531485D01*
X74747200Y-90754285D02*
X74794819Y-90611428D01*
X74794819Y-90611428D02*
X74794819Y-90373333D01*
X74794819Y-90373333D02*
X74747200Y-90278095D01*
X74747200Y-90278095D02*
X74699580Y-90230476D01*
X74699580Y-90230476D02*
X74604342Y-90182857D01*
X74604342Y-90182857D02*
X74509104Y-90182857D01*
X74509104Y-90182857D02*
X74413866Y-90230476D01*
X74413866Y-90230476D02*
X74366247Y-90278095D01*
X74366247Y-90278095D02*
X74318628Y-90373333D01*
X74318628Y-90373333D02*
X74271009Y-90563809D01*
X74271009Y-90563809D02*
X74223390Y-90659047D01*
X74223390Y-90659047D02*
X74175771Y-90706666D01*
X74175771Y-90706666D02*
X74080533Y-90754285D01*
X74080533Y-90754285D02*
X73985295Y-90754285D01*
X73985295Y-90754285D02*
X73890057Y-90706666D01*
X73890057Y-90706666D02*
X73842438Y-90659047D01*
X73842438Y-90659047D02*
X73794819Y-90563809D01*
X73794819Y-90563809D02*
X73794819Y-90325714D01*
X73794819Y-90325714D02*
X73842438Y-90182857D01*
X74128152Y-89849523D02*
X74794819Y-89659047D01*
X74794819Y-89659047D02*
X74318628Y-89468571D01*
X74318628Y-89468571D02*
X74794819Y-89278095D01*
X74794819Y-89278095D02*
X74128152Y-89087619D01*
X74794819Y-88706666D02*
X74128152Y-88706666D01*
X73794819Y-88706666D02*
X73842438Y-88754285D01*
X73842438Y-88754285D02*
X73890057Y-88706666D01*
X73890057Y-88706666D02*
X73842438Y-88659047D01*
X73842438Y-88659047D02*
X73794819Y-88706666D01*
X73794819Y-88706666D02*
X73890057Y-88706666D01*
X74128152Y-88373333D02*
X74128152Y-87992381D01*
X73794819Y-88230476D02*
X74651961Y-88230476D01*
X74651961Y-88230476D02*
X74747200Y-88182857D01*
X74747200Y-88182857D02*
X74794819Y-88087619D01*
X74794819Y-88087619D02*
X74794819Y-87992381D01*
X74747200Y-87230476D02*
X74794819Y-87325714D01*
X74794819Y-87325714D02*
X74794819Y-87516190D01*
X74794819Y-87516190D02*
X74747200Y-87611428D01*
X74747200Y-87611428D02*
X74699580Y-87659047D01*
X74699580Y-87659047D02*
X74604342Y-87706666D01*
X74604342Y-87706666D02*
X74318628Y-87706666D01*
X74318628Y-87706666D02*
X74223390Y-87659047D01*
X74223390Y-87659047D02*
X74175771Y-87611428D01*
X74175771Y-87611428D02*
X74128152Y-87516190D01*
X74128152Y-87516190D02*
X74128152Y-87325714D01*
X74128152Y-87325714D02*
X74175771Y-87230476D01*
X74794819Y-86801904D02*
X73794819Y-86801904D01*
X74794819Y-86373333D02*
X74271009Y-86373333D01*
X74271009Y-86373333D02*
X74175771Y-86420952D01*
X74175771Y-86420952D02*
X74128152Y-86516190D01*
X74128152Y-86516190D02*
X74128152Y-86659047D01*
X74128152Y-86659047D02*
X74175771Y-86754285D01*
X74175771Y-86754285D02*
X74223390Y-86801904D01*
X131857142Y-50769580D02*
X131809523Y-50817200D01*
X131809523Y-50817200D02*
X131666666Y-50864819D01*
X131666666Y-50864819D02*
X131571428Y-50864819D01*
X131571428Y-50864819D02*
X131428571Y-50817200D01*
X131428571Y-50817200D02*
X131333333Y-50721961D01*
X131333333Y-50721961D02*
X131285714Y-50626723D01*
X131285714Y-50626723D02*
X131238095Y-50436247D01*
X131238095Y-50436247D02*
X131238095Y-50293390D01*
X131238095Y-50293390D02*
X131285714Y-50102914D01*
X131285714Y-50102914D02*
X131333333Y-50007676D01*
X131333333Y-50007676D02*
X131428571Y-49912438D01*
X131428571Y-49912438D02*
X131571428Y-49864819D01*
X131571428Y-49864819D02*
X131666666Y-49864819D01*
X131666666Y-49864819D02*
X131809523Y-49912438D01*
X131809523Y-49912438D02*
X131857142Y-49960057D01*
X132714285Y-50198152D02*
X132714285Y-50864819D01*
X132476190Y-49817200D02*
X132238095Y-50531485D01*
X132238095Y-50531485D02*
X132857142Y-50531485D01*
X133666666Y-50198152D02*
X133666666Y-50864819D01*
X133428571Y-49817200D02*
X133190476Y-50531485D01*
X133190476Y-50531485D02*
X133809523Y-50531485D01*
X89513095Y-69419819D02*
X89513095Y-70229342D01*
X89513095Y-70229342D02*
X89560714Y-70324580D01*
X89560714Y-70324580D02*
X89608333Y-70372200D01*
X89608333Y-70372200D02*
X89703571Y-70419819D01*
X89703571Y-70419819D02*
X89894047Y-70419819D01*
X89894047Y-70419819D02*
X89989285Y-70372200D01*
X89989285Y-70372200D02*
X90036904Y-70324580D01*
X90036904Y-70324580D02*
X90084523Y-70229342D01*
X90084523Y-70229342D02*
X90084523Y-69419819D01*
X90465476Y-69419819D02*
X91084523Y-69419819D01*
X91084523Y-69419819D02*
X90751190Y-69800771D01*
X90751190Y-69800771D02*
X90894047Y-69800771D01*
X90894047Y-69800771D02*
X90989285Y-69848390D01*
X90989285Y-69848390D02*
X91036904Y-69896009D01*
X91036904Y-69896009D02*
X91084523Y-69991247D01*
X91084523Y-69991247D02*
X91084523Y-70229342D01*
X91084523Y-70229342D02*
X91036904Y-70324580D01*
X91036904Y-70324580D02*
X90989285Y-70372200D01*
X90989285Y-70372200D02*
X90894047Y-70419819D01*
X90894047Y-70419819D02*
X90608333Y-70419819D01*
X90608333Y-70419819D02*
X90513095Y-70372200D01*
X90513095Y-70372200D02*
X90465476Y-70324580D01*
X106738095Y-49864819D02*
X107309523Y-49864819D01*
X107023809Y-50864819D02*
X107023809Y-49864819D01*
X107595238Y-49960057D02*
X107642857Y-49912438D01*
X107642857Y-49912438D02*
X107738095Y-49864819D01*
X107738095Y-49864819D02*
X107976190Y-49864819D01*
X107976190Y-49864819D02*
X108071428Y-49912438D01*
X108071428Y-49912438D02*
X108119047Y-49960057D01*
X108119047Y-49960057D02*
X108166666Y-50055295D01*
X108166666Y-50055295D02*
X108166666Y-50150533D01*
X108166666Y-50150533D02*
X108119047Y-50293390D01*
X108119047Y-50293390D02*
X107547619Y-50864819D01*
X107547619Y-50864819D02*
X108166666Y-50864819D01*
X98289580Y-70416666D02*
X98337200Y-70464285D01*
X98337200Y-70464285D02*
X98384819Y-70607142D01*
X98384819Y-70607142D02*
X98384819Y-70702380D01*
X98384819Y-70702380D02*
X98337200Y-70845237D01*
X98337200Y-70845237D02*
X98241961Y-70940475D01*
X98241961Y-70940475D02*
X98146723Y-70988094D01*
X98146723Y-70988094D02*
X97956247Y-71035713D01*
X97956247Y-71035713D02*
X97813390Y-71035713D01*
X97813390Y-71035713D02*
X97622914Y-70988094D01*
X97622914Y-70988094D02*
X97527676Y-70940475D01*
X97527676Y-70940475D02*
X97432438Y-70845237D01*
X97432438Y-70845237D02*
X97384819Y-70702380D01*
X97384819Y-70702380D02*
X97384819Y-70607142D01*
X97384819Y-70607142D02*
X97432438Y-70464285D01*
X97432438Y-70464285D02*
X97480057Y-70416666D01*
X97384819Y-70083332D02*
X97384819Y-69416666D01*
X97384819Y-69416666D02*
X98384819Y-69845237D01*
X136738095Y-114124819D02*
X137309523Y-114124819D01*
X137023809Y-115124819D02*
X137023809Y-114124819D01*
X138119047Y-114124819D02*
X137642857Y-114124819D01*
X137642857Y-114124819D02*
X137595238Y-114601009D01*
X137595238Y-114601009D02*
X137642857Y-114553390D01*
X137642857Y-114553390D02*
X137738095Y-114505771D01*
X137738095Y-114505771D02*
X137976190Y-114505771D01*
X137976190Y-114505771D02*
X138071428Y-114553390D01*
X138071428Y-114553390D02*
X138119047Y-114601009D01*
X138119047Y-114601009D02*
X138166666Y-114696247D01*
X138166666Y-114696247D02*
X138166666Y-114934342D01*
X138166666Y-114934342D02*
X138119047Y-115029580D01*
X138119047Y-115029580D02*
X138071428Y-115077200D01*
X138071428Y-115077200D02*
X137976190Y-115124819D01*
X137976190Y-115124819D02*
X137738095Y-115124819D01*
X137738095Y-115124819D02*
X137642857Y-115077200D01*
X137642857Y-115077200D02*
X137595238Y-115029580D01*
X98314580Y-74581666D02*
X98362200Y-74629285D01*
X98362200Y-74629285D02*
X98409819Y-74772142D01*
X98409819Y-74772142D02*
X98409819Y-74867380D01*
X98409819Y-74867380D02*
X98362200Y-75010237D01*
X98362200Y-75010237D02*
X98266961Y-75105475D01*
X98266961Y-75105475D02*
X98171723Y-75153094D01*
X98171723Y-75153094D02*
X97981247Y-75200713D01*
X97981247Y-75200713D02*
X97838390Y-75200713D01*
X97838390Y-75200713D02*
X97647914Y-75153094D01*
X97647914Y-75153094D02*
X97552676Y-75105475D01*
X97552676Y-75105475D02*
X97457438Y-75010237D01*
X97457438Y-75010237D02*
X97409819Y-74867380D01*
X97409819Y-74867380D02*
X97409819Y-74772142D01*
X97409819Y-74772142D02*
X97457438Y-74629285D01*
X97457438Y-74629285D02*
X97505057Y-74581666D01*
X97409819Y-74248332D02*
X97409819Y-73629285D01*
X97409819Y-73629285D02*
X97790771Y-73962618D01*
X97790771Y-73962618D02*
X97790771Y-73819761D01*
X97790771Y-73819761D02*
X97838390Y-73724523D01*
X97838390Y-73724523D02*
X97886009Y-73676904D01*
X97886009Y-73676904D02*
X97981247Y-73629285D01*
X97981247Y-73629285D02*
X98219342Y-73629285D01*
X98219342Y-73629285D02*
X98314580Y-73676904D01*
X98314580Y-73676904D02*
X98362200Y-73724523D01*
X98362200Y-73724523D02*
X98409819Y-73819761D01*
X98409819Y-73819761D02*
X98409819Y-74105475D01*
X98409819Y-74105475D02*
X98362200Y-74200713D01*
X98362200Y-74200713D02*
X98314580Y-74248332D01*
X112166666Y-114601009D02*
X111833333Y-114601009D01*
X111833333Y-115124819D02*
X111833333Y-114124819D01*
X111833333Y-114124819D02*
X112309523Y-114124819D01*
X113214285Y-115124819D02*
X112642857Y-115124819D01*
X112928571Y-115124819D02*
X112928571Y-114124819D01*
X112928571Y-114124819D02*
X112833333Y-114267676D01*
X112833333Y-114267676D02*
X112738095Y-114362914D01*
X112738095Y-114362914D02*
X112642857Y-114410533D01*
X101857142Y-115029580D02*
X101809523Y-115077200D01*
X101809523Y-115077200D02*
X101666666Y-115124819D01*
X101666666Y-115124819D02*
X101571428Y-115124819D01*
X101571428Y-115124819D02*
X101428571Y-115077200D01*
X101428571Y-115077200D02*
X101333333Y-114981961D01*
X101333333Y-114981961D02*
X101285714Y-114886723D01*
X101285714Y-114886723D02*
X101238095Y-114696247D01*
X101238095Y-114696247D02*
X101238095Y-114553390D01*
X101238095Y-114553390D02*
X101285714Y-114362914D01*
X101285714Y-114362914D02*
X101333333Y-114267676D01*
X101333333Y-114267676D02*
X101428571Y-114172438D01*
X101428571Y-114172438D02*
X101571428Y-114124819D01*
X101571428Y-114124819D02*
X101666666Y-114124819D01*
X101666666Y-114124819D02*
X101809523Y-114172438D01*
X101809523Y-114172438D02*
X101857142Y-114220057D01*
X102190476Y-114124819D02*
X102809523Y-114124819D01*
X102809523Y-114124819D02*
X102476190Y-114505771D01*
X102476190Y-114505771D02*
X102619047Y-114505771D01*
X102619047Y-114505771D02*
X102714285Y-114553390D01*
X102714285Y-114553390D02*
X102761904Y-114601009D01*
X102761904Y-114601009D02*
X102809523Y-114696247D01*
X102809523Y-114696247D02*
X102809523Y-114934342D01*
X102809523Y-114934342D02*
X102761904Y-115029580D01*
X102761904Y-115029580D02*
X102714285Y-115077200D01*
X102714285Y-115077200D02*
X102619047Y-115124819D01*
X102619047Y-115124819D02*
X102333333Y-115124819D01*
X102333333Y-115124819D02*
X102238095Y-115077200D01*
X102238095Y-115077200D02*
X102190476Y-115029580D01*
X103142857Y-114124819D02*
X103761904Y-114124819D01*
X103761904Y-114124819D02*
X103428571Y-114505771D01*
X103428571Y-114505771D02*
X103571428Y-114505771D01*
X103571428Y-114505771D02*
X103666666Y-114553390D01*
X103666666Y-114553390D02*
X103714285Y-114601009D01*
X103714285Y-114601009D02*
X103761904Y-114696247D01*
X103761904Y-114696247D02*
X103761904Y-114934342D01*
X103761904Y-114934342D02*
X103714285Y-115029580D01*
X103714285Y-115029580D02*
X103666666Y-115077200D01*
X103666666Y-115077200D02*
X103571428Y-115124819D01*
X103571428Y-115124819D02*
X103285714Y-115124819D01*
X103285714Y-115124819D02*
X103190476Y-115077200D01*
X103190476Y-115077200D02*
X103142857Y-115029580D01*
X117166666Y-50341009D02*
X116833333Y-50341009D01*
X116833333Y-50864819D02*
X116833333Y-49864819D01*
X116833333Y-49864819D02*
X117309523Y-49864819D01*
X118119047Y-50198152D02*
X118119047Y-50864819D01*
X117880952Y-49817200D02*
X117642857Y-50531485D01*
X117642857Y-50531485D02*
X118261904Y-50531485D01*
X106813095Y-100769819D02*
X106813095Y-101579342D01*
X106813095Y-101579342D02*
X106860714Y-101674580D01*
X106860714Y-101674580D02*
X106908333Y-101722200D01*
X106908333Y-101722200D02*
X107003571Y-101769819D01*
X107003571Y-101769819D02*
X107194047Y-101769819D01*
X107194047Y-101769819D02*
X107289285Y-101722200D01*
X107289285Y-101722200D02*
X107336904Y-101674580D01*
X107336904Y-101674580D02*
X107384523Y-101579342D01*
X107384523Y-101579342D02*
X107384523Y-100769819D01*
X108289285Y-100769819D02*
X108098809Y-100769819D01*
X108098809Y-100769819D02*
X108003571Y-100817438D01*
X108003571Y-100817438D02*
X107955952Y-100865057D01*
X107955952Y-100865057D02*
X107860714Y-101007914D01*
X107860714Y-101007914D02*
X107813095Y-101198390D01*
X107813095Y-101198390D02*
X107813095Y-101579342D01*
X107813095Y-101579342D02*
X107860714Y-101674580D01*
X107860714Y-101674580D02*
X107908333Y-101722200D01*
X107908333Y-101722200D02*
X108003571Y-101769819D01*
X108003571Y-101769819D02*
X108194047Y-101769819D01*
X108194047Y-101769819D02*
X108289285Y-101722200D01*
X108289285Y-101722200D02*
X108336904Y-101674580D01*
X108336904Y-101674580D02*
X108384523Y-101579342D01*
X108384523Y-101579342D02*
X108384523Y-101341247D01*
X108384523Y-101341247D02*
X108336904Y-101246009D01*
X108336904Y-101246009D02*
X108289285Y-101198390D01*
X108289285Y-101198390D02*
X108194047Y-101150771D01*
X108194047Y-101150771D02*
X108003571Y-101150771D01*
X108003571Y-101150771D02*
X107908333Y-101198390D01*
X107908333Y-101198390D02*
X107860714Y-101246009D01*
X107860714Y-101246009D02*
X107813095Y-101341247D01*
X103880951Y-112704819D02*
X103404761Y-112704819D01*
X103404761Y-112704819D02*
X103404761Y-111704819D01*
X104357142Y-112704819D02*
X104261904Y-112657200D01*
X104261904Y-112657200D02*
X104214285Y-112609580D01*
X104214285Y-112609580D02*
X104166666Y-112514342D01*
X104166666Y-112514342D02*
X104166666Y-112228628D01*
X104166666Y-112228628D02*
X104214285Y-112133390D01*
X104214285Y-112133390D02*
X104261904Y-112085771D01*
X104261904Y-112085771D02*
X104357142Y-112038152D01*
X104357142Y-112038152D02*
X104499999Y-112038152D01*
X104499999Y-112038152D02*
X104595237Y-112085771D01*
X104595237Y-112085771D02*
X104642856Y-112133390D01*
X104642856Y-112133390D02*
X104690475Y-112228628D01*
X104690475Y-112228628D02*
X104690475Y-112514342D01*
X104690475Y-112514342D02*
X104642856Y-112609580D01*
X104642856Y-112609580D02*
X104595237Y-112657200D01*
X104595237Y-112657200D02*
X104499999Y-112704819D01*
X104499999Y-112704819D02*
X104357142Y-112704819D01*
X105547618Y-112038152D02*
X105547618Y-112847676D01*
X105547618Y-112847676D02*
X105499999Y-112942914D01*
X105499999Y-112942914D02*
X105452380Y-112990533D01*
X105452380Y-112990533D02*
X105357142Y-113038152D01*
X105357142Y-113038152D02*
X105214285Y-113038152D01*
X105214285Y-113038152D02*
X105119047Y-112990533D01*
X105547618Y-112657200D02*
X105452380Y-112704819D01*
X105452380Y-112704819D02*
X105261904Y-112704819D01*
X105261904Y-112704819D02*
X105166666Y-112657200D01*
X105166666Y-112657200D02*
X105119047Y-112609580D01*
X105119047Y-112609580D02*
X105071428Y-112514342D01*
X105071428Y-112514342D02*
X105071428Y-112228628D01*
X105071428Y-112228628D02*
X105119047Y-112133390D01*
X105119047Y-112133390D02*
X105166666Y-112085771D01*
X105166666Y-112085771D02*
X105261904Y-112038152D01*
X105261904Y-112038152D02*
X105452380Y-112038152D01*
X105452380Y-112038152D02*
X105547618Y-112085771D01*
X106023809Y-112704819D02*
X106023809Y-112038152D01*
X106023809Y-111704819D02*
X105976190Y-111752438D01*
X105976190Y-111752438D02*
X106023809Y-111800057D01*
X106023809Y-111800057D02*
X106071428Y-111752438D01*
X106071428Y-111752438D02*
X106023809Y-111704819D01*
X106023809Y-111704819D02*
X106023809Y-111800057D01*
X106928570Y-112657200D02*
X106833332Y-112704819D01*
X106833332Y-112704819D02*
X106642856Y-112704819D01*
X106642856Y-112704819D02*
X106547618Y-112657200D01*
X106547618Y-112657200D02*
X106499999Y-112609580D01*
X106499999Y-112609580D02*
X106452380Y-112514342D01*
X106452380Y-112514342D02*
X106452380Y-112228628D01*
X106452380Y-112228628D02*
X106499999Y-112133390D01*
X106499999Y-112133390D02*
X106547618Y-112085771D01*
X106547618Y-112085771D02*
X106642856Y-112038152D01*
X106642856Y-112038152D02*
X106833332Y-112038152D01*
X106833332Y-112038152D02*
X106928570Y-112085771D01*
X108071428Y-112657200D02*
X108214285Y-112704819D01*
X108214285Y-112704819D02*
X108452380Y-112704819D01*
X108452380Y-112704819D02*
X108547618Y-112657200D01*
X108547618Y-112657200D02*
X108595237Y-112609580D01*
X108595237Y-112609580D02*
X108642856Y-112514342D01*
X108642856Y-112514342D02*
X108642856Y-112419104D01*
X108642856Y-112419104D02*
X108595237Y-112323866D01*
X108595237Y-112323866D02*
X108547618Y-112276247D01*
X108547618Y-112276247D02*
X108452380Y-112228628D01*
X108452380Y-112228628D02*
X108261904Y-112181009D01*
X108261904Y-112181009D02*
X108166666Y-112133390D01*
X108166666Y-112133390D02*
X108119047Y-112085771D01*
X108119047Y-112085771D02*
X108071428Y-111990533D01*
X108071428Y-111990533D02*
X108071428Y-111895295D01*
X108071428Y-111895295D02*
X108119047Y-111800057D01*
X108119047Y-111800057D02*
X108166666Y-111752438D01*
X108166666Y-111752438D02*
X108261904Y-111704819D01*
X108261904Y-111704819D02*
X108499999Y-111704819D01*
X108499999Y-111704819D02*
X108642856Y-111752438D01*
X109071428Y-112704819D02*
X109071428Y-111704819D01*
X109499999Y-112704819D02*
X109499999Y-112181009D01*
X109499999Y-112181009D02*
X109452380Y-112085771D01*
X109452380Y-112085771D02*
X109357142Y-112038152D01*
X109357142Y-112038152D02*
X109214285Y-112038152D01*
X109214285Y-112038152D02*
X109119047Y-112085771D01*
X109119047Y-112085771D02*
X109071428Y-112133390D01*
X109976190Y-112704819D02*
X109976190Y-112038152D01*
X109976190Y-111704819D02*
X109928571Y-111752438D01*
X109928571Y-111752438D02*
X109976190Y-111800057D01*
X109976190Y-111800057D02*
X110023809Y-111752438D01*
X110023809Y-111752438D02*
X109976190Y-111704819D01*
X109976190Y-111704819D02*
X109976190Y-111800057D01*
X110309523Y-112038152D02*
X110690475Y-112038152D01*
X110452380Y-112704819D02*
X110452380Y-111847676D01*
X110452380Y-111847676D02*
X110499999Y-111752438D01*
X110499999Y-111752438D02*
X110595237Y-111704819D01*
X110595237Y-111704819D02*
X110690475Y-111704819D01*
X110880952Y-112038152D02*
X111261904Y-112038152D01*
X111023809Y-111704819D02*
X111023809Y-112561961D01*
X111023809Y-112561961D02*
X111071428Y-112657200D01*
X111071428Y-112657200D02*
X111166666Y-112704819D01*
X111166666Y-112704819D02*
X111261904Y-112704819D01*
X111976190Y-112657200D02*
X111880952Y-112704819D01*
X111880952Y-112704819D02*
X111690476Y-112704819D01*
X111690476Y-112704819D02*
X111595238Y-112657200D01*
X111595238Y-112657200D02*
X111547619Y-112561961D01*
X111547619Y-112561961D02*
X111547619Y-112181009D01*
X111547619Y-112181009D02*
X111595238Y-112085771D01*
X111595238Y-112085771D02*
X111690476Y-112038152D01*
X111690476Y-112038152D02*
X111880952Y-112038152D01*
X111880952Y-112038152D02*
X111976190Y-112085771D01*
X111976190Y-112085771D02*
X112023809Y-112181009D01*
X112023809Y-112181009D02*
X112023809Y-112276247D01*
X112023809Y-112276247D02*
X111547619Y-112371485D01*
X112452381Y-112704819D02*
X112452381Y-112038152D01*
X112452381Y-112228628D02*
X112500000Y-112133390D01*
X112500000Y-112133390D02*
X112547619Y-112085771D01*
X112547619Y-112085771D02*
X112642857Y-112038152D01*
X112642857Y-112038152D02*
X112738095Y-112038152D01*
X110959580Y-82666666D02*
X111007200Y-82714285D01*
X111007200Y-82714285D02*
X111054819Y-82857142D01*
X111054819Y-82857142D02*
X111054819Y-82952380D01*
X111054819Y-82952380D02*
X111007200Y-83095237D01*
X111007200Y-83095237D02*
X110911961Y-83190475D01*
X110911961Y-83190475D02*
X110816723Y-83238094D01*
X110816723Y-83238094D02*
X110626247Y-83285713D01*
X110626247Y-83285713D02*
X110483390Y-83285713D01*
X110483390Y-83285713D02*
X110292914Y-83238094D01*
X110292914Y-83238094D02*
X110197676Y-83190475D01*
X110197676Y-83190475D02*
X110102438Y-83095237D01*
X110102438Y-83095237D02*
X110054819Y-82952380D01*
X110054819Y-82952380D02*
X110054819Y-82857142D01*
X110054819Y-82857142D02*
X110102438Y-82714285D01*
X110102438Y-82714285D02*
X110150057Y-82666666D01*
X110054819Y-81809523D02*
X110054819Y-81999999D01*
X110054819Y-81999999D02*
X110102438Y-82095237D01*
X110102438Y-82095237D02*
X110150057Y-82142856D01*
X110150057Y-82142856D02*
X110292914Y-82238094D01*
X110292914Y-82238094D02*
X110483390Y-82285713D01*
X110483390Y-82285713D02*
X110864342Y-82285713D01*
X110864342Y-82285713D02*
X110959580Y-82238094D01*
X110959580Y-82238094D02*
X111007200Y-82190475D01*
X111007200Y-82190475D02*
X111054819Y-82095237D01*
X111054819Y-82095237D02*
X111054819Y-81904761D01*
X111054819Y-81904761D02*
X111007200Y-81809523D01*
X111007200Y-81809523D02*
X110959580Y-81761904D01*
X110959580Y-81761904D02*
X110864342Y-81714285D01*
X110864342Y-81714285D02*
X110626247Y-81714285D01*
X110626247Y-81714285D02*
X110531009Y-81761904D01*
X110531009Y-81761904D02*
X110483390Y-81809523D01*
X110483390Y-81809523D02*
X110435771Y-81904761D01*
X110435771Y-81904761D02*
X110435771Y-82095237D01*
X110435771Y-82095237D02*
X110483390Y-82190475D01*
X110483390Y-82190475D02*
X110531009Y-82238094D01*
X110531009Y-82238094D02*
X110626247Y-82285713D01*
X110659580Y-73516666D02*
X110707200Y-73564285D01*
X110707200Y-73564285D02*
X110754819Y-73707142D01*
X110754819Y-73707142D02*
X110754819Y-73802380D01*
X110754819Y-73802380D02*
X110707200Y-73945237D01*
X110707200Y-73945237D02*
X110611961Y-74040475D01*
X110611961Y-74040475D02*
X110516723Y-74088094D01*
X110516723Y-74088094D02*
X110326247Y-74135713D01*
X110326247Y-74135713D02*
X110183390Y-74135713D01*
X110183390Y-74135713D02*
X109992914Y-74088094D01*
X109992914Y-74088094D02*
X109897676Y-74040475D01*
X109897676Y-74040475D02*
X109802438Y-73945237D01*
X109802438Y-73945237D02*
X109754819Y-73802380D01*
X109754819Y-73802380D02*
X109754819Y-73707142D01*
X109754819Y-73707142D02*
X109802438Y-73564285D01*
X109802438Y-73564285D02*
X109850057Y-73516666D01*
X109754819Y-73183332D02*
X109754819Y-72516666D01*
X109754819Y-72516666D02*
X110754819Y-72945237D01*
X83583333Y-57109580D02*
X83535714Y-57157200D01*
X83535714Y-57157200D02*
X83392857Y-57204819D01*
X83392857Y-57204819D02*
X83297619Y-57204819D01*
X83297619Y-57204819D02*
X83154762Y-57157200D01*
X83154762Y-57157200D02*
X83059524Y-57061961D01*
X83059524Y-57061961D02*
X83011905Y-56966723D01*
X83011905Y-56966723D02*
X82964286Y-56776247D01*
X82964286Y-56776247D02*
X82964286Y-56633390D01*
X82964286Y-56633390D02*
X83011905Y-56442914D01*
X83011905Y-56442914D02*
X83059524Y-56347676D01*
X83059524Y-56347676D02*
X83154762Y-56252438D01*
X83154762Y-56252438D02*
X83297619Y-56204819D01*
X83297619Y-56204819D02*
X83392857Y-56204819D01*
X83392857Y-56204819D02*
X83535714Y-56252438D01*
X83535714Y-56252438D02*
X83583333Y-56300057D01*
X84154762Y-56633390D02*
X84059524Y-56585771D01*
X84059524Y-56585771D02*
X84011905Y-56538152D01*
X84011905Y-56538152D02*
X83964286Y-56442914D01*
X83964286Y-56442914D02*
X83964286Y-56395295D01*
X83964286Y-56395295D02*
X84011905Y-56300057D01*
X84011905Y-56300057D02*
X84059524Y-56252438D01*
X84059524Y-56252438D02*
X84154762Y-56204819D01*
X84154762Y-56204819D02*
X84345238Y-56204819D01*
X84345238Y-56204819D02*
X84440476Y-56252438D01*
X84440476Y-56252438D02*
X84488095Y-56300057D01*
X84488095Y-56300057D02*
X84535714Y-56395295D01*
X84535714Y-56395295D02*
X84535714Y-56442914D01*
X84535714Y-56442914D02*
X84488095Y-56538152D01*
X84488095Y-56538152D02*
X84440476Y-56585771D01*
X84440476Y-56585771D02*
X84345238Y-56633390D01*
X84345238Y-56633390D02*
X84154762Y-56633390D01*
X84154762Y-56633390D02*
X84059524Y-56681009D01*
X84059524Y-56681009D02*
X84011905Y-56728628D01*
X84011905Y-56728628D02*
X83964286Y-56823866D01*
X83964286Y-56823866D02*
X83964286Y-57014342D01*
X83964286Y-57014342D02*
X84011905Y-57109580D01*
X84011905Y-57109580D02*
X84059524Y-57157200D01*
X84059524Y-57157200D02*
X84154762Y-57204819D01*
X84154762Y-57204819D02*
X84345238Y-57204819D01*
X84345238Y-57204819D02*
X84440476Y-57157200D01*
X84440476Y-57157200D02*
X84488095Y-57109580D01*
X84488095Y-57109580D02*
X84535714Y-57014342D01*
X84535714Y-57014342D02*
X84535714Y-56823866D01*
X84535714Y-56823866D02*
X84488095Y-56728628D01*
X84488095Y-56728628D02*
X84440476Y-56681009D01*
X84440476Y-56681009D02*
X84345238Y-56633390D01*
X103011905Y-79454819D02*
X103011905Y-78454819D01*
X103011905Y-78454819D02*
X103250000Y-78454819D01*
X103250000Y-78454819D02*
X103392857Y-78502438D01*
X103392857Y-78502438D02*
X103488095Y-78597676D01*
X103488095Y-78597676D02*
X103535714Y-78692914D01*
X103535714Y-78692914D02*
X103583333Y-78883390D01*
X103583333Y-78883390D02*
X103583333Y-79026247D01*
X103583333Y-79026247D02*
X103535714Y-79216723D01*
X103535714Y-79216723D02*
X103488095Y-79311961D01*
X103488095Y-79311961D02*
X103392857Y-79407200D01*
X103392857Y-79407200D02*
X103250000Y-79454819D01*
X103250000Y-79454819D02*
X103011905Y-79454819D01*
X103964286Y-78550057D02*
X104011905Y-78502438D01*
X104011905Y-78502438D02*
X104107143Y-78454819D01*
X104107143Y-78454819D02*
X104345238Y-78454819D01*
X104345238Y-78454819D02*
X104440476Y-78502438D01*
X104440476Y-78502438D02*
X104488095Y-78550057D01*
X104488095Y-78550057D02*
X104535714Y-78645295D01*
X104535714Y-78645295D02*
X104535714Y-78740533D01*
X104535714Y-78740533D02*
X104488095Y-78883390D01*
X104488095Y-78883390D02*
X103916667Y-79454819D01*
X103916667Y-79454819D02*
X104535714Y-79454819D01*
X99845237Y-86907200D02*
X99988094Y-86954819D01*
X99988094Y-86954819D02*
X100226189Y-86954819D01*
X100226189Y-86954819D02*
X100321427Y-86907200D01*
X100321427Y-86907200D02*
X100369046Y-86859580D01*
X100369046Y-86859580D02*
X100416665Y-86764342D01*
X100416665Y-86764342D02*
X100416665Y-86669104D01*
X100416665Y-86669104D02*
X100369046Y-86573866D01*
X100369046Y-86573866D02*
X100321427Y-86526247D01*
X100321427Y-86526247D02*
X100226189Y-86478628D01*
X100226189Y-86478628D02*
X100035713Y-86431009D01*
X100035713Y-86431009D02*
X99940475Y-86383390D01*
X99940475Y-86383390D02*
X99892856Y-86335771D01*
X99892856Y-86335771D02*
X99845237Y-86240533D01*
X99845237Y-86240533D02*
X99845237Y-86145295D01*
X99845237Y-86145295D02*
X99892856Y-86050057D01*
X99892856Y-86050057D02*
X99940475Y-86002438D01*
X99940475Y-86002438D02*
X100035713Y-85954819D01*
X100035713Y-85954819D02*
X100273808Y-85954819D01*
X100273808Y-85954819D02*
X100416665Y-86002438D01*
X100702380Y-86288152D02*
X101083332Y-86288152D01*
X100845237Y-85954819D02*
X100845237Y-86811961D01*
X100845237Y-86811961D02*
X100892856Y-86907200D01*
X100892856Y-86907200D02*
X100988094Y-86954819D01*
X100988094Y-86954819D02*
X101083332Y-86954819D01*
X101845237Y-86954819D02*
X101845237Y-86431009D01*
X101845237Y-86431009D02*
X101797618Y-86335771D01*
X101797618Y-86335771D02*
X101702380Y-86288152D01*
X101702380Y-86288152D02*
X101511904Y-86288152D01*
X101511904Y-86288152D02*
X101416666Y-86335771D01*
X101845237Y-86907200D02*
X101749999Y-86954819D01*
X101749999Y-86954819D02*
X101511904Y-86954819D01*
X101511904Y-86954819D02*
X101416666Y-86907200D01*
X101416666Y-86907200D02*
X101369047Y-86811961D01*
X101369047Y-86811961D02*
X101369047Y-86716723D01*
X101369047Y-86716723D02*
X101416666Y-86621485D01*
X101416666Y-86621485D02*
X101511904Y-86573866D01*
X101511904Y-86573866D02*
X101749999Y-86573866D01*
X101749999Y-86573866D02*
X101845237Y-86526247D01*
X102178571Y-86288152D02*
X102559523Y-86288152D01*
X102321428Y-85954819D02*
X102321428Y-86811961D01*
X102321428Y-86811961D02*
X102369047Y-86907200D01*
X102369047Y-86907200D02*
X102464285Y-86954819D01*
X102464285Y-86954819D02*
X102559523Y-86954819D01*
X103321428Y-86288152D02*
X103321428Y-86954819D01*
X102892857Y-86288152D02*
X102892857Y-86811961D01*
X102892857Y-86811961D02*
X102940476Y-86907200D01*
X102940476Y-86907200D02*
X103035714Y-86954819D01*
X103035714Y-86954819D02*
X103178571Y-86954819D01*
X103178571Y-86954819D02*
X103273809Y-86907200D01*
X103273809Y-86907200D02*
X103321428Y-86859580D01*
X103750000Y-86907200D02*
X103845238Y-86954819D01*
X103845238Y-86954819D02*
X104035714Y-86954819D01*
X104035714Y-86954819D02*
X104130952Y-86907200D01*
X104130952Y-86907200D02*
X104178571Y-86811961D01*
X104178571Y-86811961D02*
X104178571Y-86764342D01*
X104178571Y-86764342D02*
X104130952Y-86669104D01*
X104130952Y-86669104D02*
X104035714Y-86621485D01*
X104035714Y-86621485D02*
X103892857Y-86621485D01*
X103892857Y-86621485D02*
X103797619Y-86573866D01*
X103797619Y-86573866D02*
X103750000Y-86478628D01*
X103750000Y-86478628D02*
X103750000Y-86431009D01*
X103750000Y-86431009D02*
X103797619Y-86335771D01*
X103797619Y-86335771D02*
X103892857Y-86288152D01*
X103892857Y-86288152D02*
X104035714Y-86288152D01*
X104035714Y-86288152D02*
X104130952Y-86335771D01*
X105845238Y-86954819D02*
X105369048Y-86954819D01*
X105369048Y-86954819D02*
X105369048Y-85954819D01*
X106178572Y-86431009D02*
X106511905Y-86431009D01*
X106654762Y-86954819D02*
X106178572Y-86954819D01*
X106178572Y-86954819D02*
X106178572Y-85954819D01*
X106178572Y-85954819D02*
X106654762Y-85954819D01*
X107083334Y-86954819D02*
X107083334Y-85954819D01*
X107083334Y-85954819D02*
X107321429Y-85954819D01*
X107321429Y-85954819D02*
X107464286Y-86002438D01*
X107464286Y-86002438D02*
X107559524Y-86097676D01*
X107559524Y-86097676D02*
X107607143Y-86192914D01*
X107607143Y-86192914D02*
X107654762Y-86383390D01*
X107654762Y-86383390D02*
X107654762Y-86526247D01*
X107654762Y-86526247D02*
X107607143Y-86716723D01*
X107607143Y-86716723D02*
X107559524Y-86811961D01*
X107559524Y-86811961D02*
X107464286Y-86907200D01*
X107464286Y-86907200D02*
X107321429Y-86954819D01*
X107321429Y-86954819D02*
X107083334Y-86954819D01*
X99978571Y-81262295D02*
X99521428Y-81262295D01*
X99750000Y-81262295D02*
X99750000Y-80462295D01*
X99750000Y-80462295D02*
X99673809Y-80576580D01*
X99673809Y-80576580D02*
X99597619Y-80652771D01*
X99597619Y-80652771D02*
X99521428Y-80690866D01*
X102711905Y-70304819D02*
X102711905Y-69304819D01*
X102711905Y-69304819D02*
X102950000Y-69304819D01*
X102950000Y-69304819D02*
X103092857Y-69352438D01*
X103092857Y-69352438D02*
X103188095Y-69447676D01*
X103188095Y-69447676D02*
X103235714Y-69542914D01*
X103235714Y-69542914D02*
X103283333Y-69733390D01*
X103283333Y-69733390D02*
X103283333Y-69876247D01*
X103283333Y-69876247D02*
X103235714Y-70066723D01*
X103235714Y-70066723D02*
X103188095Y-70161961D01*
X103188095Y-70161961D02*
X103092857Y-70257200D01*
X103092857Y-70257200D02*
X102950000Y-70304819D01*
X102950000Y-70304819D02*
X102711905Y-70304819D01*
X104235714Y-70304819D02*
X103664286Y-70304819D01*
X103950000Y-70304819D02*
X103950000Y-69304819D01*
X103950000Y-69304819D02*
X103854762Y-69447676D01*
X103854762Y-69447676D02*
X103759524Y-69542914D01*
X103759524Y-69542914D02*
X103664286Y-69590533D01*
X99640475Y-77281009D02*
X99783332Y-77328628D01*
X99783332Y-77328628D02*
X99830951Y-77376247D01*
X99830951Y-77376247D02*
X99878570Y-77471485D01*
X99878570Y-77471485D02*
X99878570Y-77614342D01*
X99878570Y-77614342D02*
X99830951Y-77709580D01*
X99830951Y-77709580D02*
X99783332Y-77757200D01*
X99783332Y-77757200D02*
X99688094Y-77804819D01*
X99688094Y-77804819D02*
X99307142Y-77804819D01*
X99307142Y-77804819D02*
X99307142Y-76804819D01*
X99307142Y-76804819D02*
X99640475Y-76804819D01*
X99640475Y-76804819D02*
X99735713Y-76852438D01*
X99735713Y-76852438D02*
X99783332Y-76900057D01*
X99783332Y-76900057D02*
X99830951Y-76995295D01*
X99830951Y-76995295D02*
X99830951Y-77090533D01*
X99830951Y-77090533D02*
X99783332Y-77185771D01*
X99783332Y-77185771D02*
X99735713Y-77233390D01*
X99735713Y-77233390D02*
X99640475Y-77281009D01*
X99640475Y-77281009D02*
X99307142Y-77281009D01*
X100735713Y-77804819D02*
X100735713Y-77281009D01*
X100735713Y-77281009D02*
X100688094Y-77185771D01*
X100688094Y-77185771D02*
X100592856Y-77138152D01*
X100592856Y-77138152D02*
X100402380Y-77138152D01*
X100402380Y-77138152D02*
X100307142Y-77185771D01*
X100735713Y-77757200D02*
X100640475Y-77804819D01*
X100640475Y-77804819D02*
X100402380Y-77804819D01*
X100402380Y-77804819D02*
X100307142Y-77757200D01*
X100307142Y-77757200D02*
X100259523Y-77661961D01*
X100259523Y-77661961D02*
X100259523Y-77566723D01*
X100259523Y-77566723D02*
X100307142Y-77471485D01*
X100307142Y-77471485D02*
X100402380Y-77423866D01*
X100402380Y-77423866D02*
X100640475Y-77423866D01*
X100640475Y-77423866D02*
X100735713Y-77376247D01*
X101069047Y-77138152D02*
X101449999Y-77138152D01*
X101211904Y-76804819D02*
X101211904Y-77661961D01*
X101211904Y-77661961D02*
X101259523Y-77757200D01*
X101259523Y-77757200D02*
X101354761Y-77804819D01*
X101354761Y-77804819D02*
X101449999Y-77804819D01*
X101640476Y-77138152D02*
X102021428Y-77138152D01*
X101783333Y-76804819D02*
X101783333Y-77661961D01*
X101783333Y-77661961D02*
X101830952Y-77757200D01*
X101830952Y-77757200D02*
X101926190Y-77804819D01*
X101926190Y-77804819D02*
X102021428Y-77804819D01*
X102735714Y-77757200D02*
X102640476Y-77804819D01*
X102640476Y-77804819D02*
X102450000Y-77804819D01*
X102450000Y-77804819D02*
X102354762Y-77757200D01*
X102354762Y-77757200D02*
X102307143Y-77661961D01*
X102307143Y-77661961D02*
X102307143Y-77281009D01*
X102307143Y-77281009D02*
X102354762Y-77185771D01*
X102354762Y-77185771D02*
X102450000Y-77138152D01*
X102450000Y-77138152D02*
X102640476Y-77138152D01*
X102640476Y-77138152D02*
X102735714Y-77185771D01*
X102735714Y-77185771D02*
X102783333Y-77281009D01*
X102783333Y-77281009D02*
X102783333Y-77376247D01*
X102783333Y-77376247D02*
X102307143Y-77471485D01*
X103211905Y-77804819D02*
X103211905Y-77138152D01*
X103211905Y-77328628D02*
X103259524Y-77233390D01*
X103259524Y-77233390D02*
X103307143Y-77185771D01*
X103307143Y-77185771D02*
X103402381Y-77138152D01*
X103402381Y-77138152D02*
X103497619Y-77138152D01*
X103735715Y-77138152D02*
X103973810Y-77804819D01*
X104211905Y-77138152D02*
X103973810Y-77804819D01*
X103973810Y-77804819D02*
X103878572Y-78042914D01*
X103878572Y-78042914D02*
X103830953Y-78090533D01*
X103830953Y-78090533D02*
X103735715Y-78138152D01*
X105830953Y-77804819D02*
X105354763Y-77804819D01*
X105354763Y-77804819D02*
X105354763Y-76804819D01*
X106164287Y-77281009D02*
X106497620Y-77281009D01*
X106640477Y-77804819D02*
X106164287Y-77804819D01*
X106164287Y-77804819D02*
X106164287Y-76804819D01*
X106164287Y-76804819D02*
X106640477Y-76804819D01*
X107069049Y-77804819D02*
X107069049Y-76804819D01*
X107069049Y-76804819D02*
X107307144Y-76804819D01*
X107307144Y-76804819D02*
X107450001Y-76852438D01*
X107450001Y-76852438D02*
X107545239Y-76947676D01*
X107545239Y-76947676D02*
X107592858Y-77042914D01*
X107592858Y-77042914D02*
X107640477Y-77233390D01*
X107640477Y-77233390D02*
X107640477Y-77376247D01*
X107640477Y-77376247D02*
X107592858Y-77566723D01*
X107592858Y-77566723D02*
X107545239Y-77661961D01*
X107545239Y-77661961D02*
X107450001Y-77757200D01*
X107450001Y-77757200D02*
X107307144Y-77804819D01*
X107307144Y-77804819D02*
X107069049Y-77804819D01*
X99678571Y-72112295D02*
X99221428Y-72112295D01*
X99450000Y-72112295D02*
X99450000Y-71312295D01*
X99450000Y-71312295D02*
X99373809Y-71426580D01*
X99373809Y-71426580D02*
X99297619Y-71502771D01*
X99297619Y-71502771D02*
X99221428Y-71540866D01*
X167119819Y-54916904D02*
X167929342Y-54916904D01*
X167929342Y-54916904D02*
X168024580Y-54869285D01*
X168024580Y-54869285D02*
X168072200Y-54821666D01*
X168072200Y-54821666D02*
X168119819Y-54726428D01*
X168119819Y-54726428D02*
X168119819Y-54535952D01*
X168119819Y-54535952D02*
X168072200Y-54440714D01*
X168072200Y-54440714D02*
X168024580Y-54393095D01*
X168024580Y-54393095D02*
X167929342Y-54345476D01*
X167929342Y-54345476D02*
X167119819Y-54345476D01*
X167453152Y-53440714D02*
X168119819Y-53440714D01*
X167072200Y-53678809D02*
X167786485Y-53916904D01*
X167786485Y-53916904D02*
X167786485Y-53297857D01*
X122166666Y-114601009D02*
X121833333Y-114601009D01*
X121833333Y-115124819D02*
X121833333Y-114124819D01*
X121833333Y-114124819D02*
X122309523Y-114124819D01*
X123166666Y-114124819D02*
X122690476Y-114124819D01*
X122690476Y-114124819D02*
X122642857Y-114601009D01*
X122642857Y-114601009D02*
X122690476Y-114553390D01*
X122690476Y-114553390D02*
X122785714Y-114505771D01*
X122785714Y-114505771D02*
X123023809Y-114505771D01*
X123023809Y-114505771D02*
X123119047Y-114553390D01*
X123119047Y-114553390D02*
X123166666Y-114601009D01*
X123166666Y-114601009D02*
X123214285Y-114696247D01*
X123214285Y-114696247D02*
X123214285Y-114934342D01*
X123214285Y-114934342D02*
X123166666Y-115029580D01*
X123166666Y-115029580D02*
X123119047Y-115077200D01*
X123119047Y-115077200D02*
X123023809Y-115124819D01*
X123023809Y-115124819D02*
X122785714Y-115124819D01*
X122785714Y-115124819D02*
X122690476Y-115077200D01*
X122690476Y-115077200D02*
X122642857Y-115029580D01*
X117166666Y-114601009D02*
X116833333Y-114601009D01*
X116833333Y-115124819D02*
X116833333Y-114124819D01*
X116833333Y-114124819D02*
X117309523Y-114124819D01*
X117595238Y-114124819D02*
X118214285Y-114124819D01*
X118214285Y-114124819D02*
X117880952Y-114505771D01*
X117880952Y-114505771D02*
X118023809Y-114505771D01*
X118023809Y-114505771D02*
X118119047Y-114553390D01*
X118119047Y-114553390D02*
X118166666Y-114601009D01*
X118166666Y-114601009D02*
X118214285Y-114696247D01*
X118214285Y-114696247D02*
X118214285Y-114934342D01*
X118214285Y-114934342D02*
X118166666Y-115029580D01*
X118166666Y-115029580D02*
X118119047Y-115077200D01*
X118119047Y-115077200D02*
X118023809Y-115124819D01*
X118023809Y-115124819D02*
X117738095Y-115124819D01*
X117738095Y-115124819D02*
X117642857Y-115077200D01*
X117642857Y-115077200D02*
X117595238Y-115029580D01*
X122166666Y-50341009D02*
X121833333Y-50341009D01*
X121833333Y-50864819D02*
X121833333Y-49864819D01*
X121833333Y-49864819D02*
X122309523Y-49864819D01*
X122642857Y-49960057D02*
X122690476Y-49912438D01*
X122690476Y-49912438D02*
X122785714Y-49864819D01*
X122785714Y-49864819D02*
X123023809Y-49864819D01*
X123023809Y-49864819D02*
X123119047Y-49912438D01*
X123119047Y-49912438D02*
X123166666Y-49960057D01*
X123166666Y-49960057D02*
X123214285Y-50055295D01*
X123214285Y-50055295D02*
X123214285Y-50150533D01*
X123214285Y-50150533D02*
X123166666Y-50293390D01*
X123166666Y-50293390D02*
X122595238Y-50864819D01*
X122595238Y-50864819D02*
X123214285Y-50864819D01*
X126738095Y-114124819D02*
X127309523Y-114124819D01*
X127023809Y-115124819D02*
X127023809Y-114124819D01*
X128166666Y-115124819D02*
X127595238Y-115124819D01*
X127880952Y-115124819D02*
X127880952Y-114124819D01*
X127880952Y-114124819D02*
X127785714Y-114267676D01*
X127785714Y-114267676D02*
X127690476Y-114362914D01*
X127690476Y-114362914D02*
X127595238Y-114410533D01*
X112166666Y-50341009D02*
X111833333Y-50341009D01*
X111833333Y-50864819D02*
X111833333Y-49864819D01*
X111833333Y-49864819D02*
X112309523Y-49864819D01*
X113119047Y-49864819D02*
X112928571Y-49864819D01*
X112928571Y-49864819D02*
X112833333Y-49912438D01*
X112833333Y-49912438D02*
X112785714Y-49960057D01*
X112785714Y-49960057D02*
X112690476Y-50102914D01*
X112690476Y-50102914D02*
X112642857Y-50293390D01*
X112642857Y-50293390D02*
X112642857Y-50674342D01*
X112642857Y-50674342D02*
X112690476Y-50769580D01*
X112690476Y-50769580D02*
X112738095Y-50817200D01*
X112738095Y-50817200D02*
X112833333Y-50864819D01*
X112833333Y-50864819D02*
X113023809Y-50864819D01*
X113023809Y-50864819D02*
X113119047Y-50817200D01*
X113119047Y-50817200D02*
X113166666Y-50769580D01*
X113166666Y-50769580D02*
X113214285Y-50674342D01*
X113214285Y-50674342D02*
X113214285Y-50436247D01*
X113214285Y-50436247D02*
X113166666Y-50341009D01*
X113166666Y-50341009D02*
X113119047Y-50293390D01*
X113119047Y-50293390D02*
X113023809Y-50245771D01*
X113023809Y-50245771D02*
X112833333Y-50245771D01*
X112833333Y-50245771D02*
X112738095Y-50293390D01*
X112738095Y-50293390D02*
X112690476Y-50341009D01*
X112690476Y-50341009D02*
X112642857Y-50436247D01*
X145583333Y-68359580D02*
X145535714Y-68407200D01*
X145535714Y-68407200D02*
X145392857Y-68454819D01*
X145392857Y-68454819D02*
X145297619Y-68454819D01*
X145297619Y-68454819D02*
X145154762Y-68407200D01*
X145154762Y-68407200D02*
X145059524Y-68311961D01*
X145059524Y-68311961D02*
X145011905Y-68216723D01*
X145011905Y-68216723D02*
X144964286Y-68026247D01*
X144964286Y-68026247D02*
X144964286Y-67883390D01*
X144964286Y-67883390D02*
X145011905Y-67692914D01*
X145011905Y-67692914D02*
X145059524Y-67597676D01*
X145059524Y-67597676D02*
X145154762Y-67502438D01*
X145154762Y-67502438D02*
X145297619Y-67454819D01*
X145297619Y-67454819D02*
X145392857Y-67454819D01*
X145392857Y-67454819D02*
X145535714Y-67502438D01*
X145535714Y-67502438D02*
X145583333Y-67550057D01*
X146535714Y-68454819D02*
X145964286Y-68454819D01*
X146250000Y-68454819D02*
X146250000Y-67454819D01*
X146250000Y-67454819D02*
X146154762Y-67597676D01*
X146154762Y-67597676D02*
X146059524Y-67692914D01*
X146059524Y-67692914D02*
X145964286Y-67740533D01*
X106857142Y-115029580D02*
X106809523Y-115077200D01*
X106809523Y-115077200D02*
X106666666Y-115124819D01*
X106666666Y-115124819D02*
X106571428Y-115124819D01*
X106571428Y-115124819D02*
X106428571Y-115077200D01*
X106428571Y-115077200D02*
X106333333Y-114981961D01*
X106333333Y-114981961D02*
X106285714Y-114886723D01*
X106285714Y-114886723D02*
X106238095Y-114696247D01*
X106238095Y-114696247D02*
X106238095Y-114553390D01*
X106238095Y-114553390D02*
X106285714Y-114362914D01*
X106285714Y-114362914D02*
X106333333Y-114267676D01*
X106333333Y-114267676D02*
X106428571Y-114172438D01*
X106428571Y-114172438D02*
X106571428Y-114124819D01*
X106571428Y-114124819D02*
X106666666Y-114124819D01*
X106666666Y-114124819D02*
X106809523Y-114172438D01*
X106809523Y-114172438D02*
X106857142Y-114220057D01*
X107761904Y-114124819D02*
X107285714Y-114124819D01*
X107285714Y-114124819D02*
X107238095Y-114601009D01*
X107238095Y-114601009D02*
X107285714Y-114553390D01*
X107285714Y-114553390D02*
X107380952Y-114505771D01*
X107380952Y-114505771D02*
X107619047Y-114505771D01*
X107619047Y-114505771D02*
X107714285Y-114553390D01*
X107714285Y-114553390D02*
X107761904Y-114601009D01*
X107761904Y-114601009D02*
X107809523Y-114696247D01*
X107809523Y-114696247D02*
X107809523Y-114934342D01*
X107809523Y-114934342D02*
X107761904Y-115029580D01*
X107761904Y-115029580D02*
X107714285Y-115077200D01*
X107714285Y-115077200D02*
X107619047Y-115124819D01*
X107619047Y-115124819D02*
X107380952Y-115124819D01*
X107380952Y-115124819D02*
X107285714Y-115077200D01*
X107285714Y-115077200D02*
X107238095Y-115029580D01*
X108714285Y-114124819D02*
X108238095Y-114124819D01*
X108238095Y-114124819D02*
X108190476Y-114601009D01*
X108190476Y-114601009D02*
X108238095Y-114553390D01*
X108238095Y-114553390D02*
X108333333Y-114505771D01*
X108333333Y-114505771D02*
X108571428Y-114505771D01*
X108571428Y-114505771D02*
X108666666Y-114553390D01*
X108666666Y-114553390D02*
X108714285Y-114601009D01*
X108714285Y-114601009D02*
X108761904Y-114696247D01*
X108761904Y-114696247D02*
X108761904Y-114934342D01*
X108761904Y-114934342D02*
X108714285Y-115029580D01*
X108714285Y-115029580D02*
X108666666Y-115077200D01*
X108666666Y-115077200D02*
X108571428Y-115124819D01*
X108571428Y-115124819D02*
X108333333Y-115124819D01*
X108333333Y-115124819D02*
X108238095Y-115077200D01*
X108238095Y-115077200D02*
X108190476Y-115029580D01*
X96857142Y-115029580D02*
X96809523Y-115077200D01*
X96809523Y-115077200D02*
X96666666Y-115124819D01*
X96666666Y-115124819D02*
X96571428Y-115124819D01*
X96571428Y-115124819D02*
X96428571Y-115077200D01*
X96428571Y-115077200D02*
X96333333Y-114981961D01*
X96333333Y-114981961D02*
X96285714Y-114886723D01*
X96285714Y-114886723D02*
X96238095Y-114696247D01*
X96238095Y-114696247D02*
X96238095Y-114553390D01*
X96238095Y-114553390D02*
X96285714Y-114362914D01*
X96285714Y-114362914D02*
X96333333Y-114267676D01*
X96333333Y-114267676D02*
X96428571Y-114172438D01*
X96428571Y-114172438D02*
X96571428Y-114124819D01*
X96571428Y-114124819D02*
X96666666Y-114124819D01*
X96666666Y-114124819D02*
X96809523Y-114172438D01*
X96809523Y-114172438D02*
X96857142Y-114220057D01*
X97809523Y-115124819D02*
X97238095Y-115124819D01*
X97523809Y-115124819D02*
X97523809Y-114124819D01*
X97523809Y-114124819D02*
X97428571Y-114267676D01*
X97428571Y-114267676D02*
X97333333Y-114362914D01*
X97333333Y-114362914D02*
X97238095Y-114410533D01*
X98761904Y-115124819D02*
X98190476Y-115124819D01*
X98476190Y-115124819D02*
X98476190Y-114124819D01*
X98476190Y-114124819D02*
X98380952Y-114267676D01*
X98380952Y-114267676D02*
X98285714Y-114362914D01*
X98285714Y-114362914D02*
X98190476Y-114410533D01*
X126857142Y-50939580D02*
X126809523Y-50987200D01*
X126809523Y-50987200D02*
X126666666Y-51034819D01*
X126666666Y-51034819D02*
X126571428Y-51034819D01*
X126571428Y-51034819D02*
X126428571Y-50987200D01*
X126428571Y-50987200D02*
X126333333Y-50891961D01*
X126333333Y-50891961D02*
X126285714Y-50796723D01*
X126285714Y-50796723D02*
X126238095Y-50606247D01*
X126238095Y-50606247D02*
X126238095Y-50463390D01*
X126238095Y-50463390D02*
X126285714Y-50272914D01*
X126285714Y-50272914D02*
X126333333Y-50177676D01*
X126333333Y-50177676D02*
X126428571Y-50082438D01*
X126428571Y-50082438D02*
X126571428Y-50034819D01*
X126571428Y-50034819D02*
X126666666Y-50034819D01*
X126666666Y-50034819D02*
X126809523Y-50082438D01*
X126809523Y-50082438D02*
X126857142Y-50130057D01*
X127714285Y-50368152D02*
X127714285Y-51034819D01*
X127476190Y-49987200D02*
X127238095Y-50701485D01*
X127238095Y-50701485D02*
X127857142Y-50701485D01*
X128666666Y-50368152D02*
X128666666Y-51034819D01*
X128428571Y-49987200D02*
X128190476Y-50701485D01*
X128190476Y-50701485D02*
X128809523Y-50701485D01*
X94083333Y-86824819D02*
X93750000Y-86348628D01*
X93511905Y-86824819D02*
X93511905Y-85824819D01*
X93511905Y-85824819D02*
X93892857Y-85824819D01*
X93892857Y-85824819D02*
X93988095Y-85872438D01*
X93988095Y-85872438D02*
X94035714Y-85920057D01*
X94035714Y-85920057D02*
X94083333Y-86015295D01*
X94083333Y-86015295D02*
X94083333Y-86158152D01*
X94083333Y-86158152D02*
X94035714Y-86253390D01*
X94035714Y-86253390D02*
X93988095Y-86301009D01*
X93988095Y-86301009D02*
X93892857Y-86348628D01*
X93892857Y-86348628D02*
X93511905Y-86348628D01*
X94416667Y-85824819D02*
X95035714Y-85824819D01*
X95035714Y-85824819D02*
X94702381Y-86205771D01*
X94702381Y-86205771D02*
X94845238Y-86205771D01*
X94845238Y-86205771D02*
X94940476Y-86253390D01*
X94940476Y-86253390D02*
X94988095Y-86301009D01*
X94988095Y-86301009D02*
X95035714Y-86396247D01*
X95035714Y-86396247D02*
X95035714Y-86634342D01*
X95035714Y-86634342D02*
X94988095Y-86729580D01*
X94988095Y-86729580D02*
X94940476Y-86777200D01*
X94940476Y-86777200D02*
X94845238Y-86824819D01*
X94845238Y-86824819D02*
X94559524Y-86824819D01*
X94559524Y-86824819D02*
X94464286Y-86777200D01*
X94464286Y-86777200D02*
X94416667Y-86729580D01*
X131738095Y-114124819D02*
X132309523Y-114124819D01*
X132023809Y-115124819D02*
X132023809Y-114124819D01*
X132547619Y-114124819D02*
X133166666Y-114124819D01*
X133166666Y-114124819D02*
X132833333Y-114505771D01*
X132833333Y-114505771D02*
X132976190Y-114505771D01*
X132976190Y-114505771D02*
X133071428Y-114553390D01*
X133071428Y-114553390D02*
X133119047Y-114601009D01*
X133119047Y-114601009D02*
X133166666Y-114696247D01*
X133166666Y-114696247D02*
X133166666Y-114934342D01*
X133166666Y-114934342D02*
X133119047Y-115029580D01*
X133119047Y-115029580D02*
X133071428Y-115077200D01*
X133071428Y-115077200D02*
X132976190Y-115124819D01*
X132976190Y-115124819D02*
X132690476Y-115124819D01*
X132690476Y-115124819D02*
X132595238Y-115077200D01*
X132595238Y-115077200D02*
X132547619Y-115029580D01*
X90331009Y-108430952D02*
X90378628Y-108288095D01*
X90378628Y-108288095D02*
X90426247Y-108240476D01*
X90426247Y-108240476D02*
X90521485Y-108192857D01*
X90521485Y-108192857D02*
X90664342Y-108192857D01*
X90664342Y-108192857D02*
X90759580Y-108240476D01*
X90759580Y-108240476D02*
X90807200Y-108288095D01*
X90807200Y-108288095D02*
X90854819Y-108383333D01*
X90854819Y-108383333D02*
X90854819Y-108764285D01*
X90854819Y-108764285D02*
X89854819Y-108764285D01*
X89854819Y-108764285D02*
X89854819Y-108430952D01*
X89854819Y-108430952D02*
X89902438Y-108335714D01*
X89902438Y-108335714D02*
X89950057Y-108288095D01*
X89950057Y-108288095D02*
X90045295Y-108240476D01*
X90045295Y-108240476D02*
X90140533Y-108240476D01*
X90140533Y-108240476D02*
X90235771Y-108288095D01*
X90235771Y-108288095D02*
X90283390Y-108335714D01*
X90283390Y-108335714D02*
X90331009Y-108430952D01*
X90331009Y-108430952D02*
X90331009Y-108764285D01*
X89854819Y-107859523D02*
X89854819Y-107192857D01*
X89854819Y-107192857D02*
X90854819Y-107859523D01*
X90854819Y-107859523D02*
X90854819Y-107192857D01*
X90854819Y-106288095D02*
X90854819Y-106859523D01*
X90854819Y-106573809D02*
X89854819Y-106573809D01*
X89854819Y-106573809D02*
X89997676Y-106669047D01*
X89997676Y-106669047D02*
X90092914Y-106764285D01*
X90092914Y-106764285D02*
X90140533Y-106859523D01*
X95133866Y-111740951D02*
X95133866Y-110979047D01*
X95514819Y-111359999D02*
X94752914Y-111359999D01*
X91454819Y-53511904D02*
X92264342Y-53511904D01*
X92264342Y-53511904D02*
X92359580Y-53464285D01*
X92359580Y-53464285D02*
X92407200Y-53416666D01*
X92407200Y-53416666D02*
X92454819Y-53321428D01*
X92454819Y-53321428D02*
X92454819Y-53130952D01*
X92454819Y-53130952D02*
X92407200Y-53035714D01*
X92407200Y-53035714D02*
X92359580Y-52988095D01*
X92359580Y-52988095D02*
X92264342Y-52940476D01*
X92264342Y-52940476D02*
X91454819Y-52940476D01*
X91550057Y-52511904D02*
X91502438Y-52464285D01*
X91502438Y-52464285D02*
X91454819Y-52369047D01*
X91454819Y-52369047D02*
X91454819Y-52130952D01*
X91454819Y-52130952D02*
X91502438Y-52035714D01*
X91502438Y-52035714D02*
X91550057Y-51988095D01*
X91550057Y-51988095D02*
X91645295Y-51940476D01*
X91645295Y-51940476D02*
X91740533Y-51940476D01*
X91740533Y-51940476D02*
X91883390Y-51988095D01*
X91883390Y-51988095D02*
X92454819Y-52559523D01*
X92454819Y-52559523D02*
X92454819Y-51940476D01*
X91897819Y-63646904D02*
X90897819Y-63646904D01*
X90897819Y-63646904D02*
X91612104Y-63313571D01*
X91612104Y-63313571D02*
X90897819Y-62980238D01*
X90897819Y-62980238D02*
X91897819Y-62980238D01*
X91897819Y-62504047D02*
X90897819Y-62504047D01*
X90897819Y-62504047D02*
X90897819Y-62123095D01*
X90897819Y-62123095D02*
X90945438Y-62027857D01*
X90945438Y-62027857D02*
X90993057Y-61980238D01*
X90993057Y-61980238D02*
X91088295Y-61932619D01*
X91088295Y-61932619D02*
X91231152Y-61932619D01*
X91231152Y-61932619D02*
X91326390Y-61980238D01*
X91326390Y-61980238D02*
X91374009Y-62027857D01*
X91374009Y-62027857D02*
X91421628Y-62123095D01*
X91421628Y-62123095D02*
X91421628Y-62504047D01*
X90897819Y-61504047D02*
X91707342Y-61504047D01*
X91707342Y-61504047D02*
X91802580Y-61456428D01*
X91802580Y-61456428D02*
X91850200Y-61408809D01*
X91850200Y-61408809D02*
X91897819Y-61313571D01*
X91897819Y-61313571D02*
X91897819Y-61123095D01*
X91897819Y-61123095D02*
X91850200Y-61027857D01*
X91850200Y-61027857D02*
X91802580Y-60980238D01*
X91802580Y-60980238D02*
X91707342Y-60932619D01*
X91707342Y-60932619D02*
X90897819Y-60932619D01*
X90897819Y-60027857D02*
X90897819Y-60218333D01*
X90897819Y-60218333D02*
X90945438Y-60313571D01*
X90945438Y-60313571D02*
X90993057Y-60361190D01*
X90993057Y-60361190D02*
X91135914Y-60456428D01*
X91135914Y-60456428D02*
X91326390Y-60504047D01*
X91326390Y-60504047D02*
X91707342Y-60504047D01*
X91707342Y-60504047D02*
X91802580Y-60456428D01*
X91802580Y-60456428D02*
X91850200Y-60408809D01*
X91850200Y-60408809D02*
X91897819Y-60313571D01*
X91897819Y-60313571D02*
X91897819Y-60123095D01*
X91897819Y-60123095D02*
X91850200Y-60027857D01*
X91850200Y-60027857D02*
X91802580Y-59980238D01*
X91802580Y-59980238D02*
X91707342Y-59932619D01*
X91707342Y-59932619D02*
X91469247Y-59932619D01*
X91469247Y-59932619D02*
X91374009Y-59980238D01*
X91374009Y-59980238D02*
X91326390Y-60027857D01*
X91326390Y-60027857D02*
X91278771Y-60123095D01*
X91278771Y-60123095D02*
X91278771Y-60313571D01*
X91278771Y-60313571D02*
X91326390Y-60408809D01*
X91326390Y-60408809D02*
X91374009Y-60456428D01*
X91374009Y-60456428D02*
X91469247Y-60504047D01*
X90897819Y-59313571D02*
X90897819Y-59218333D01*
X90897819Y-59218333D02*
X90945438Y-59123095D01*
X90945438Y-59123095D02*
X90993057Y-59075476D01*
X90993057Y-59075476D02*
X91088295Y-59027857D01*
X91088295Y-59027857D02*
X91278771Y-58980238D01*
X91278771Y-58980238D02*
X91516866Y-58980238D01*
X91516866Y-58980238D02*
X91707342Y-59027857D01*
X91707342Y-59027857D02*
X91802580Y-59075476D01*
X91802580Y-59075476D02*
X91850200Y-59123095D01*
X91850200Y-59123095D02*
X91897819Y-59218333D01*
X91897819Y-59218333D02*
X91897819Y-59313571D01*
X91897819Y-59313571D02*
X91850200Y-59408809D01*
X91850200Y-59408809D02*
X91802580Y-59456428D01*
X91802580Y-59456428D02*
X91707342Y-59504047D01*
X91707342Y-59504047D02*
X91516866Y-59551666D01*
X91516866Y-59551666D02*
X91278771Y-59551666D01*
X91278771Y-59551666D02*
X91088295Y-59504047D01*
X91088295Y-59504047D02*
X90993057Y-59456428D01*
X90993057Y-59456428D02*
X90945438Y-59408809D01*
X90945438Y-59408809D02*
X90897819Y-59313571D01*
X90897819Y-58075476D02*
X90897819Y-58551666D01*
X90897819Y-58551666D02*
X91374009Y-58599285D01*
X91374009Y-58599285D02*
X91326390Y-58551666D01*
X91326390Y-58551666D02*
X91278771Y-58456428D01*
X91278771Y-58456428D02*
X91278771Y-58218333D01*
X91278771Y-58218333D02*
X91326390Y-58123095D01*
X91326390Y-58123095D02*
X91374009Y-58075476D01*
X91374009Y-58075476D02*
X91469247Y-58027857D01*
X91469247Y-58027857D02*
X91707342Y-58027857D01*
X91707342Y-58027857D02*
X91802580Y-58075476D01*
X91802580Y-58075476D02*
X91850200Y-58123095D01*
X91850200Y-58123095D02*
X91897819Y-58218333D01*
X91897819Y-58218333D02*
X91897819Y-58456428D01*
X91897819Y-58456428D02*
X91850200Y-58551666D01*
X91850200Y-58551666D02*
X91802580Y-58599285D01*
X90897819Y-57408809D02*
X90897819Y-57313571D01*
X90897819Y-57313571D02*
X90945438Y-57218333D01*
X90945438Y-57218333D02*
X90993057Y-57170714D01*
X90993057Y-57170714D02*
X91088295Y-57123095D01*
X91088295Y-57123095D02*
X91278771Y-57075476D01*
X91278771Y-57075476D02*
X91516866Y-57075476D01*
X91516866Y-57075476D02*
X91707342Y-57123095D01*
X91707342Y-57123095D02*
X91802580Y-57170714D01*
X91802580Y-57170714D02*
X91850200Y-57218333D01*
X91850200Y-57218333D02*
X91897819Y-57313571D01*
X91897819Y-57313571D02*
X91897819Y-57408809D01*
X91897819Y-57408809D02*
X91850200Y-57504047D01*
X91850200Y-57504047D02*
X91802580Y-57551666D01*
X91802580Y-57551666D02*
X91707342Y-57599285D01*
X91707342Y-57599285D02*
X91516866Y-57646904D01*
X91516866Y-57646904D02*
X91278771Y-57646904D01*
X91278771Y-57646904D02*
X91088295Y-57599285D01*
X91088295Y-57599285D02*
X90993057Y-57551666D01*
X90993057Y-57551666D02*
X90945438Y-57504047D01*
X90945438Y-57504047D02*
X90897819Y-57408809D01*
X107090200Y-57765475D02*
X107137819Y-57622618D01*
X107137819Y-57622618D02*
X107137819Y-57384523D01*
X107137819Y-57384523D02*
X107090200Y-57289285D01*
X107090200Y-57289285D02*
X107042580Y-57241666D01*
X107042580Y-57241666D02*
X106947342Y-57194047D01*
X106947342Y-57194047D02*
X106852104Y-57194047D01*
X106852104Y-57194047D02*
X106756866Y-57241666D01*
X106756866Y-57241666D02*
X106709247Y-57289285D01*
X106709247Y-57289285D02*
X106661628Y-57384523D01*
X106661628Y-57384523D02*
X106614009Y-57574999D01*
X106614009Y-57574999D02*
X106566390Y-57670237D01*
X106566390Y-57670237D02*
X106518771Y-57717856D01*
X106518771Y-57717856D02*
X106423533Y-57765475D01*
X106423533Y-57765475D02*
X106328295Y-57765475D01*
X106328295Y-57765475D02*
X106233057Y-57717856D01*
X106233057Y-57717856D02*
X106185438Y-57670237D01*
X106185438Y-57670237D02*
X106137819Y-57574999D01*
X106137819Y-57574999D02*
X106137819Y-57336904D01*
X106137819Y-57336904D02*
X106185438Y-57194047D01*
X107042580Y-56194047D02*
X107090200Y-56241666D01*
X107090200Y-56241666D02*
X107137819Y-56384523D01*
X107137819Y-56384523D02*
X107137819Y-56479761D01*
X107137819Y-56479761D02*
X107090200Y-56622618D01*
X107090200Y-56622618D02*
X106994961Y-56717856D01*
X106994961Y-56717856D02*
X106899723Y-56765475D01*
X106899723Y-56765475D02*
X106709247Y-56813094D01*
X106709247Y-56813094D02*
X106566390Y-56813094D01*
X106566390Y-56813094D02*
X106375914Y-56765475D01*
X106375914Y-56765475D02*
X106280676Y-56717856D01*
X106280676Y-56717856D02*
X106185438Y-56622618D01*
X106185438Y-56622618D02*
X106137819Y-56479761D01*
X106137819Y-56479761D02*
X106137819Y-56384523D01*
X106137819Y-56384523D02*
X106185438Y-56241666D01*
X106185438Y-56241666D02*
X106233057Y-56194047D01*
X107137819Y-55289285D02*
X107137819Y-55765475D01*
X107137819Y-55765475D02*
X106137819Y-55765475D01*
X104550200Y-57789285D02*
X104597819Y-57646428D01*
X104597819Y-57646428D02*
X104597819Y-57408333D01*
X104597819Y-57408333D02*
X104550200Y-57313095D01*
X104550200Y-57313095D02*
X104502580Y-57265476D01*
X104502580Y-57265476D02*
X104407342Y-57217857D01*
X104407342Y-57217857D02*
X104312104Y-57217857D01*
X104312104Y-57217857D02*
X104216866Y-57265476D01*
X104216866Y-57265476D02*
X104169247Y-57313095D01*
X104169247Y-57313095D02*
X104121628Y-57408333D01*
X104121628Y-57408333D02*
X104074009Y-57598809D01*
X104074009Y-57598809D02*
X104026390Y-57694047D01*
X104026390Y-57694047D02*
X103978771Y-57741666D01*
X103978771Y-57741666D02*
X103883533Y-57789285D01*
X103883533Y-57789285D02*
X103788295Y-57789285D01*
X103788295Y-57789285D02*
X103693057Y-57741666D01*
X103693057Y-57741666D02*
X103645438Y-57694047D01*
X103645438Y-57694047D02*
X103597819Y-57598809D01*
X103597819Y-57598809D02*
X103597819Y-57360714D01*
X103597819Y-57360714D02*
X103645438Y-57217857D01*
X104597819Y-56789285D02*
X103597819Y-56789285D01*
X103597819Y-56789285D02*
X103597819Y-56551190D01*
X103597819Y-56551190D02*
X103645438Y-56408333D01*
X103645438Y-56408333D02*
X103740676Y-56313095D01*
X103740676Y-56313095D02*
X103835914Y-56265476D01*
X103835914Y-56265476D02*
X104026390Y-56217857D01*
X104026390Y-56217857D02*
X104169247Y-56217857D01*
X104169247Y-56217857D02*
X104359723Y-56265476D01*
X104359723Y-56265476D02*
X104454961Y-56313095D01*
X104454961Y-56313095D02*
X104550200Y-56408333D01*
X104550200Y-56408333D02*
X104597819Y-56551190D01*
X104597819Y-56551190D02*
X104597819Y-56789285D01*
X104312104Y-55836904D02*
X104312104Y-55360714D01*
X104597819Y-55932142D02*
X103597819Y-55598809D01*
X103597819Y-55598809D02*
X104597819Y-55265476D01*
X94437819Y-57479761D02*
X93437819Y-57479761D01*
X94437819Y-57003571D02*
X93437819Y-57003571D01*
X93437819Y-57003571D02*
X94437819Y-56432143D01*
X94437819Y-56432143D02*
X93437819Y-56432143D01*
X93437819Y-56098809D02*
X93437819Y-55527381D01*
X94437819Y-55813095D02*
X93437819Y-55813095D01*
X98517819Y-57813094D02*
X99517819Y-57146428D01*
X98517819Y-57146428D02*
X99517819Y-57813094D01*
X99422580Y-56194047D02*
X99470200Y-56241666D01*
X99470200Y-56241666D02*
X99517819Y-56384523D01*
X99517819Y-56384523D02*
X99517819Y-56479761D01*
X99517819Y-56479761D02*
X99470200Y-56622618D01*
X99470200Y-56622618D02*
X99374961Y-56717856D01*
X99374961Y-56717856D02*
X99279723Y-56765475D01*
X99279723Y-56765475D02*
X99089247Y-56813094D01*
X99089247Y-56813094D02*
X98946390Y-56813094D01*
X98946390Y-56813094D02*
X98755914Y-56765475D01*
X98755914Y-56765475D02*
X98660676Y-56717856D01*
X98660676Y-56717856D02*
X98565438Y-56622618D01*
X98565438Y-56622618D02*
X98517819Y-56479761D01*
X98517819Y-56479761D02*
X98517819Y-56384523D01*
X98517819Y-56384523D02*
X98565438Y-56241666D01*
X98565438Y-56241666D02*
X98613057Y-56194047D01*
X99517819Y-55289285D02*
X99517819Y-55765475D01*
X99517819Y-55765475D02*
X98517819Y-55765475D01*
X101057819Y-57836904D02*
X102057819Y-57170238D01*
X101057819Y-57170238D02*
X102057819Y-57836904D01*
X102057819Y-56789285D02*
X101057819Y-56789285D01*
X101057819Y-56789285D02*
X101057819Y-56551190D01*
X101057819Y-56551190D02*
X101105438Y-56408333D01*
X101105438Y-56408333D02*
X101200676Y-56313095D01*
X101200676Y-56313095D02*
X101295914Y-56265476D01*
X101295914Y-56265476D02*
X101486390Y-56217857D01*
X101486390Y-56217857D02*
X101629247Y-56217857D01*
X101629247Y-56217857D02*
X101819723Y-56265476D01*
X101819723Y-56265476D02*
X101914961Y-56313095D01*
X101914961Y-56313095D02*
X102010200Y-56408333D01*
X102010200Y-56408333D02*
X102057819Y-56551190D01*
X102057819Y-56551190D02*
X102057819Y-56789285D01*
X101772104Y-55836904D02*
X101772104Y-55360714D01*
X102057819Y-55932142D02*
X101057819Y-55598809D01*
X101057819Y-55598809D02*
X102057819Y-55265476D01*
X111217819Y-57908332D02*
X112217819Y-57574999D01*
X112217819Y-57574999D02*
X111217819Y-57241666D01*
X112122580Y-56336904D02*
X112170200Y-56384523D01*
X112170200Y-56384523D02*
X112217819Y-56527380D01*
X112217819Y-56527380D02*
X112217819Y-56622618D01*
X112217819Y-56622618D02*
X112170200Y-56765475D01*
X112170200Y-56765475D02*
X112074961Y-56860713D01*
X112074961Y-56860713D02*
X111979723Y-56908332D01*
X111979723Y-56908332D02*
X111789247Y-56955951D01*
X111789247Y-56955951D02*
X111646390Y-56955951D01*
X111646390Y-56955951D02*
X111455914Y-56908332D01*
X111455914Y-56908332D02*
X111360676Y-56860713D01*
X111360676Y-56860713D02*
X111265438Y-56765475D01*
X111265438Y-56765475D02*
X111217819Y-56622618D01*
X111217819Y-56622618D02*
X111217819Y-56527380D01*
X111217819Y-56527380D02*
X111265438Y-56384523D01*
X111265438Y-56384523D02*
X111313057Y-56336904D01*
X112122580Y-55336904D02*
X112170200Y-55384523D01*
X112170200Y-55384523D02*
X112217819Y-55527380D01*
X112217819Y-55527380D02*
X112217819Y-55622618D01*
X112217819Y-55622618D02*
X112170200Y-55765475D01*
X112170200Y-55765475D02*
X112074961Y-55860713D01*
X112074961Y-55860713D02*
X111979723Y-55908332D01*
X111979723Y-55908332D02*
X111789247Y-55955951D01*
X111789247Y-55955951D02*
X111646390Y-55955951D01*
X111646390Y-55955951D02*
X111455914Y-55908332D01*
X111455914Y-55908332D02*
X111360676Y-55860713D01*
X111360676Y-55860713D02*
X111265438Y-55765475D01*
X111265438Y-55765475D02*
X111217819Y-55622618D01*
X111217819Y-55622618D02*
X111217819Y-55527380D01*
X111217819Y-55527380D02*
X111265438Y-55384523D01*
X111265438Y-55384523D02*
X111313057Y-55336904D01*
X96692104Y-57813094D02*
X96692104Y-57336904D01*
X96977819Y-57908332D02*
X95977819Y-57574999D01*
X95977819Y-57574999D02*
X96977819Y-57241666D01*
X96977819Y-56908332D02*
X95977819Y-56908332D01*
X95977819Y-56908332D02*
X95977819Y-56670237D01*
X95977819Y-56670237D02*
X96025438Y-56527380D01*
X96025438Y-56527380D02*
X96120676Y-56432142D01*
X96120676Y-56432142D02*
X96215914Y-56384523D01*
X96215914Y-56384523D02*
X96406390Y-56336904D01*
X96406390Y-56336904D02*
X96549247Y-56336904D01*
X96549247Y-56336904D02*
X96739723Y-56384523D01*
X96739723Y-56384523D02*
X96834961Y-56432142D01*
X96834961Y-56432142D02*
X96930200Y-56527380D01*
X96930200Y-56527380D02*
X96977819Y-56670237D01*
X96977819Y-56670237D02*
X96977819Y-56908332D01*
X96977819Y-55908332D02*
X95977819Y-55908332D01*
X95977819Y-55908332D02*
X95977819Y-55670237D01*
X95977819Y-55670237D02*
X96025438Y-55527380D01*
X96025438Y-55527380D02*
X96120676Y-55432142D01*
X96120676Y-55432142D02*
X96215914Y-55384523D01*
X96215914Y-55384523D02*
X96406390Y-55336904D01*
X96406390Y-55336904D02*
X96549247Y-55336904D01*
X96549247Y-55336904D02*
X96739723Y-55384523D01*
X96739723Y-55384523D02*
X96834961Y-55432142D01*
X96834961Y-55432142D02*
X96930200Y-55527380D01*
X96930200Y-55527380D02*
X96977819Y-55670237D01*
X96977819Y-55670237D02*
X96977819Y-55908332D01*
X108725438Y-57336904D02*
X108677819Y-57432142D01*
X108677819Y-57432142D02*
X108677819Y-57574999D01*
X108677819Y-57574999D02*
X108725438Y-57717856D01*
X108725438Y-57717856D02*
X108820676Y-57813094D01*
X108820676Y-57813094D02*
X108915914Y-57860713D01*
X108915914Y-57860713D02*
X109106390Y-57908332D01*
X109106390Y-57908332D02*
X109249247Y-57908332D01*
X109249247Y-57908332D02*
X109439723Y-57860713D01*
X109439723Y-57860713D02*
X109534961Y-57813094D01*
X109534961Y-57813094D02*
X109630200Y-57717856D01*
X109630200Y-57717856D02*
X109677819Y-57574999D01*
X109677819Y-57574999D02*
X109677819Y-57479761D01*
X109677819Y-57479761D02*
X109630200Y-57336904D01*
X109630200Y-57336904D02*
X109582580Y-57289285D01*
X109582580Y-57289285D02*
X109249247Y-57289285D01*
X109249247Y-57289285D02*
X109249247Y-57479761D01*
X109677819Y-56860713D02*
X108677819Y-56860713D01*
X108677819Y-56860713D02*
X109677819Y-56289285D01*
X109677819Y-56289285D02*
X108677819Y-56289285D01*
X109677819Y-55813094D02*
X108677819Y-55813094D01*
X108677819Y-55813094D02*
X108677819Y-55574999D01*
X108677819Y-55574999D02*
X108725438Y-55432142D01*
X108725438Y-55432142D02*
X108820676Y-55336904D01*
X108820676Y-55336904D02*
X108915914Y-55289285D01*
X108915914Y-55289285D02*
X109106390Y-55241666D01*
X109106390Y-55241666D02*
X109249247Y-55241666D01*
X109249247Y-55241666D02*
X109439723Y-55289285D01*
X109439723Y-55289285D02*
X109534961Y-55336904D01*
X109534961Y-55336904D02*
X109630200Y-55432142D01*
X109630200Y-55432142D02*
X109677819Y-55574999D01*
X109677819Y-55574999D02*
X109677819Y-55813094D01*
X74271009Y-78611429D02*
X74318628Y-78468572D01*
X74318628Y-78468572D02*
X74366247Y-78420953D01*
X74366247Y-78420953D02*
X74461485Y-78373334D01*
X74461485Y-78373334D02*
X74604342Y-78373334D01*
X74604342Y-78373334D02*
X74699580Y-78420953D01*
X74699580Y-78420953D02*
X74747200Y-78468572D01*
X74747200Y-78468572D02*
X74794819Y-78563810D01*
X74794819Y-78563810D02*
X74794819Y-78944762D01*
X74794819Y-78944762D02*
X73794819Y-78944762D01*
X73794819Y-78944762D02*
X73794819Y-78611429D01*
X73794819Y-78611429D02*
X73842438Y-78516191D01*
X73842438Y-78516191D02*
X73890057Y-78468572D01*
X73890057Y-78468572D02*
X73985295Y-78420953D01*
X73985295Y-78420953D02*
X74080533Y-78420953D01*
X74080533Y-78420953D02*
X74175771Y-78468572D01*
X74175771Y-78468572D02*
X74223390Y-78516191D01*
X74223390Y-78516191D02*
X74271009Y-78611429D01*
X74271009Y-78611429D02*
X74271009Y-78944762D01*
X74794819Y-77516191D02*
X74271009Y-77516191D01*
X74271009Y-77516191D02*
X74175771Y-77563810D01*
X74175771Y-77563810D02*
X74128152Y-77659048D01*
X74128152Y-77659048D02*
X74128152Y-77849524D01*
X74128152Y-77849524D02*
X74175771Y-77944762D01*
X74747200Y-77516191D02*
X74794819Y-77611429D01*
X74794819Y-77611429D02*
X74794819Y-77849524D01*
X74794819Y-77849524D02*
X74747200Y-77944762D01*
X74747200Y-77944762D02*
X74651961Y-77992381D01*
X74651961Y-77992381D02*
X74556723Y-77992381D01*
X74556723Y-77992381D02*
X74461485Y-77944762D01*
X74461485Y-77944762D02*
X74413866Y-77849524D01*
X74413866Y-77849524D02*
X74413866Y-77611429D01*
X74413866Y-77611429D02*
X74366247Y-77516191D01*
X74128152Y-77182857D02*
X74128152Y-76801905D01*
X73794819Y-77040000D02*
X74651961Y-77040000D01*
X74651961Y-77040000D02*
X74747200Y-76992381D01*
X74747200Y-76992381D02*
X74794819Y-76897143D01*
X74794819Y-76897143D02*
X74794819Y-76801905D01*
X74128152Y-76611428D02*
X74128152Y-76230476D01*
X73794819Y-76468571D02*
X74651961Y-76468571D01*
X74651961Y-76468571D02*
X74747200Y-76420952D01*
X74747200Y-76420952D02*
X74794819Y-76325714D01*
X74794819Y-76325714D02*
X74794819Y-76230476D01*
X74747200Y-75516190D02*
X74794819Y-75611428D01*
X74794819Y-75611428D02*
X74794819Y-75801904D01*
X74794819Y-75801904D02*
X74747200Y-75897142D01*
X74747200Y-75897142D02*
X74651961Y-75944761D01*
X74651961Y-75944761D02*
X74271009Y-75944761D01*
X74271009Y-75944761D02*
X74175771Y-75897142D01*
X74175771Y-75897142D02*
X74128152Y-75801904D01*
X74128152Y-75801904D02*
X74128152Y-75611428D01*
X74128152Y-75611428D02*
X74175771Y-75516190D01*
X74175771Y-75516190D02*
X74271009Y-75468571D01*
X74271009Y-75468571D02*
X74366247Y-75468571D01*
X74366247Y-75468571D02*
X74461485Y-75944761D01*
X74794819Y-75039999D02*
X74128152Y-75039999D01*
X74318628Y-75039999D02*
X74223390Y-74992380D01*
X74223390Y-74992380D02*
X74175771Y-74944761D01*
X74175771Y-74944761D02*
X74128152Y-74849523D01*
X74128152Y-74849523D02*
X74128152Y-74754285D01*
X74128152Y-74516189D02*
X74794819Y-74278094D01*
X74128152Y-74039999D02*
X74794819Y-74278094D01*
X74794819Y-74278094D02*
X75032914Y-74373332D01*
X75032914Y-74373332D02*
X75080533Y-74420951D01*
X75080533Y-74420951D02*
X75128152Y-74516189D01*
X97238095Y-99704819D02*
X97238095Y-100514342D01*
X97238095Y-100514342D02*
X97285714Y-100609580D01*
X97285714Y-100609580D02*
X97333333Y-100657200D01*
X97333333Y-100657200D02*
X97428571Y-100704819D01*
X97428571Y-100704819D02*
X97619047Y-100704819D01*
X97619047Y-100704819D02*
X97714285Y-100657200D01*
X97714285Y-100657200D02*
X97761904Y-100609580D01*
X97761904Y-100609580D02*
X97809523Y-100514342D01*
X97809523Y-100514342D02*
X97809523Y-99704819D01*
X98761904Y-99704819D02*
X98285714Y-99704819D01*
X98285714Y-99704819D02*
X98238095Y-100181009D01*
X98238095Y-100181009D02*
X98285714Y-100133390D01*
X98285714Y-100133390D02*
X98380952Y-100085771D01*
X98380952Y-100085771D02*
X98619047Y-100085771D01*
X98619047Y-100085771D02*
X98714285Y-100133390D01*
X98714285Y-100133390D02*
X98761904Y-100181009D01*
X98761904Y-100181009D02*
X98809523Y-100276247D01*
X98809523Y-100276247D02*
X98809523Y-100514342D01*
X98809523Y-100514342D02*
X98761904Y-100609580D01*
X98761904Y-100609580D02*
X98714285Y-100657200D01*
X98714285Y-100657200D02*
X98619047Y-100704819D01*
X98619047Y-100704819D02*
X98380952Y-100704819D01*
X98380952Y-100704819D02*
X98285714Y-100657200D01*
X98285714Y-100657200D02*
X98238095Y-100609580D01*
X136857142Y-50769580D02*
X136809523Y-50817200D01*
X136809523Y-50817200D02*
X136666666Y-50864819D01*
X136666666Y-50864819D02*
X136571428Y-50864819D01*
X136571428Y-50864819D02*
X136428571Y-50817200D01*
X136428571Y-50817200D02*
X136333333Y-50721961D01*
X136333333Y-50721961D02*
X136285714Y-50626723D01*
X136285714Y-50626723D02*
X136238095Y-50436247D01*
X136238095Y-50436247D02*
X136238095Y-50293390D01*
X136238095Y-50293390D02*
X136285714Y-50102914D01*
X136285714Y-50102914D02*
X136333333Y-50007676D01*
X136333333Y-50007676D02*
X136428571Y-49912438D01*
X136428571Y-49912438D02*
X136571428Y-49864819D01*
X136571428Y-49864819D02*
X136666666Y-49864819D01*
X136666666Y-49864819D02*
X136809523Y-49912438D01*
X136809523Y-49912438D02*
X136857142Y-49960057D01*
X137238095Y-49960057D02*
X137285714Y-49912438D01*
X137285714Y-49912438D02*
X137380952Y-49864819D01*
X137380952Y-49864819D02*
X137619047Y-49864819D01*
X137619047Y-49864819D02*
X137714285Y-49912438D01*
X137714285Y-49912438D02*
X137761904Y-49960057D01*
X137761904Y-49960057D02*
X137809523Y-50055295D01*
X137809523Y-50055295D02*
X137809523Y-50150533D01*
X137809523Y-50150533D02*
X137761904Y-50293390D01*
X137761904Y-50293390D02*
X137190476Y-50864819D01*
X137190476Y-50864819D02*
X137809523Y-50864819D01*
X138190476Y-49960057D02*
X138238095Y-49912438D01*
X138238095Y-49912438D02*
X138333333Y-49864819D01*
X138333333Y-49864819D02*
X138571428Y-49864819D01*
X138571428Y-49864819D02*
X138666666Y-49912438D01*
X138666666Y-49912438D02*
X138714285Y-49960057D01*
X138714285Y-49960057D02*
X138761904Y-50055295D01*
X138761904Y-50055295D02*
X138761904Y-50150533D01*
X138761904Y-50150533D02*
X138714285Y-50293390D01*
X138714285Y-50293390D02*
X138142857Y-50864819D01*
X138142857Y-50864819D02*
X138761904Y-50864819D01*
X96738095Y-49864819D02*
X97309523Y-49864819D01*
X97023809Y-50864819D02*
X97023809Y-49864819D01*
X98071428Y-49864819D02*
X97880952Y-49864819D01*
X97880952Y-49864819D02*
X97785714Y-49912438D01*
X97785714Y-49912438D02*
X97738095Y-49960057D01*
X97738095Y-49960057D02*
X97642857Y-50102914D01*
X97642857Y-50102914D02*
X97595238Y-50293390D01*
X97595238Y-50293390D02*
X97595238Y-50674342D01*
X97595238Y-50674342D02*
X97642857Y-50769580D01*
X97642857Y-50769580D02*
X97690476Y-50817200D01*
X97690476Y-50817200D02*
X97785714Y-50864819D01*
X97785714Y-50864819D02*
X97976190Y-50864819D01*
X97976190Y-50864819D02*
X98071428Y-50817200D01*
X98071428Y-50817200D02*
X98119047Y-50769580D01*
X98119047Y-50769580D02*
X98166666Y-50674342D01*
X98166666Y-50674342D02*
X98166666Y-50436247D01*
X98166666Y-50436247D02*
X98119047Y-50341009D01*
X98119047Y-50341009D02*
X98071428Y-50293390D01*
X98071428Y-50293390D02*
X97976190Y-50245771D01*
X97976190Y-50245771D02*
X97785714Y-50245771D01*
X97785714Y-50245771D02*
X97690476Y-50293390D01*
X97690476Y-50293390D02*
X97642857Y-50341009D01*
X97642857Y-50341009D02*
X97595238Y-50436247D01*
X83583333Y-96189580D02*
X83535714Y-96237200D01*
X83535714Y-96237200D02*
X83392857Y-96284819D01*
X83392857Y-96284819D02*
X83297619Y-96284819D01*
X83297619Y-96284819D02*
X83154762Y-96237200D01*
X83154762Y-96237200D02*
X83059524Y-96141961D01*
X83059524Y-96141961D02*
X83011905Y-96046723D01*
X83011905Y-96046723D02*
X82964286Y-95856247D01*
X82964286Y-95856247D02*
X82964286Y-95713390D01*
X82964286Y-95713390D02*
X83011905Y-95522914D01*
X83011905Y-95522914D02*
X83059524Y-95427676D01*
X83059524Y-95427676D02*
X83154762Y-95332438D01*
X83154762Y-95332438D02*
X83297619Y-95284819D01*
X83297619Y-95284819D02*
X83392857Y-95284819D01*
X83392857Y-95284819D02*
X83535714Y-95332438D01*
X83535714Y-95332438D02*
X83583333Y-95380057D01*
X84059524Y-96284819D02*
X84250000Y-96284819D01*
X84250000Y-96284819D02*
X84345238Y-96237200D01*
X84345238Y-96237200D02*
X84392857Y-96189580D01*
X84392857Y-96189580D02*
X84488095Y-96046723D01*
X84488095Y-96046723D02*
X84535714Y-95856247D01*
X84535714Y-95856247D02*
X84535714Y-95475295D01*
X84535714Y-95475295D02*
X84488095Y-95380057D01*
X84488095Y-95380057D02*
X84440476Y-95332438D01*
X84440476Y-95332438D02*
X84345238Y-95284819D01*
X84345238Y-95284819D02*
X84154762Y-95284819D01*
X84154762Y-95284819D02*
X84059524Y-95332438D01*
X84059524Y-95332438D02*
X84011905Y-95380057D01*
X84011905Y-95380057D02*
X83964286Y-95475295D01*
X83964286Y-95475295D02*
X83964286Y-95713390D01*
X83964286Y-95713390D02*
X84011905Y-95808628D01*
X84011905Y-95808628D02*
X84059524Y-95856247D01*
X84059524Y-95856247D02*
X84154762Y-95903866D01*
X84154762Y-95903866D02*
X84345238Y-95903866D01*
X84345238Y-95903866D02*
X84440476Y-95856247D01*
X84440476Y-95856247D02*
X84488095Y-95808628D01*
X84488095Y-95808628D02*
X84535714Y-95713390D01*
X94083333Y-82074819D02*
X93750000Y-81598628D01*
X93511905Y-82074819D02*
X93511905Y-81074819D01*
X93511905Y-81074819D02*
X93892857Y-81074819D01*
X93892857Y-81074819D02*
X93988095Y-81122438D01*
X93988095Y-81122438D02*
X94035714Y-81170057D01*
X94035714Y-81170057D02*
X94083333Y-81265295D01*
X94083333Y-81265295D02*
X94083333Y-81408152D01*
X94083333Y-81408152D02*
X94035714Y-81503390D01*
X94035714Y-81503390D02*
X93988095Y-81551009D01*
X93988095Y-81551009D02*
X93892857Y-81598628D01*
X93892857Y-81598628D02*
X93511905Y-81598628D01*
X94940476Y-81408152D02*
X94940476Y-82074819D01*
X94702381Y-81027200D02*
X94464286Y-81741485D01*
X94464286Y-81741485D02*
X95083333Y-81741485D01*
X140527595Y-67579819D02*
X140527595Y-68389342D01*
X140527595Y-68389342D02*
X140575214Y-68484580D01*
X140575214Y-68484580D02*
X140622833Y-68532200D01*
X140622833Y-68532200D02*
X140718071Y-68579819D01*
X140718071Y-68579819D02*
X140908547Y-68579819D01*
X140908547Y-68579819D02*
X141003785Y-68532200D01*
X141003785Y-68532200D02*
X141051404Y-68484580D01*
X141051404Y-68484580D02*
X141099023Y-68389342D01*
X141099023Y-68389342D02*
X141099023Y-67579819D01*
X141479976Y-67579819D02*
X142099023Y-67579819D01*
X142099023Y-67579819D02*
X141765690Y-67960771D01*
X141765690Y-67960771D02*
X141908547Y-67960771D01*
X141908547Y-67960771D02*
X142003785Y-68008390D01*
X142003785Y-68008390D02*
X142051404Y-68056009D01*
X142051404Y-68056009D02*
X142099023Y-68151247D01*
X142099023Y-68151247D02*
X142099023Y-68389342D01*
X142099023Y-68389342D02*
X142051404Y-68484580D01*
X142051404Y-68484580D02*
X142003785Y-68532200D01*
X142003785Y-68532200D02*
X141908547Y-68579819D01*
X141908547Y-68579819D02*
X141622833Y-68579819D01*
X141622833Y-68579819D02*
X141527595Y-68532200D01*
X141527595Y-68532200D02*
X141479976Y-68484580D01*
X121170451Y-59913152D02*
X121170451Y-60579819D01*
X121170451Y-60008390D02*
X121218070Y-59960771D01*
X121218070Y-59960771D02*
X121313308Y-59913152D01*
X121313308Y-59913152D02*
X121456165Y-59913152D01*
X121456165Y-59913152D02*
X121551403Y-59960771D01*
X121551403Y-59960771D02*
X121599022Y-60056009D01*
X121599022Y-60056009D02*
X121599022Y-60579819D01*
X122646641Y-60579819D02*
X122313308Y-60103628D01*
X122075213Y-60579819D02*
X122075213Y-59579819D01*
X122075213Y-59579819D02*
X122456165Y-59579819D01*
X122456165Y-59579819D02*
X122551403Y-59627438D01*
X122551403Y-59627438D02*
X122599022Y-59675057D01*
X122599022Y-59675057D02*
X122646641Y-59770295D01*
X122646641Y-59770295D02*
X122646641Y-59913152D01*
X122646641Y-59913152D02*
X122599022Y-60008390D01*
X122599022Y-60008390D02*
X122551403Y-60056009D01*
X122551403Y-60056009D02*
X122456165Y-60103628D01*
X122456165Y-60103628D02*
X122075213Y-60103628D01*
X123408546Y-60056009D02*
X123075213Y-60056009D01*
X123075213Y-60579819D02*
X123075213Y-59579819D01*
X123075213Y-59579819D02*
X123551403Y-59579819D01*
X123884737Y-59675057D02*
X123932356Y-59627438D01*
X123932356Y-59627438D02*
X124027594Y-59579819D01*
X124027594Y-59579819D02*
X124265689Y-59579819D01*
X124265689Y-59579819D02*
X124360927Y-59627438D01*
X124360927Y-59627438D02*
X124408546Y-59675057D01*
X124408546Y-59675057D02*
X124456165Y-59770295D01*
X124456165Y-59770295D02*
X124456165Y-59865533D01*
X124456165Y-59865533D02*
X124408546Y-60008390D01*
X124408546Y-60008390D02*
X123837118Y-60579819D01*
X123837118Y-60579819D02*
X124456165Y-60579819D01*
X125313308Y-59913152D02*
X125313308Y-60579819D01*
X125075213Y-59532200D02*
X124837118Y-60246485D01*
X124837118Y-60246485D02*
X125456165Y-60246485D01*
X126313308Y-60579819D02*
X125837118Y-60579819D01*
X125837118Y-60579819D02*
X125837118Y-59579819D01*
X126837118Y-59579819D02*
X126932356Y-59579819D01*
X126932356Y-59579819D02*
X127027594Y-59627438D01*
X127027594Y-59627438D02*
X127075213Y-59675057D01*
X127075213Y-59675057D02*
X127122832Y-59770295D01*
X127122832Y-59770295D02*
X127170451Y-59960771D01*
X127170451Y-59960771D02*
X127170451Y-60198866D01*
X127170451Y-60198866D02*
X127122832Y-60389342D01*
X127122832Y-60389342D02*
X127075213Y-60484580D01*
X127075213Y-60484580D02*
X127027594Y-60532200D01*
X127027594Y-60532200D02*
X126932356Y-60579819D01*
X126932356Y-60579819D02*
X126837118Y-60579819D01*
X126837118Y-60579819D02*
X126741880Y-60532200D01*
X126741880Y-60532200D02*
X126694261Y-60484580D01*
X126694261Y-60484580D02*
X126646642Y-60389342D01*
X126646642Y-60389342D02*
X126599023Y-60198866D01*
X126599023Y-60198866D02*
X126599023Y-59960771D01*
X126599023Y-59960771D02*
X126646642Y-59770295D01*
X126646642Y-59770295D02*
X126694261Y-59675057D01*
X126694261Y-59675057D02*
X126741880Y-59627438D01*
X126741880Y-59627438D02*
X126837118Y-59579819D01*
X128122832Y-60579819D02*
X127551404Y-60579819D01*
X127837118Y-60579819D02*
X127837118Y-59579819D01*
X127837118Y-59579819D02*
X127741880Y-59722676D01*
X127741880Y-59722676D02*
X127646642Y-59817914D01*
X127646642Y-59817914D02*
X127551404Y-59865533D01*
X128313309Y-60675057D02*
X129075213Y-60675057D01*
X129646642Y-60056009D02*
X129789499Y-60103628D01*
X129789499Y-60103628D02*
X129837118Y-60151247D01*
X129837118Y-60151247D02*
X129884737Y-60246485D01*
X129884737Y-60246485D02*
X129884737Y-60389342D01*
X129884737Y-60389342D02*
X129837118Y-60484580D01*
X129837118Y-60484580D02*
X129789499Y-60532200D01*
X129789499Y-60532200D02*
X129694261Y-60579819D01*
X129694261Y-60579819D02*
X129313309Y-60579819D01*
X129313309Y-60579819D02*
X129313309Y-59579819D01*
X129313309Y-59579819D02*
X129646642Y-59579819D01*
X129646642Y-59579819D02*
X129741880Y-59627438D01*
X129741880Y-59627438D02*
X129789499Y-59675057D01*
X129789499Y-59675057D02*
X129837118Y-59770295D01*
X129837118Y-59770295D02*
X129837118Y-59865533D01*
X129837118Y-59865533D02*
X129789499Y-59960771D01*
X129789499Y-59960771D02*
X129741880Y-60008390D01*
X129741880Y-60008390D02*
X129646642Y-60056009D01*
X129646642Y-60056009D02*
X129313309Y-60056009D01*
X130313309Y-60579819D02*
X130313309Y-59913152D01*
X130313309Y-60103628D02*
X130360928Y-60008390D01*
X130360928Y-60008390D02*
X130408547Y-59960771D01*
X130408547Y-59960771D02*
X130503785Y-59913152D01*
X130503785Y-59913152D02*
X130599023Y-59913152D01*
X131313309Y-60532200D02*
X131218071Y-60579819D01*
X131218071Y-60579819D02*
X131027595Y-60579819D01*
X131027595Y-60579819D02*
X130932357Y-60532200D01*
X130932357Y-60532200D02*
X130884738Y-60436961D01*
X130884738Y-60436961D02*
X130884738Y-60056009D01*
X130884738Y-60056009D02*
X130932357Y-59960771D01*
X130932357Y-59960771D02*
X131027595Y-59913152D01*
X131027595Y-59913152D02*
X131218071Y-59913152D01*
X131218071Y-59913152D02*
X131313309Y-59960771D01*
X131313309Y-59960771D02*
X131360928Y-60056009D01*
X131360928Y-60056009D02*
X131360928Y-60151247D01*
X131360928Y-60151247D02*
X130884738Y-60246485D01*
X132218071Y-60579819D02*
X132218071Y-60056009D01*
X132218071Y-60056009D02*
X132170452Y-59960771D01*
X132170452Y-59960771D02*
X132075214Y-59913152D01*
X132075214Y-59913152D02*
X131884738Y-59913152D01*
X131884738Y-59913152D02*
X131789500Y-59960771D01*
X132218071Y-60532200D02*
X132122833Y-60579819D01*
X132122833Y-60579819D02*
X131884738Y-60579819D01*
X131884738Y-60579819D02*
X131789500Y-60532200D01*
X131789500Y-60532200D02*
X131741881Y-60436961D01*
X131741881Y-60436961D02*
X131741881Y-60341723D01*
X131741881Y-60341723D02*
X131789500Y-60246485D01*
X131789500Y-60246485D02*
X131884738Y-60198866D01*
X131884738Y-60198866D02*
X132122833Y-60198866D01*
X132122833Y-60198866D02*
X132218071Y-60151247D01*
X132694262Y-60579819D02*
X132694262Y-59579819D01*
X132789500Y-60198866D02*
X133075214Y-60579819D01*
X133075214Y-59913152D02*
X132694262Y-60294104D01*
X133646643Y-60579819D02*
X133551405Y-60532200D01*
X133551405Y-60532200D02*
X133503786Y-60484580D01*
X133503786Y-60484580D02*
X133456167Y-60389342D01*
X133456167Y-60389342D02*
X133456167Y-60103628D01*
X133456167Y-60103628D02*
X133503786Y-60008390D01*
X133503786Y-60008390D02*
X133551405Y-59960771D01*
X133551405Y-59960771D02*
X133646643Y-59913152D01*
X133646643Y-59913152D02*
X133789500Y-59913152D01*
X133789500Y-59913152D02*
X133884738Y-59960771D01*
X133884738Y-59960771D02*
X133932357Y-60008390D01*
X133932357Y-60008390D02*
X133979976Y-60103628D01*
X133979976Y-60103628D02*
X133979976Y-60389342D01*
X133979976Y-60389342D02*
X133932357Y-60484580D01*
X133932357Y-60484580D02*
X133884738Y-60532200D01*
X133884738Y-60532200D02*
X133789500Y-60579819D01*
X133789500Y-60579819D02*
X133646643Y-60579819D01*
X134837119Y-59913152D02*
X134837119Y-60579819D01*
X134408548Y-59913152D02*
X134408548Y-60436961D01*
X134408548Y-60436961D02*
X134456167Y-60532200D01*
X134456167Y-60532200D02*
X134551405Y-60579819D01*
X134551405Y-60579819D02*
X134694262Y-60579819D01*
X134694262Y-60579819D02*
X134789500Y-60532200D01*
X134789500Y-60532200D02*
X134837119Y-60484580D01*
X135170453Y-59913152D02*
X135551405Y-59913152D01*
X135313310Y-59579819D02*
X135313310Y-60436961D01*
X135313310Y-60436961D02*
X135360929Y-60532200D01*
X135360929Y-60532200D02*
X135456167Y-60579819D01*
X135456167Y-60579819D02*
X135551405Y-60579819D01*
D12*
%TO.C,SSD1306*%
X144200000Y-109150000D02*
X116800000Y-109150000D01*
X144200000Y-81850000D02*
X144200000Y-109150000D01*
X143778000Y-105855000D02*
X120678000Y-105855000D01*
X143778000Y-89255000D02*
X143778000Y-105855000D01*
X135499000Y-108661000D02*
X135499000Y-106248000D01*
X135499000Y-108661000D02*
X125720000Y-108661000D01*
X125720000Y-108661000D02*
X125720000Y-106248000D01*
X125720000Y-106248000D02*
X135499000Y-106248000D01*
X120678000Y-105855000D02*
X117592000Y-105855000D01*
X120678000Y-89255000D02*
X143778000Y-89255000D01*
X120678000Y-89255000D02*
X117338000Y-89230000D01*
X117338000Y-105867000D02*
X117592000Y-105855000D01*
X117338000Y-89230000D02*
X117338000Y-105867000D01*
X116800000Y-109150000D02*
X116800000Y-81850000D01*
X116800000Y-81850000D02*
X144200000Y-81850000D01*
%TO.C,T4*%
X101170000Y-46810000D02*
X101170000Y-41670000D01*
X103830000Y-41670000D02*
X101170000Y-41670000D01*
X103830000Y-46810000D02*
X101170000Y-46810000D01*
X103830000Y-46810000D02*
X103830000Y-41670000D01*
X103830000Y-48080000D02*
X103830000Y-49410000D01*
X103830000Y-49410000D02*
X102500000Y-49410000D01*
%TO.C,J3*%
X75100000Y-83160000D02*
X75100000Y-83660000D01*
X75340000Y-83400000D02*
X75340000Y-93680000D01*
X75840000Y-83160000D02*
X75100000Y-83160000D01*
X75900000Y-83400000D02*
X75900000Y-93680000D01*
X77400000Y-83400000D02*
X77400000Y-93680000D01*
X78761000Y-90046000D02*
X78726000Y-90011000D01*
X78977000Y-89853000D02*
X78931000Y-89806000D01*
X81069000Y-92355000D02*
X81023000Y-92308000D01*
X81275000Y-92150000D02*
X81239000Y-92115000D01*
X82301000Y-83400000D02*
X82301000Y-93680000D01*
X85261000Y-83400000D02*
X75340000Y-83400000D01*
X85261000Y-83400000D02*
X85261000Y-93680000D01*
X85261000Y-93680000D02*
X75340000Y-93680000D01*
X78319747Y-86028805D02*
G75*
G02*
X78465000Y-85316000I1680254J28806D01*
G01*
X78465244Y-86683318D02*
G75*
G02*
X78320000Y-86000000I1534756J683318D01*
G01*
X79316958Y-84464573D02*
G75*
G02*
X80684000Y-84465000I683041J-1535420D01*
G01*
X80683042Y-87535427D02*
G75*
G02*
X79316000Y-87535000I-683042J1535427D01*
G01*
X81535427Y-85316958D02*
G75*
G02*
X81535000Y-86684000I-1535420J-683041D01*
G01*
X81680000Y-91080000D02*
G75*
G02*
X78320000Y-91080000I-1680000J0D01*
G01*
X78320000Y-91080000D02*
G75*
G02*
X81680000Y-91080000I1680000J0D01*
G01*
%TO.C,C44*%
X131170000Y-46810000D02*
X131170000Y-41670000D01*
X133830000Y-41670000D02*
X131170000Y-41670000D01*
X133830000Y-46810000D02*
X131170000Y-46810000D01*
X133830000Y-46810000D02*
X133830000Y-41670000D01*
X133830000Y-48080000D02*
X133830000Y-49410000D01*
X133830000Y-49410000D02*
X132500000Y-49410000D01*
%TO.C,U3*%
X90275000Y-70805000D02*
X88325000Y-70805000D01*
X90275000Y-70805000D02*
X92225000Y-70805000D01*
X90275000Y-75925000D02*
X88325000Y-75925000D01*
X90275000Y-75925000D02*
X92225000Y-75925000D01*
X87575000Y-70900000D02*
X87335000Y-70570000D01*
X87815000Y-70570000D01*
X87575000Y-70900000D01*
G36*
X87575000Y-70900000D02*
G01*
X87335000Y-70570000D01*
X87815000Y-70570000D01*
X87575000Y-70900000D01*
G37*
%TO.C,T2*%
X106170000Y-46810000D02*
X106170000Y-41670000D01*
X108830000Y-41670000D02*
X106170000Y-41670000D01*
X108830000Y-46810000D02*
X106170000Y-46810000D01*
X108830000Y-46810000D02*
X108830000Y-41670000D01*
X108830000Y-48080000D02*
X108830000Y-49410000D01*
X108830000Y-49410000D02*
X107500000Y-49410000D01*
%TO.C,C7*%
X95515000Y-69988748D02*
X95515000Y-70511252D01*
X96985000Y-69988748D02*
X96985000Y-70511252D01*
%TO.C,T5*%
X136170000Y-115670000D02*
X137500000Y-115670000D01*
X136170000Y-117000000D02*
X136170000Y-115670000D01*
X136170000Y-118270000D02*
X136170000Y-123410000D01*
X136170000Y-118270000D02*
X138830000Y-118270000D01*
X136170000Y-123410000D02*
X138830000Y-123410000D01*
X138830000Y-118270000D02*
X138830000Y-123410000D01*
%TO.C,C3*%
X95540000Y-74153748D02*
X95540000Y-74676252D01*
X97010000Y-74153748D02*
X97010000Y-74676252D01*
%TO.C,F1*%
X111170000Y-115670000D02*
X112500000Y-115670000D01*
X111170000Y-117000000D02*
X111170000Y-115670000D01*
X111170000Y-118270000D02*
X111170000Y-123410000D01*
X111170000Y-118270000D02*
X113830000Y-118270000D01*
X111170000Y-123410000D02*
X113830000Y-123410000D01*
X113830000Y-118270000D02*
X113830000Y-123410000D01*
%TO.C,C33*%
X101170000Y-115670000D02*
X102500000Y-115670000D01*
X101170000Y-117000000D02*
X101170000Y-115670000D01*
X101170000Y-118270000D02*
X101170000Y-123410000D01*
X101170000Y-118270000D02*
X103830000Y-118270000D01*
X101170000Y-123410000D02*
X103830000Y-123410000D01*
X103830000Y-118270000D02*
X103830000Y-123410000D01*
%TO.C,F4*%
X116170000Y-46810000D02*
X116170000Y-41670000D01*
X118830000Y-41670000D02*
X116170000Y-41670000D01*
X118830000Y-46810000D02*
X116170000Y-46810000D01*
X118830000Y-46810000D02*
X118830000Y-41670000D01*
X118830000Y-48080000D02*
X118830000Y-49410000D01*
X118830000Y-49410000D02*
X117500000Y-49410000D01*
D13*
%TO.C,U6*%
X106830000Y-102425000D02*
X109170000Y-102425000D01*
X106830000Y-111075000D02*
X109170000Y-111075000D01*
D10*
X104050000Y-102650000D02*
G75*
G02*
X103850000Y-102650000I-100000J0D01*
G01*
X103850000Y-102650000D02*
G75*
G02*
X104050000Y-102650000I100000J0D01*
G01*
D12*
%TO.C,C6*%
X107840000Y-81788748D02*
X107840000Y-83211252D01*
X109660000Y-81788748D02*
X109660000Y-83211252D01*
%TO.C,C7*%
X107540000Y-72638748D02*
X107540000Y-74061252D01*
X109360000Y-72638748D02*
X109360000Y-74061252D01*
%TO.C,C8*%
X78270354Y-60125000D02*
X79270354Y-60125000D01*
X78770354Y-59625000D02*
X78770354Y-60625000D01*
X83750000Y-57920000D02*
X83750000Y-68080000D01*
X83790000Y-57920000D02*
X83790000Y-68080000D01*
X83830000Y-57920000D02*
X83830000Y-68080000D01*
X83870000Y-57921000D02*
X83870000Y-68079000D01*
X83910000Y-57922000D02*
X83910000Y-68078000D01*
X83950000Y-57923000D02*
X83950000Y-68077000D01*
X83990000Y-57925000D02*
X83990000Y-68075000D01*
X84030000Y-57927000D02*
X84030000Y-68073000D01*
X84070000Y-57930000D02*
X84070000Y-68070000D01*
X84110000Y-57932000D02*
X84110000Y-68068000D01*
X84150000Y-57935000D02*
X84150000Y-68065000D01*
X84190000Y-57938000D02*
X84190000Y-68062000D01*
X84230000Y-57942000D02*
X84230000Y-68058000D01*
X84270000Y-57946000D02*
X84270000Y-68054000D01*
X84310000Y-57950000D02*
X84310000Y-68050000D01*
X84350000Y-57955000D02*
X84350000Y-68045000D01*
X84390000Y-57960000D02*
X84390000Y-68040000D01*
X84430000Y-57965000D02*
X84430000Y-68035000D01*
X84471000Y-57970000D02*
X84471000Y-68030000D01*
X84511000Y-57976000D02*
X84511000Y-68024000D01*
X84551000Y-57982000D02*
X84551000Y-68018000D01*
X84591000Y-57989000D02*
X84591000Y-68011000D01*
X84631000Y-57996000D02*
X84631000Y-68004000D01*
X84671000Y-58003000D02*
X84671000Y-67997000D01*
X84711000Y-58010000D02*
X84711000Y-67990000D01*
X84751000Y-58018000D02*
X84751000Y-67982000D01*
X84791000Y-58026000D02*
X84791000Y-67974000D01*
X84831000Y-58035000D02*
X84831000Y-67965000D01*
X84871000Y-58044000D02*
X84871000Y-67956000D01*
X84911000Y-58053000D02*
X84911000Y-67947000D01*
X84951000Y-58062000D02*
X84951000Y-67938000D01*
X84991000Y-58072000D02*
X84991000Y-67928000D01*
X85031000Y-58082000D02*
X85031000Y-67918000D01*
X85071000Y-58093000D02*
X85071000Y-67907000D01*
X85111000Y-58103000D02*
X85111000Y-67897000D01*
X85151000Y-58115000D02*
X85151000Y-67885000D01*
X85191000Y-58126000D02*
X85191000Y-67874000D01*
X85231000Y-58138000D02*
X85231000Y-67862000D01*
X85271000Y-58150000D02*
X85271000Y-67850000D01*
X85311000Y-58163000D02*
X85311000Y-67837000D01*
X85351000Y-58176000D02*
X85351000Y-67824000D01*
X85391000Y-58189000D02*
X85391000Y-67811000D01*
X85431000Y-58203000D02*
X85431000Y-67797000D01*
X85471000Y-58217000D02*
X85471000Y-67783000D01*
X85511000Y-58232000D02*
X85511000Y-67768000D01*
X85551000Y-58246000D02*
X85551000Y-67754000D01*
X85591000Y-58262000D02*
X85591000Y-67738000D01*
X85631000Y-58277000D02*
X85631000Y-67723000D01*
X85671000Y-58293000D02*
X85671000Y-67707000D01*
X85711000Y-58310000D02*
X85711000Y-67690000D01*
X85751000Y-58326000D02*
X85751000Y-67674000D01*
X85791000Y-58343000D02*
X85791000Y-67657000D01*
X85831000Y-58361000D02*
X85831000Y-67639000D01*
X85871000Y-58379000D02*
X85871000Y-67621000D01*
X85911000Y-58397000D02*
X85911000Y-67603000D01*
X85951000Y-58416000D02*
X85951000Y-67584000D01*
X85991000Y-58436000D02*
X85991000Y-67564000D01*
X86031000Y-58455000D02*
X86031000Y-67545000D01*
X86071000Y-58475000D02*
X86071000Y-67525000D01*
X86111000Y-58496000D02*
X86111000Y-67504000D01*
X86151000Y-58517000D02*
X86151000Y-67483000D01*
X86191000Y-58538000D02*
X86191000Y-67462000D01*
X86231000Y-58560000D02*
X86231000Y-67440000D01*
X86271000Y-58583000D02*
X86271000Y-61759000D01*
X86271000Y-64241000D02*
X86271000Y-67417000D01*
X86311000Y-58605000D02*
X86311000Y-61759000D01*
X86311000Y-64241000D02*
X86311000Y-67395000D01*
X86351000Y-58629000D02*
X86351000Y-61759000D01*
X86351000Y-64241000D02*
X86351000Y-67371000D01*
X86391000Y-58653000D02*
X86391000Y-61759000D01*
X86391000Y-64241000D02*
X86391000Y-67347000D01*
X86431000Y-58677000D02*
X86431000Y-61759000D01*
X86431000Y-64241000D02*
X86431000Y-67323000D01*
X86471000Y-58702000D02*
X86471000Y-61759000D01*
X86471000Y-64241000D02*
X86471000Y-67298000D01*
X86511000Y-58727000D02*
X86511000Y-61759000D01*
X86511000Y-64241000D02*
X86511000Y-67273000D01*
X86551000Y-58753000D02*
X86551000Y-61759000D01*
X86551000Y-64241000D02*
X86551000Y-67247000D01*
X86591000Y-58779000D02*
X86591000Y-61759000D01*
X86591000Y-64241000D02*
X86591000Y-67221000D01*
X86631000Y-58806000D02*
X86631000Y-61759000D01*
X86631000Y-64241000D02*
X86631000Y-67194000D01*
X86671000Y-58834000D02*
X86671000Y-61759000D01*
X86671000Y-64241000D02*
X86671000Y-67166000D01*
X86711000Y-58862000D02*
X86711000Y-61759000D01*
X86711000Y-64241000D02*
X86711000Y-67138000D01*
X86751000Y-58890000D02*
X86751000Y-61759000D01*
X86751000Y-64241000D02*
X86751000Y-67110000D01*
X86791000Y-58920000D02*
X86791000Y-61759000D01*
X86791000Y-64241000D02*
X86791000Y-67080000D01*
X86831000Y-58950000D02*
X86831000Y-61759000D01*
X86831000Y-64241000D02*
X86831000Y-67050000D01*
X86871000Y-58980000D02*
X86871000Y-61759000D01*
X86871000Y-64241000D02*
X86871000Y-67020000D01*
X86911000Y-59011000D02*
X86911000Y-61759000D01*
X86911000Y-64241000D02*
X86911000Y-66989000D01*
X86951000Y-59043000D02*
X86951000Y-61759000D01*
X86951000Y-64241000D02*
X86951000Y-66957000D01*
X86991000Y-59075000D02*
X86991000Y-61759000D01*
X86991000Y-64241000D02*
X86991000Y-66925000D01*
X87031000Y-59108000D02*
X87031000Y-61759000D01*
X87031000Y-64241000D02*
X87031000Y-66892000D01*
X87071000Y-59142000D02*
X87071000Y-61759000D01*
X87071000Y-64241000D02*
X87071000Y-66858000D01*
X87111000Y-59176000D02*
X87111000Y-61759000D01*
X87111000Y-64241000D02*
X87111000Y-66824000D01*
X87151000Y-59211000D02*
X87151000Y-61759000D01*
X87151000Y-64241000D02*
X87151000Y-66789000D01*
X87191000Y-59247000D02*
X87191000Y-61759000D01*
X87191000Y-64241000D02*
X87191000Y-66753000D01*
X87231000Y-59284000D02*
X87231000Y-61759000D01*
X87231000Y-64241000D02*
X87231000Y-66716000D01*
X87271000Y-59321000D02*
X87271000Y-61759000D01*
X87271000Y-64241000D02*
X87271000Y-66679000D01*
X87311000Y-59360000D02*
X87311000Y-61759000D01*
X87311000Y-64241000D02*
X87311000Y-66640000D01*
X87351000Y-59399000D02*
X87351000Y-61759000D01*
X87351000Y-64241000D02*
X87351000Y-66601000D01*
X87391000Y-59439000D02*
X87391000Y-61759000D01*
X87391000Y-64241000D02*
X87391000Y-66561000D01*
X87431000Y-59480000D02*
X87431000Y-61759000D01*
X87431000Y-64241000D02*
X87431000Y-66520000D01*
X87471000Y-59522000D02*
X87471000Y-61759000D01*
X87471000Y-64241000D02*
X87471000Y-66478000D01*
X87511000Y-59564000D02*
X87511000Y-61759000D01*
X87511000Y-64241000D02*
X87511000Y-66436000D01*
X87551000Y-59608000D02*
X87551000Y-61759000D01*
X87551000Y-64241000D02*
X87551000Y-66392000D01*
X87591000Y-59653000D02*
X87591000Y-61759000D01*
X87591000Y-64241000D02*
X87591000Y-66347000D01*
X87631000Y-59699000D02*
X87631000Y-61759000D01*
X87631000Y-64241000D02*
X87631000Y-66301000D01*
X87671000Y-59746000D02*
X87671000Y-61759000D01*
X87671000Y-64241000D02*
X87671000Y-66254000D01*
X87711000Y-59794000D02*
X87711000Y-61759000D01*
X87711000Y-64241000D02*
X87711000Y-66206000D01*
X87751000Y-59844000D02*
X87751000Y-61759000D01*
X87751000Y-64241000D02*
X87751000Y-66156000D01*
X87791000Y-59894000D02*
X87791000Y-61759000D01*
X87791000Y-64241000D02*
X87791000Y-66106000D01*
X87831000Y-59946000D02*
X87831000Y-61759000D01*
X87831000Y-64241000D02*
X87831000Y-66054000D01*
X87871000Y-60000000D02*
X87871000Y-61759000D01*
X87871000Y-64241000D02*
X87871000Y-66000000D01*
X87911000Y-60055000D02*
X87911000Y-61759000D01*
X87911000Y-64241000D02*
X87911000Y-65945000D01*
X87951000Y-60111000D02*
X87951000Y-61759000D01*
X87951000Y-64241000D02*
X87951000Y-65889000D01*
X87991000Y-60170000D02*
X87991000Y-61759000D01*
X87991000Y-64241000D02*
X87991000Y-65830000D01*
X88031000Y-60230000D02*
X88031000Y-61759000D01*
X88031000Y-64241000D02*
X88031000Y-65770000D01*
X88071000Y-60291000D02*
X88071000Y-61759000D01*
X88071000Y-64241000D02*
X88071000Y-65709000D01*
X88111000Y-60355000D02*
X88111000Y-61759000D01*
X88111000Y-64241000D02*
X88111000Y-65645000D01*
X88151000Y-60421000D02*
X88151000Y-61759000D01*
X88151000Y-64241000D02*
X88151000Y-65579000D01*
X88191000Y-60490000D02*
X88191000Y-61759000D01*
X88191000Y-64241000D02*
X88191000Y-65510000D01*
X88231000Y-60561000D02*
X88231000Y-61759000D01*
X88231000Y-64241000D02*
X88231000Y-65439000D01*
X88271000Y-60635000D02*
X88271000Y-61759000D01*
X88271000Y-64241000D02*
X88271000Y-65365000D01*
X88311000Y-60711000D02*
X88311000Y-61759000D01*
X88311000Y-64241000D02*
X88311000Y-65289000D01*
X88351000Y-60791000D02*
X88351000Y-61759000D01*
X88351000Y-64241000D02*
X88351000Y-65209000D01*
X88391000Y-60875000D02*
X88391000Y-61759000D01*
X88391000Y-64241000D02*
X88391000Y-65125000D01*
X88431000Y-60963000D02*
X88431000Y-61759000D01*
X88431000Y-64241000D02*
X88431000Y-65037000D01*
X88471000Y-61056000D02*
X88471000Y-61759000D01*
X88471000Y-64241000D02*
X88471000Y-64944000D01*
X88511000Y-61154000D02*
X88511000Y-61759000D01*
X88511000Y-64241000D02*
X88511000Y-64846000D01*
X88551000Y-61258000D02*
X88551000Y-61759000D01*
X88551000Y-64241000D02*
X88551000Y-64742000D01*
X88591000Y-61370000D02*
X88591000Y-61759000D01*
X88591000Y-64241000D02*
X88591000Y-64630000D01*
X88631000Y-61490000D02*
X88631000Y-61759000D01*
X88631000Y-64241000D02*
X88631000Y-64510000D01*
X88671000Y-61622000D02*
X88671000Y-61759000D01*
X88671000Y-64241000D02*
X88671000Y-64378000D01*
X88751000Y-61938000D02*
X88751000Y-64062000D01*
X88791000Y-62138000D02*
X88791000Y-63862000D01*
X88831000Y-62401000D02*
X88831000Y-63599000D01*
X78787460Y-61740000D02*
G75*
G02*
X78787460Y-64260000I4962540J-1260000D01*
G01*
%TO.C,D2*%
X100250000Y-79750000D02*
X100250000Y-85250000D01*
X100250000Y-79750000D02*
X107250000Y-79750000D01*
X100250000Y-85250000D02*
X106800000Y-85250000D01*
X101050000Y-83400000D02*
X101050000Y-81600000D01*
X106450000Y-83400000D02*
X106450000Y-81600000D01*
X106800000Y-85250000D02*
X107250000Y-84800000D01*
X107250000Y-84800000D02*
X107250000Y-79750000D01*
%TO.C,D1*%
X99950000Y-70600000D02*
X99950000Y-76100000D01*
X99950000Y-70600000D02*
X106950000Y-70600000D01*
X99950000Y-76100000D02*
X106500000Y-76100000D01*
X100750000Y-74250000D02*
X100750000Y-72450000D01*
X106150000Y-74250000D02*
X106150000Y-72450000D01*
X106500000Y-76100000D02*
X106950000Y-75650000D01*
X106950000Y-75650000D02*
X106950000Y-70600000D01*
D13*
%TO.C,U4*%
X148480000Y-50980000D02*
X153340000Y-50980000D01*
X148480000Y-111940000D02*
X148480000Y-50980000D01*
X153340000Y-50280000D02*
X161400000Y-50280000D01*
X153340000Y-50980000D02*
X153340000Y-50280000D01*
X161400000Y-50980000D02*
X161400000Y-50280000D01*
X166260000Y-50980000D02*
X161400000Y-50980000D01*
X166260000Y-50980000D02*
X166260000Y-111940000D01*
X166260000Y-111940000D02*
X148480000Y-111940000D01*
D10*
X147970000Y-57330000D02*
G75*
G02*
X147770000Y-57330000I-100000J0D01*
G01*
X147770000Y-57330000D02*
G75*
G02*
X147970000Y-57330000I100000J0D01*
G01*
D12*
%TO.C,F5*%
X121170000Y-115670000D02*
X122500000Y-115670000D01*
X121170000Y-117000000D02*
X121170000Y-115670000D01*
X121170000Y-118270000D02*
X121170000Y-123410000D01*
X121170000Y-118270000D02*
X123830000Y-118270000D01*
X121170000Y-123410000D02*
X123830000Y-123410000D01*
X123830000Y-118270000D02*
X123830000Y-123410000D01*
%TO.C,F3*%
X116170000Y-115670000D02*
X117500000Y-115670000D01*
X116170000Y-117000000D02*
X116170000Y-115670000D01*
X116170000Y-118270000D02*
X116170000Y-123410000D01*
X116170000Y-118270000D02*
X118830000Y-118270000D01*
X116170000Y-123410000D02*
X118830000Y-123410000D01*
X118830000Y-118270000D02*
X118830000Y-123410000D01*
%TO.C,F2*%
X121170000Y-46810000D02*
X121170000Y-41670000D01*
X123830000Y-41670000D02*
X121170000Y-41670000D01*
X123830000Y-46810000D02*
X121170000Y-46810000D01*
X123830000Y-46810000D02*
X123830000Y-41670000D01*
X123830000Y-48080000D02*
X123830000Y-49410000D01*
X123830000Y-49410000D02*
X122500000Y-49410000D01*
%TO.C,T1*%
X126170000Y-115670000D02*
X127500000Y-115670000D01*
X126170000Y-117000000D02*
X126170000Y-115670000D01*
X126170000Y-118270000D02*
X126170000Y-123410000D01*
X126170000Y-118270000D02*
X128830000Y-118270000D01*
X126170000Y-123410000D02*
X128830000Y-123410000D01*
X128830000Y-118270000D02*
X128830000Y-123410000D01*
%TO.C,F6*%
X111170000Y-46810000D02*
X111170000Y-41670000D01*
X113830000Y-41670000D02*
X111170000Y-41670000D01*
X113830000Y-46810000D02*
X111170000Y-46810000D01*
X113830000Y-46810000D02*
X113830000Y-41670000D01*
X113830000Y-48080000D02*
X113830000Y-49410000D01*
X113830000Y-49410000D02*
X112500000Y-49410000D01*
%TO.C,C1*%
X143480199Y-63805000D02*
X143880199Y-63805000D01*
X143680199Y-63605000D02*
X143680199Y-64005000D01*
X145750000Y-62920000D02*
X145750000Y-67080000D01*
X145790000Y-62920000D02*
X145790000Y-67080000D01*
X145830000Y-62921000D02*
X145830000Y-67079000D01*
X145870000Y-62923000D02*
X145870000Y-67077000D01*
X145910000Y-62926000D02*
X145910000Y-67074000D01*
X145950000Y-62929000D02*
X145950000Y-64160000D01*
X145950000Y-65840000D02*
X145950000Y-67071000D01*
X145990000Y-62933000D02*
X145990000Y-64160000D01*
X145990000Y-65840000D02*
X145990000Y-67067000D01*
X146030000Y-62938000D02*
X146030000Y-64160000D01*
X146030000Y-65840000D02*
X146030000Y-67062000D01*
X146070000Y-62944000D02*
X146070000Y-64160000D01*
X146070000Y-65840000D02*
X146070000Y-67056000D01*
X146110000Y-62950000D02*
X146110000Y-64160000D01*
X146110000Y-65840000D02*
X146110000Y-67050000D01*
X146150000Y-62958000D02*
X146150000Y-64160000D01*
X146150000Y-65840000D02*
X146150000Y-67042000D01*
X146190000Y-62966000D02*
X146190000Y-64160000D01*
X146190000Y-65840000D02*
X146190000Y-67034000D01*
X146230000Y-62975000D02*
X146230000Y-64160000D01*
X146230000Y-65840000D02*
X146230000Y-67025000D01*
X146270000Y-62984000D02*
X146270000Y-64160000D01*
X146270000Y-65840000D02*
X146270000Y-67016000D01*
X146310000Y-62995000D02*
X146310000Y-64160000D01*
X146310000Y-65840000D02*
X146310000Y-67005000D01*
X146350000Y-63006000D02*
X146350000Y-64160000D01*
X146350000Y-65840000D02*
X146350000Y-66994000D01*
X146390000Y-63018000D02*
X146390000Y-64160000D01*
X146390000Y-65840000D02*
X146390000Y-66982000D01*
X146430000Y-63032000D02*
X146430000Y-64160000D01*
X146430000Y-65840000D02*
X146430000Y-66968000D01*
X146471000Y-63046000D02*
X146471000Y-64160000D01*
X146471000Y-65840000D02*
X146471000Y-66954000D01*
X146511000Y-63060000D02*
X146511000Y-64160000D01*
X146511000Y-65840000D02*
X146511000Y-66940000D01*
X146551000Y-63076000D02*
X146551000Y-64160000D01*
X146551000Y-65840000D02*
X146551000Y-66924000D01*
X146591000Y-63093000D02*
X146591000Y-64160000D01*
X146591000Y-65840000D02*
X146591000Y-66907000D01*
X146631000Y-63111000D02*
X146631000Y-64160000D01*
X146631000Y-65840000D02*
X146631000Y-66889000D01*
X146671000Y-63130000D02*
X146671000Y-64160000D01*
X146671000Y-65840000D02*
X146671000Y-66870000D01*
X146711000Y-63149000D02*
X146711000Y-64160000D01*
X146711000Y-65840000D02*
X146711000Y-66851000D01*
X146751000Y-63170000D02*
X146751000Y-64160000D01*
X146751000Y-65840000D02*
X146751000Y-66830000D01*
X146791000Y-63192000D02*
X146791000Y-64160000D01*
X146791000Y-65840000D02*
X146791000Y-66808000D01*
X146831000Y-63215000D02*
X146831000Y-64160000D01*
X146831000Y-65840000D02*
X146831000Y-66785000D01*
X146871000Y-63240000D02*
X146871000Y-64160000D01*
X146871000Y-65840000D02*
X146871000Y-66760000D01*
X146911000Y-63265000D02*
X146911000Y-64160000D01*
X146911000Y-65840000D02*
X146911000Y-66735000D01*
X146951000Y-63292000D02*
X146951000Y-64160000D01*
X146951000Y-65840000D02*
X146951000Y-66708000D01*
X146991000Y-63320000D02*
X146991000Y-64160000D01*
X146991000Y-65840000D02*
X146991000Y-66680000D01*
X147031000Y-63350000D02*
X147031000Y-64160000D01*
X147031000Y-65840000D02*
X147031000Y-66650000D01*
X147071000Y-63381000D02*
X147071000Y-64160000D01*
X147071000Y-65840000D02*
X147071000Y-66619000D01*
X147111000Y-63413000D02*
X147111000Y-64160000D01*
X147111000Y-65840000D02*
X147111000Y-66587000D01*
X147151000Y-63448000D02*
X147151000Y-64160000D01*
X147151000Y-65840000D02*
X147151000Y-66552000D01*
X147191000Y-63484000D02*
X147191000Y-64160000D01*
X147191000Y-65840000D02*
X147191000Y-66516000D01*
X147231000Y-63522000D02*
X147231000Y-64160000D01*
X147231000Y-65840000D02*
X147231000Y-66478000D01*
X147271000Y-63562000D02*
X147271000Y-64160000D01*
X147271000Y-65840000D02*
X147271000Y-66438000D01*
X147311000Y-63604000D02*
X147311000Y-64160000D01*
X147311000Y-65840000D02*
X147311000Y-66396000D01*
X147351000Y-63649000D02*
X147351000Y-64160000D01*
X147351000Y-65840000D02*
X147351000Y-66351000D01*
X147391000Y-63696000D02*
X147391000Y-64160000D01*
X147391000Y-65840000D02*
X147391000Y-66304000D01*
X147431000Y-63746000D02*
X147431000Y-64160000D01*
X147431000Y-65840000D02*
X147431000Y-66254000D01*
X147471000Y-63800000D02*
X147471000Y-64160000D01*
X147471000Y-65840000D02*
X147471000Y-66200000D01*
X147511000Y-63858000D02*
X147511000Y-64160000D01*
X147511000Y-65840000D02*
X147511000Y-66142000D01*
X147551000Y-63920000D02*
X147551000Y-64160000D01*
X147551000Y-65840000D02*
X147551000Y-66080000D01*
X147591000Y-63987000D02*
X147591000Y-66013000D01*
X147631000Y-64060000D02*
X147631000Y-65940000D01*
X147671000Y-64141000D02*
X147671000Y-65859000D01*
X147711000Y-64232000D02*
X147711000Y-65768000D01*
X147751000Y-64336000D02*
X147751000Y-65664000D01*
X147791000Y-64463000D02*
X147791000Y-65537000D01*
X147831000Y-64630000D02*
X147831000Y-65370000D01*
X147870000Y-65000000D02*
G75*
G02*
X143630000Y-65000000I-2120000J0D01*
G01*
X143630000Y-65000000D02*
G75*
G02*
X147870000Y-65000000I2120000J0D01*
G01*
%TO.C,C55*%
X106170000Y-115670000D02*
X107500000Y-115670000D01*
X106170000Y-117000000D02*
X106170000Y-115670000D01*
X106170000Y-118270000D02*
X106170000Y-123410000D01*
X106170000Y-118270000D02*
X108830000Y-118270000D01*
X106170000Y-123410000D02*
X108830000Y-123410000D01*
X108830000Y-118270000D02*
X108830000Y-123410000D01*
%TO.C,C11*%
X96170000Y-115670000D02*
X97500000Y-115670000D01*
X96170000Y-117000000D02*
X96170000Y-115670000D01*
X96170000Y-118270000D02*
X96170000Y-123410000D01*
X96170000Y-118270000D02*
X98830000Y-118270000D01*
X96170000Y-123410000D02*
X98830000Y-123410000D01*
X98830000Y-118270000D02*
X98830000Y-123410000D01*
%TO.C,C44*%
X126170000Y-46980000D02*
X126170000Y-41840000D01*
X128830000Y-41840000D02*
X126170000Y-41840000D01*
X128830000Y-46980000D02*
X126170000Y-46980000D01*
X128830000Y-46980000D02*
X128830000Y-41840000D01*
X128830000Y-48250000D02*
X128830000Y-49580000D01*
X128830000Y-49580000D02*
X127500000Y-49580000D01*
%TO.C,R3*%
X90980000Y-82630000D02*
X90980000Y-82960000D01*
X90980000Y-85370000D02*
X90980000Y-85040000D01*
X97520000Y-82630000D02*
X90980000Y-82630000D01*
X97520000Y-82960000D02*
X97520000Y-82630000D01*
X97520000Y-85040000D02*
X97520000Y-85370000D01*
X97520000Y-85370000D02*
X90980000Y-85370000D01*
%TO.C,T3*%
X131170000Y-115670000D02*
X132500000Y-115670000D01*
X131170000Y-117000000D02*
X131170000Y-115670000D01*
X131170000Y-118270000D02*
X131170000Y-123410000D01*
X131170000Y-118270000D02*
X133830000Y-118270000D01*
X131170000Y-123410000D02*
X133830000Y-123410000D01*
X133830000Y-118270000D02*
X133830000Y-123410000D01*
%TO.C,BZ1*%
X103700000Y-107550000D02*
G75*
G02*
X91500000Y-107550000I-6100000J0D01*
G01*
X91500000Y-107550000D02*
G75*
G02*
X103700000Y-107550000I6100000J0D01*
G01*
%TO.C,U2*%
X92713000Y-51495000D02*
X113287000Y-51495000D01*
X92713000Y-68005000D02*
X92713000Y-51495000D01*
X113287000Y-51495000D02*
X113287000Y-68005000D01*
X113287000Y-68005000D02*
X92713000Y-68005000D01*
X96366832Y-65465000D02*
G75*
G02*
X93631168Y-65465000I-1367832J0D01*
G01*
X93631168Y-65465000D02*
G75*
G02*
X96366832Y-65465000I1367832J0D01*
G01*
X112368832Y-65465000D02*
G75*
G02*
X109633168Y-65465000I-1367832J0D01*
G01*
X109633168Y-65465000D02*
G75*
G02*
X112368832Y-65465000I1367832J0D01*
G01*
%TO.C,J2*%
X75100000Y-71160000D02*
X75100000Y-71660000D01*
X75340000Y-71400000D02*
X75340000Y-81680000D01*
X75840000Y-71160000D02*
X75100000Y-71160000D01*
X75900000Y-71400000D02*
X75900000Y-81680000D01*
X77400000Y-71400000D02*
X77400000Y-81680000D01*
X78761000Y-78046000D02*
X78726000Y-78011000D01*
X78977000Y-77853000D02*
X78931000Y-77806000D01*
X81069000Y-80355000D02*
X81023000Y-80308000D01*
X81275000Y-80150000D02*
X81239000Y-80115000D01*
X82301000Y-71400000D02*
X82301000Y-81680000D01*
X85261000Y-71400000D02*
X75340000Y-71400000D01*
X85261000Y-71400000D02*
X85261000Y-81680000D01*
X85261000Y-81680000D02*
X75340000Y-81680000D01*
X78319747Y-74028805D02*
G75*
G02*
X78465000Y-73316000I1680254J28806D01*
G01*
X78465244Y-74683318D02*
G75*
G02*
X78320000Y-74000000I1534756J683318D01*
G01*
X79316958Y-72464573D02*
G75*
G02*
X80684000Y-72465000I683041J-1535420D01*
G01*
X80683042Y-75535427D02*
G75*
G02*
X79316000Y-75535000I-683042J1535427D01*
G01*
X81535427Y-73316958D02*
G75*
G02*
X81535000Y-74684000I-1535420J-683041D01*
G01*
X81680000Y-79080000D02*
G75*
G02*
X78320000Y-79080000I-1680000J0D01*
G01*
X78320000Y-79080000D02*
G75*
G02*
X81680000Y-79080000I1680000J0D01*
G01*
%TO.C,U5*%
D14*
X106500000Y-99100000D02*
X89500000Y-99100000D01*
X89500000Y-88100000D01*
X106500000Y-88100000D01*
X106500000Y-99100000D01*
D12*
%TO.C,C22*%
X136170000Y-46810000D02*
X136170000Y-41670000D01*
X138830000Y-41670000D02*
X136170000Y-41670000D01*
X138830000Y-46810000D02*
X136170000Y-46810000D01*
X138830000Y-46810000D02*
X138830000Y-41670000D01*
X138830000Y-48080000D02*
X138830000Y-49410000D01*
X138830000Y-49410000D02*
X137500000Y-49410000D01*
%TO.C,T6*%
X96170000Y-46810000D02*
X96170000Y-41670000D01*
X98830000Y-41670000D02*
X96170000Y-41670000D01*
X98830000Y-46810000D02*
X96170000Y-46810000D01*
X98830000Y-46810000D02*
X98830000Y-41670000D01*
X98830000Y-48080000D02*
X98830000Y-49410000D01*
X98830000Y-49410000D02*
X97500000Y-49410000D01*
%TO.C,C9*%
X78270354Y-99205000D02*
X79270354Y-99205000D01*
X78770354Y-98705000D02*
X78770354Y-99705000D01*
X83750000Y-97000000D02*
X83750000Y-107160000D01*
X83790000Y-97000000D02*
X83790000Y-107160000D01*
X83830000Y-97000000D02*
X83830000Y-107160000D01*
X83870000Y-97001000D02*
X83870000Y-107159000D01*
X83910000Y-97002000D02*
X83910000Y-107158000D01*
X83950000Y-97003000D02*
X83950000Y-107157000D01*
X83990000Y-97005000D02*
X83990000Y-107155000D01*
X84030000Y-97007000D02*
X84030000Y-107153000D01*
X84070000Y-97010000D02*
X84070000Y-107150000D01*
X84110000Y-97012000D02*
X84110000Y-107148000D01*
X84150000Y-97015000D02*
X84150000Y-107145000D01*
X84190000Y-97018000D02*
X84190000Y-107142000D01*
X84230000Y-97022000D02*
X84230000Y-107138000D01*
X84270000Y-97026000D02*
X84270000Y-107134000D01*
X84310000Y-97030000D02*
X84310000Y-107130000D01*
X84350000Y-97035000D02*
X84350000Y-107125000D01*
X84390000Y-97040000D02*
X84390000Y-107120000D01*
X84430000Y-97045000D02*
X84430000Y-107115000D01*
X84471000Y-97050000D02*
X84471000Y-107110000D01*
X84511000Y-97056000D02*
X84511000Y-107104000D01*
X84551000Y-97062000D02*
X84551000Y-107098000D01*
X84591000Y-97069000D02*
X84591000Y-107091000D01*
X84631000Y-97076000D02*
X84631000Y-107084000D01*
X84671000Y-97083000D02*
X84671000Y-107077000D01*
X84711000Y-97090000D02*
X84711000Y-107070000D01*
X84751000Y-97098000D02*
X84751000Y-107062000D01*
X84791000Y-97106000D02*
X84791000Y-107054000D01*
X84831000Y-97115000D02*
X84831000Y-107045000D01*
X84871000Y-97124000D02*
X84871000Y-107036000D01*
X84911000Y-97133000D02*
X84911000Y-107027000D01*
X84951000Y-97142000D02*
X84951000Y-107018000D01*
X84991000Y-97152000D02*
X84991000Y-107008000D01*
X85031000Y-97162000D02*
X85031000Y-106998000D01*
X85071000Y-97173000D02*
X85071000Y-106987000D01*
X85111000Y-97183000D02*
X85111000Y-106977000D01*
X85151000Y-97195000D02*
X85151000Y-106965000D01*
X85191000Y-97206000D02*
X85191000Y-106954000D01*
X85231000Y-97218000D02*
X85231000Y-106942000D01*
X85271000Y-97230000D02*
X85271000Y-106930000D01*
X85311000Y-97243000D02*
X85311000Y-106917000D01*
X85351000Y-97256000D02*
X85351000Y-106904000D01*
X85391000Y-97269000D02*
X85391000Y-106891000D01*
X85431000Y-97283000D02*
X85431000Y-106877000D01*
X85471000Y-97297000D02*
X85471000Y-106863000D01*
X85511000Y-97312000D02*
X85511000Y-106848000D01*
X85551000Y-97326000D02*
X85551000Y-106834000D01*
X85591000Y-97342000D02*
X85591000Y-106818000D01*
X85631000Y-97357000D02*
X85631000Y-106803000D01*
X85671000Y-97373000D02*
X85671000Y-106787000D01*
X85711000Y-97390000D02*
X85711000Y-106770000D01*
X85751000Y-97406000D02*
X85751000Y-106754000D01*
X85791000Y-97423000D02*
X85791000Y-106737000D01*
X85831000Y-97441000D02*
X85831000Y-106719000D01*
X85871000Y-97459000D02*
X85871000Y-106701000D01*
X85911000Y-97477000D02*
X85911000Y-106683000D01*
X85951000Y-97496000D02*
X85951000Y-106664000D01*
X85991000Y-97516000D02*
X85991000Y-106644000D01*
X86031000Y-97535000D02*
X86031000Y-106625000D01*
X86071000Y-97555000D02*
X86071000Y-106605000D01*
X86111000Y-97576000D02*
X86111000Y-106584000D01*
X86151000Y-97597000D02*
X86151000Y-106563000D01*
X86191000Y-97618000D02*
X86191000Y-106542000D01*
X86231000Y-97640000D02*
X86231000Y-106520000D01*
X86271000Y-97663000D02*
X86271000Y-100839000D01*
X86271000Y-103321000D02*
X86271000Y-106497000D01*
X86311000Y-97685000D02*
X86311000Y-100839000D01*
X86311000Y-103321000D02*
X86311000Y-106475000D01*
X86351000Y-97709000D02*
X86351000Y-100839000D01*
X86351000Y-103321000D02*
X86351000Y-106451000D01*
X86391000Y-97733000D02*
X86391000Y-100839000D01*
X86391000Y-103321000D02*
X86391000Y-106427000D01*
X86431000Y-97757000D02*
X86431000Y-100839000D01*
X86431000Y-103321000D02*
X86431000Y-106403000D01*
X86471000Y-97782000D02*
X86471000Y-100839000D01*
X86471000Y-103321000D02*
X86471000Y-106378000D01*
X86511000Y-97807000D02*
X86511000Y-100839000D01*
X86511000Y-103321000D02*
X86511000Y-106353000D01*
X86551000Y-97833000D02*
X86551000Y-100839000D01*
X86551000Y-103321000D02*
X86551000Y-106327000D01*
X86591000Y-97859000D02*
X86591000Y-100839000D01*
X86591000Y-103321000D02*
X86591000Y-106301000D01*
X86631000Y-97886000D02*
X86631000Y-100839000D01*
X86631000Y-103321000D02*
X86631000Y-106274000D01*
X86671000Y-97914000D02*
X86671000Y-100839000D01*
X86671000Y-103321000D02*
X86671000Y-106246000D01*
X86711000Y-97942000D02*
X86711000Y-100839000D01*
X86711000Y-103321000D02*
X86711000Y-106218000D01*
X86751000Y-97970000D02*
X86751000Y-100839000D01*
X86751000Y-103321000D02*
X86751000Y-106190000D01*
X86791000Y-98000000D02*
X86791000Y-100839000D01*
X86791000Y-103321000D02*
X86791000Y-106160000D01*
X86831000Y-98030000D02*
X86831000Y-100839000D01*
X86831000Y-103321000D02*
X86831000Y-106130000D01*
X86871000Y-98060000D02*
X86871000Y-100839000D01*
X86871000Y-103321000D02*
X86871000Y-106100000D01*
X86911000Y-98091000D02*
X86911000Y-100839000D01*
X86911000Y-103321000D02*
X86911000Y-106069000D01*
X86951000Y-98123000D02*
X86951000Y-100839000D01*
X86951000Y-103321000D02*
X86951000Y-106037000D01*
X86991000Y-98155000D02*
X86991000Y-100839000D01*
X86991000Y-103321000D02*
X86991000Y-106005000D01*
X87031000Y-98188000D02*
X87031000Y-100839000D01*
X87031000Y-103321000D02*
X87031000Y-105972000D01*
X87071000Y-98222000D02*
X87071000Y-100839000D01*
X87071000Y-103321000D02*
X87071000Y-105938000D01*
X87111000Y-98256000D02*
X87111000Y-100839000D01*
X87111000Y-103321000D02*
X87111000Y-105904000D01*
X87151000Y-98291000D02*
X87151000Y-100839000D01*
X87151000Y-103321000D02*
X87151000Y-105869000D01*
X87191000Y-98327000D02*
X87191000Y-100839000D01*
X87191000Y-103321000D02*
X87191000Y-105833000D01*
X87231000Y-98364000D02*
X87231000Y-100839000D01*
X87231000Y-103321000D02*
X87231000Y-105796000D01*
X87271000Y-98401000D02*
X87271000Y-100839000D01*
X87271000Y-103321000D02*
X87271000Y-105759000D01*
X87311000Y-98440000D02*
X87311000Y-100839000D01*
X87311000Y-103321000D02*
X87311000Y-105720000D01*
X87351000Y-98479000D02*
X87351000Y-100839000D01*
X87351000Y-103321000D02*
X87351000Y-105681000D01*
X87391000Y-98519000D02*
X87391000Y-100839000D01*
X87391000Y-103321000D02*
X87391000Y-105641000D01*
X87431000Y-98560000D02*
X87431000Y-100839000D01*
X87431000Y-103321000D02*
X87431000Y-105600000D01*
X87471000Y-98602000D02*
X87471000Y-100839000D01*
X87471000Y-103321000D02*
X87471000Y-105558000D01*
X87511000Y-98644000D02*
X87511000Y-100839000D01*
X87511000Y-103321000D02*
X87511000Y-105516000D01*
X87551000Y-98688000D02*
X87551000Y-100839000D01*
X87551000Y-103321000D02*
X87551000Y-105472000D01*
X87591000Y-98733000D02*
X87591000Y-100839000D01*
X87591000Y-103321000D02*
X87591000Y-105427000D01*
X87631000Y-98779000D02*
X87631000Y-100839000D01*
X87631000Y-103321000D02*
X87631000Y-105381000D01*
X87671000Y-98826000D02*
X87671000Y-100839000D01*
X87671000Y-103321000D02*
X87671000Y-105334000D01*
X87711000Y-98874000D02*
X87711000Y-100839000D01*
X87711000Y-103321000D02*
X87711000Y-105286000D01*
X87751000Y-98924000D02*
X87751000Y-100839000D01*
X87751000Y-103321000D02*
X87751000Y-105236000D01*
X87791000Y-98974000D02*
X87791000Y-100839000D01*
X87791000Y-103321000D02*
X87791000Y-105186000D01*
X87831000Y-99026000D02*
X87831000Y-100839000D01*
X87831000Y-103321000D02*
X87831000Y-105134000D01*
X87871000Y-99080000D02*
X87871000Y-100839000D01*
X87871000Y-103321000D02*
X87871000Y-105080000D01*
X87911000Y-99135000D02*
X87911000Y-100839000D01*
X87911000Y-103321000D02*
X87911000Y-105025000D01*
X87951000Y-99191000D02*
X87951000Y-100839000D01*
X87951000Y-103321000D02*
X87951000Y-104969000D01*
X87991000Y-99250000D02*
X87991000Y-100839000D01*
X87991000Y-103321000D02*
X87991000Y-104910000D01*
X88031000Y-99310000D02*
X88031000Y-100839000D01*
X88031000Y-103321000D02*
X88031000Y-104850000D01*
X88071000Y-99371000D02*
X88071000Y-100839000D01*
X88071000Y-103321000D02*
X88071000Y-104789000D01*
X88111000Y-99435000D02*
X88111000Y-100839000D01*
X88111000Y-103321000D02*
X88111000Y-104725000D01*
X88151000Y-99501000D02*
X88151000Y-100839000D01*
X88151000Y-103321000D02*
X88151000Y-104659000D01*
X88191000Y-99570000D02*
X88191000Y-100839000D01*
X88191000Y-103321000D02*
X88191000Y-104590000D01*
X88231000Y-99641000D02*
X88231000Y-100839000D01*
X88231000Y-103321000D02*
X88231000Y-104519000D01*
X88271000Y-99715000D02*
X88271000Y-100839000D01*
X88271000Y-103321000D02*
X88271000Y-104445000D01*
X88311000Y-99791000D02*
X88311000Y-100839000D01*
X88311000Y-103321000D02*
X88311000Y-104369000D01*
X88351000Y-99871000D02*
X88351000Y-100839000D01*
X88351000Y-103321000D02*
X88351000Y-104289000D01*
X88391000Y-99955000D02*
X88391000Y-100839000D01*
X88391000Y-103321000D02*
X88391000Y-104205000D01*
X88431000Y-100043000D02*
X88431000Y-100839000D01*
X88431000Y-103321000D02*
X88431000Y-104117000D01*
X88471000Y-100136000D02*
X88471000Y-100839000D01*
X88471000Y-103321000D02*
X88471000Y-104024000D01*
X88511000Y-100234000D02*
X88511000Y-100839000D01*
X88511000Y-103321000D02*
X88511000Y-103926000D01*
X88551000Y-100338000D02*
X88551000Y-100839000D01*
X88551000Y-103321000D02*
X88551000Y-103822000D01*
X88591000Y-100450000D02*
X88591000Y-100839000D01*
X88591000Y-103321000D02*
X88591000Y-103710000D01*
X88631000Y-100570000D02*
X88631000Y-100839000D01*
X88631000Y-103321000D02*
X88631000Y-103590000D01*
X88671000Y-100702000D02*
X88671000Y-100839000D01*
X88671000Y-103321000D02*
X88671000Y-103458000D01*
X88751000Y-101018000D02*
X88751000Y-103142000D01*
X88791000Y-101218000D02*
X88791000Y-102942000D01*
X88831000Y-101481000D02*
X88831000Y-102679000D01*
X78787460Y-100820000D02*
G75*
G02*
X78787460Y-103340000I4962540J-1260000D01*
G01*
%TO.C,R4*%
X90980000Y-77880000D02*
X90980000Y-78210000D01*
X90980000Y-80620000D02*
X90980000Y-80290000D01*
X97520000Y-77880000D02*
X90980000Y-77880000D01*
X97520000Y-78210000D02*
X97520000Y-77880000D01*
X97520000Y-80290000D02*
X97520000Y-80620000D01*
X97520000Y-80620000D02*
X90980000Y-80620000D01*
%TO.C,U3*%
X113689500Y-51775000D02*
X142889500Y-51775000D01*
X113689500Y-67225000D02*
X113689500Y-51775000D01*
X137225500Y-55981000D02*
X142559500Y-55981000D01*
X137225500Y-66649000D02*
X137225500Y-55981000D01*
X142559500Y-55981000D02*
X142559500Y-55981000D01*
X142559500Y-55981000D02*
X142559500Y-66649000D01*
X142559500Y-66649000D02*
X137225500Y-66649000D01*
X142559500Y-66649000D02*
X142559500Y-66649000D01*
X142889500Y-51775000D02*
X142889500Y-67225000D01*
X142889500Y-67225000D02*
X113689500Y-67225000D01*
X142889500Y-67225000D02*
X142889500Y-67225000D01*
X143425500Y-65365000D02*
X143089500Y-65125000D01*
X143425500Y-64885000D01*
X143425500Y-65365000D01*
G36*
X143425500Y-65365000D02*
G01*
X143089500Y-65125000D01*
X143425500Y-64885000D01*
X143425500Y-65365000D01*
G37*
%TO.C,REF\u002A\u002A*%
X125000000Y-76750000D02*
X125000000Y-75250000D01*
X123750000Y-72750000D02*
X119250000Y-72750000D01*
X119250000Y-79250000D02*
X123750000Y-79250000D01*
X118000000Y-75250000D02*
X118000000Y-76750000D01*
%TD*%
M02*
