%TF.GenerationSoftware,KiCad,Pcbnew,8.0.7*%
%TF.CreationDate,2025-07-19T14:15:59-04:00*%
%TF.ProjectId,Hexapod V2,48657861-706f-4642-9056-322e6b696361,rev?*%
%TF.SameCoordinates,Original*%
%TF.FileFunction,Copper,L4,Bot*%
%TF.FilePolarity,Positive*%
%FSLAX46Y46*%
G04 Gerber Fmt 4.6, Leading zero omitted, Abs format (unit mm)*
G04 Created by KiCad (PCBNEW 8.0.7) date 2025-07-19 14:15:59*
%MOMM*%
%LPD*%
G01*
G04 APERTURE LIST*
%TA.AperFunction,ComponentPad*%
%ADD10O,1.600000X2.000000*%
%TD*%
%TA.AperFunction,ComponentPad*%
%ADD11R,1.700000X1.700000*%
%TD*%
%TA.AperFunction,ComponentPad*%
%ADD12O,1.700000X1.700000*%
%TD*%
%TA.AperFunction,ComponentPad*%
%ADD13R,2.600000X2.600000*%
%TD*%
%TA.AperFunction,ComponentPad*%
%ADD14C,2.600000*%
%TD*%
%TA.AperFunction,ComponentPad*%
%ADD15R,2.000000X2.000000*%
%TD*%
%TA.AperFunction,ComponentPad*%
%ADD16C,2.000000*%
%TD*%
%TA.AperFunction,ComponentPad*%
%ADD17C,1.308000*%
%TD*%
%TA.AperFunction,ComponentPad*%
%ADD18C,1.258000*%
%TD*%
%TA.AperFunction,ComponentPad*%
%ADD19C,1.208000*%
%TD*%
%TA.AperFunction,ComponentPad*%
%ADD20R,1.200000X1.200000*%
%TD*%
%TA.AperFunction,ComponentPad*%
%ADD21C,1.200000*%
%TD*%
%TA.AperFunction,ComponentPad*%
%ADD22C,1.600000*%
%TD*%
%TA.AperFunction,ComponentPad*%
%ADD23O,1.600000X1.600000*%
%TD*%
%TA.AperFunction,ComponentPad*%
%ADD24C,1.524000*%
%TD*%
%TA.AperFunction,ComponentPad*%
%ADD25R,1.524000X1.524000*%
%TD*%
%TA.AperFunction,ComponentPad*%
%ADD26C,1.700000*%
%TD*%
%TA.AperFunction,ViaPad*%
%ADD27C,0.600000*%
%TD*%
%TA.AperFunction,Conductor*%
%ADD28C,2.500000*%
%TD*%
%TA.AperFunction,Conductor*%
%ADD29C,0.200000*%
%TD*%
%TA.AperFunction,Conductor*%
%ADD30C,0.500000*%
%TD*%
G04 APERTURE END LIST*
D10*
%TO.P,SSD1306,1*%
%TO.N,GND*%
X134420000Y-107450000D03*
%TO.P,SSD1306,2*%
%TO.N,+3.3V*%
X131880000Y-107450000D03*
%TO.P,SSD1306,3*%
%TO.N,N/C*%
X129340000Y-107450000D03*
%TO.P,SSD1306,4*%
X126800000Y-107450000D03*
%TD*%
D11*
%TO.P,T4,1,Pin_1*%
%TO.N,GND*%
X102500000Y-48080000D03*
D12*
%TO.P,T4,2,Pin_2*%
%TO.N,VIN*%
X102500000Y-45540000D03*
%TO.P,T4,3,Pin_3*%
%TO.N,S8*%
X102500000Y-43000000D03*
%TD*%
D13*
%TO.P,J3,1,Pin_1*%
%TO.N,VIN*%
X80000000Y-86000000D03*
D14*
%TO.P,J3,2,Pin_2*%
X80000000Y-91080000D03*
%TD*%
D11*
%TO.P,C44,1,Pin_1*%
%TO.N,GND*%
X132500000Y-48080000D03*
D12*
%TO.P,C44,2,Pin_2*%
%TO.N,VIN*%
X132500000Y-45540000D03*
%TO.P,C44,3,Pin_3*%
%TO.N,S2*%
X132500000Y-43000000D03*
%TD*%
D11*
%TO.P,T2,1,Pin_1*%
%TO.N,GND*%
X107500000Y-48080000D03*
D12*
%TO.P,T2,2,Pin_2*%
%TO.N,VIN*%
X107500000Y-45540000D03*
%TO.P,T2,3,Pin_3*%
%TO.N,S7*%
X107500000Y-43000000D03*
%TD*%
D11*
%TO.P,T5,1,Pin_1*%
%TO.N,GND*%
X137500000Y-117000000D03*
D12*
%TO.P,T5,2,Pin_2*%
%TO.N,VIN*%
X137500000Y-119540000D03*
%TO.P,T5,3,Pin_3*%
%TO.N,S10*%
X137500000Y-122080000D03*
%TD*%
D11*
%TO.P,F1,1,Pin_1*%
%TO.N,GND*%
X112500000Y-117000000D03*
D12*
%TO.P,F1,2,Pin_2*%
%TO.N,VIN*%
X112500000Y-119540000D03*
%TO.P,F1,3,Pin_3*%
%TO.N,S15*%
X112500000Y-122080000D03*
%TD*%
D11*
%TO.P,C33,1,Pin_1*%
%TO.N,GND*%
X102500000Y-117000000D03*
D12*
%TO.P,C33,2,Pin_2*%
%TO.N,VIN*%
X102500000Y-119540000D03*
%TO.P,C33,3,Pin_3*%
%TO.N,S17*%
X102500000Y-122080000D03*
%TD*%
D11*
%TO.P,F4,1,Pin_1*%
%TO.N,GND*%
X117500000Y-48080000D03*
D12*
%TO.P,F4,2,Pin_2*%
%TO.N,VIN*%
X117500000Y-45540000D03*
%TO.P,F4,3,Pin_3*%
%TO.N,S5*%
X117500000Y-43000000D03*
%TD*%
D15*
%TO.P,C8,1*%
%TO.N,GND*%
X80000000Y-63000000D03*
D16*
%TO.P,C8,2*%
%TO.N,VIN*%
X87500000Y-63000000D03*
%TD*%
D17*
%TO.P,U4,0,RX1*%
%TO.N,S1*%
X149750000Y-54790000D03*
%TO.P,U4,1,TX1*%
%TO.N,S2*%
X149750000Y-57330000D03*
%TO.P,U4,2,OUT2*%
%TO.N,S3*%
X149750000Y-59870000D03*
%TO.P,U4,3,LRCLK2*%
%TO.N,S4*%
X149750000Y-62410000D03*
%TO.P,U4,3.3V_1,3.3V*%
%TO.N,+3.3V*%
X149750000Y-87810000D03*
%TO.P,U4,3.3V_2,3.3V*%
X164990000Y-57330000D03*
%TO.P,U4,3.3V_3,3.3V*%
X154830000Y-97970000D03*
%TO.P,U4,4,BCLK2*%
%TO.N,S5*%
X149750000Y-64950000D03*
%TO.P,U4,5,IN2*%
%TO.N,S6*%
X149750000Y-67490000D03*
D18*
%TO.P,U4,5V,5V*%
%TO.N,+5V*%
X152800000Y-58600000D03*
D17*
%TO.P,U4,6,OUT1D*%
%TO.N,S7*%
X149750000Y-70030000D03*
%TO.P,U4,7,RX2*%
%TO.N,S8*%
X149750000Y-72570000D03*
%TO.P,U4,8,TX2*%
%TO.N,S9*%
X149750000Y-75110000D03*
%TO.P,U4,9,OUT1C*%
%TO.N,N/C*%
X149750000Y-77650000D03*
%TO.P,U4,10,CS1*%
%TO.N,CSN*%
X149750000Y-80190000D03*
%TO.P,U4,11,MOSI*%
%TO.N,MOSI*%
X149750000Y-82730000D03*
%TO.P,U4,12,MISO*%
%TO.N,MISO*%
X149750000Y-85270000D03*
%TO.P,U4,13,SCK*%
%TO.N,SCK*%
X164990000Y-85270000D03*
%TO.P,U4,14,A0*%
%TO.N,S13*%
X164990000Y-82730000D03*
%TO.P,U4,15,A1*%
%TO.N,S14*%
X164990000Y-80190000D03*
%TO.P,U4,16,A2*%
%TO.N,Current Reading*%
X164990000Y-77650000D03*
%TO.P,U4,17,A3*%
%TO.N,N/C*%
X164990000Y-75110000D03*
%TO.P,U4,18,A4*%
%TO.N,S15*%
X164990000Y-72570000D03*
%TO.P,U4,19,A5*%
%TO.N,S16*%
X164990000Y-70030000D03*
%TO.P,U4,20,A6*%
%TO.N,VD Reading*%
X164990000Y-67490000D03*
%TO.P,U4,21,A7*%
%TO.N,unconnected-(U4-A7-Pad21)*%
X164990000Y-64950000D03*
%TO.P,U4,22,A8*%
%TO.N,S17*%
X164990000Y-62410000D03*
%TO.P,U4,23,A9*%
%TO.N,S18*%
X164990000Y-59870000D03*
%TO.P,U4,24,A10*%
%TO.N,SCL*%
X149750000Y-90350000D03*
%TO.P,U4,25,A11*%
%TO.N,SDA*%
X149750000Y-92890000D03*
%TO.P,U4,26,A12*%
%TO.N,CE*%
X149750000Y-95430000D03*
%TO.P,U4,27,A13*%
%TO.N,Buzzer*%
X149750000Y-97970000D03*
%TO.P,U4,28,RX7*%
%TO.N,Button*%
X149750000Y-100510000D03*
%TO.P,U4,29,TX7*%
%TO.N,unconnected-(U4-TX7-Pad29)*%
X149750000Y-103050000D03*
%TO.P,U4,30,CRX3*%
%TO.N,LED1*%
X149750000Y-105590000D03*
%TO.P,U4,31,CTX3*%
%TO.N,LED2*%
X149750000Y-108130000D03*
%TO.P,U4,32,OUT1B*%
%TO.N,unconnected-(U4-OUT1B-Pad32)*%
X149750000Y-110670000D03*
%TO.P,U4,33,MCLK2*%
%TO.N,S10*%
X164990000Y-110670000D03*
%TO.P,U4,34,RX8*%
%TO.N,unconnected-(U4-RX8-Pad34)*%
X164990000Y-108130000D03*
%TO.P,U4,35,TX8*%
%TO.N,unconnected-(U4-TX8-Pad35)*%
X164990000Y-105590000D03*
%TO.P,U4,36,CS2*%
%TO.N,S11*%
X164990000Y-103050000D03*
%TO.P,U4,37,CS3*%
%TO.N,S12*%
X164990000Y-100510000D03*
%TO.P,U4,38,A14*%
%TO.N,unconnected-(U4-A14-Pad38)*%
X164990000Y-97970000D03*
%TO.P,U4,39,A15*%
%TO.N,unconnected-(U4-A15-Pad39)*%
X164990000Y-95430000D03*
%TO.P,U4,40,A16*%
%TO.N,unconnected-(U4-A16-Pad40)*%
X164990000Y-92890000D03*
%TO.P,U4,41,A17*%
%TO.N,unconnected-(U4-A17-Pad41)*%
X164990000Y-90350000D03*
D18*
%TO.P,U4,D+,D+*%
%TO.N,unconnected-(U4-PadD+)*%
X152800000Y-63680000D03*
%TO.P,U4,D-,D-*%
%TO.N,unconnected-(U4-PadD-)*%
X152800000Y-61140000D03*
D17*
%TO.P,U4,GND1,GND*%
%TO.N,GND*%
X149750000Y-52250000D03*
%TO.P,U4,GND2,GND*%
X164990000Y-87810000D03*
%TO.P,U4,GND3,GND*%
X164990000Y-54790000D03*
%TO.P,U4,GND4,GND*%
X157370000Y-97970000D03*
D19*
%TO.P,U4,GND5,GND*%
X160540000Y-67220000D03*
%TO.P,U4,LED,LED*%
%TO.N,unconnected-(U4-PadLED)*%
X160540000Y-65220000D03*
D17*
%TO.P,U4,ON/OFF,ON/OFF*%
%TO.N,unconnected-(U4-PadON{slash}OFF)*%
X162450000Y-97970000D03*
%TO.P,U4,PROGRAM,PROGRAM*%
%TO.N,unconnected-(U4-PadPROGRAM)*%
X159910000Y-97970000D03*
D19*
%TO.P,U4,R+,R+*%
%TO.N,unconnected-(U4-PadR+)*%
X162540000Y-65220000D03*
%TO.P,U4,R-,R-*%
%TO.N,unconnected-(U4-PadR-)*%
X162540000Y-67220000D03*
%TO.P,U4,T+,T+*%
%TO.N,unconnected-(U4-PadT+)*%
X158540000Y-67220000D03*
%TO.P,U4,T-,T-*%
%TO.N,unconnected-(U4-PadT-)*%
X158540000Y-65220000D03*
D18*
%TO.P,U4,USB_GND1,USB_GND*%
%TO.N,Net-(U4-USB_GND-PadUSB_GND1)*%
X152800000Y-66220000D03*
%TO.P,U4,USB_GND2,USB_GND*%
X152800000Y-68760000D03*
D17*
%TO.P,U4,VBAT,VBAT*%
%TO.N,unconnected-(U4-PadVBAT)*%
X152290000Y-97970000D03*
%TO.P,U4,VIN,VIN*%
%TO.N,+5V*%
X164990000Y-52250000D03*
%TO.P,U4,VUSB,VUSB*%
%TO.N,unconnected-(U4-PadVUSB)*%
X162450000Y-54790000D03*
%TD*%
D11*
%TO.P,F5,1,Pin_1*%
%TO.N,GND*%
X122500000Y-117000000D03*
D12*
%TO.P,F5,2,Pin_2*%
%TO.N,VIN*%
X122500000Y-119540000D03*
%TO.P,F5,3,Pin_3*%
%TO.N,S13*%
X122500000Y-122080000D03*
%TD*%
D11*
%TO.P,F3,1,Pin_1*%
%TO.N,GND*%
X117500000Y-117000000D03*
D12*
%TO.P,F3,2,Pin_2*%
%TO.N,VIN*%
X117500000Y-119540000D03*
%TO.P,F3,3,Pin_3*%
%TO.N,S14*%
X117500000Y-122080000D03*
%TD*%
D11*
%TO.P,F2,1,Pin_1*%
%TO.N,GND*%
X122500000Y-48080000D03*
D12*
%TO.P,F2,2,Pin_2*%
%TO.N,VIN*%
X122500000Y-45540000D03*
%TO.P,F2,3,Pin_3*%
%TO.N,S4*%
X122500000Y-43000000D03*
%TD*%
D11*
%TO.P,T1,1,Pin_1*%
%TO.N,GND*%
X127500000Y-117000000D03*
D12*
%TO.P,T1,2,Pin_2*%
%TO.N,VIN*%
X127500000Y-119540000D03*
%TO.P,T1,3,Pin_3*%
%TO.N,S12*%
X127500000Y-122080000D03*
%TD*%
D11*
%TO.P,F6,1,Pin_1*%
%TO.N,GND*%
X112500000Y-48080000D03*
D12*
%TO.P,F6,2,Pin_2*%
%TO.N,VIN*%
X112500000Y-45540000D03*
%TO.P,F6,3,Pin_3*%
%TO.N,S6*%
X112500000Y-43000000D03*
%TD*%
D20*
%TO.P,C1,1*%
%TO.N,+3.3V*%
X144750000Y-65000000D03*
D21*
%TO.P,C1,2*%
%TO.N,GND*%
X146750000Y-65000000D03*
%TD*%
D11*
%TO.P,C55,1,Pin_1*%
%TO.N,GND*%
X107500000Y-117000000D03*
D12*
%TO.P,C55,2,Pin_2*%
%TO.N,VIN*%
X107500000Y-119540000D03*
%TO.P,C55,3,Pin_3*%
%TO.N,S16*%
X107500000Y-122080000D03*
%TD*%
D11*
%TO.P,C11,1,Pin_1*%
%TO.N,GND*%
X97500000Y-117000000D03*
D12*
%TO.P,C11,2,Pin_2*%
%TO.N,VIN*%
X97500000Y-119540000D03*
%TO.P,C11,3,Pin_3*%
%TO.N,S18*%
X97500000Y-122080000D03*
%TD*%
D11*
%TO.P,C44,1,Pin_1*%
%TO.N,GND*%
X127500000Y-48250000D03*
D12*
%TO.P,C44,2,Pin_2*%
%TO.N,VIN*%
X127500000Y-45710000D03*
%TO.P,C44,3,Pin_3*%
%TO.N,S3*%
X127500000Y-43170000D03*
%TD*%
D22*
%TO.P,R3,1*%
%TO.N,GND*%
X98060000Y-84000000D03*
D23*
%TO.P,R3,2*%
%TO.N,VD Reading*%
X90440000Y-84000000D03*
%TD*%
D11*
%TO.P,T3,1,Pin_1*%
%TO.N,GND*%
X132500000Y-117000000D03*
D12*
%TO.P,T3,2,Pin_2*%
%TO.N,VIN*%
X132500000Y-119540000D03*
%TO.P,T3,3,Pin_3*%
%TO.N,S11*%
X132500000Y-122080000D03*
%TD*%
D15*
%TO.P,BZ1,1,+*%
%TO.N,Buzzer*%
X97600000Y-111350000D03*
D16*
%TO.P,BZ1,2,-*%
%TO.N,GND*%
X97600000Y-103750000D03*
%TD*%
D24*
%TO.P,U2,1,VCC*%
%TO.N,+3.3V*%
X111763000Y-52765000D03*
%TO.P,U2,2,GND*%
%TO.N,GND*%
X109223000Y-52765000D03*
%TO.P,U2,3,SCL*%
%TO.N,SCL*%
X106683000Y-52765000D03*
%TO.P,U2,4,SDA*%
%TO.N,SDA*%
X104143000Y-52765000D03*
%TO.P,U2,5,XDA*%
%TO.N,unconnected-(U2-XDA-Pad5)*%
X101603000Y-52765000D03*
%TO.P,U2,6,XCL*%
%TO.N,unconnected-(U2-XCL-Pad6)*%
X99063000Y-52765000D03*
%TO.P,U2,7,ADD*%
%TO.N,unconnected-(U2-ADD-Pad7)*%
X96523000Y-52765000D03*
%TO.P,U2,8,INT*%
%TO.N,unconnected-(U2-INT-Pad8)*%
X93983000Y-52765000D03*
%TD*%
D13*
%TO.P,J2,1,Pin_1*%
%TO.N,GND*%
X80000000Y-74000000D03*
D14*
%TO.P,J2,2,Pin_2*%
%TO.N,VIN*%
X80000000Y-79080000D03*
%TD*%
D25*
%TO.P,U5,1*%
%TO.N,GND*%
X105700000Y-88900000D03*
%TO.P,U5,2*%
%TO.N,+5V*%
X105700000Y-98300000D03*
%TO.P,U5,3*%
%TO.N,GND*%
X90300000Y-88900000D03*
%TO.P,U5,4*%
%TO.N,VIN*%
X90300000Y-98300000D03*
%TD*%
D11*
%TO.P,C22,1,Pin_1*%
%TO.N,GND*%
X137500000Y-48080000D03*
D12*
%TO.P,C22,2,Pin_2*%
%TO.N,VIN*%
X137500000Y-45540000D03*
%TO.P,C22,3,Pin_3*%
%TO.N,S1*%
X137500000Y-43000000D03*
%TD*%
D11*
%TO.P,T6,1,Pin_1*%
%TO.N,GND*%
X97500000Y-48080000D03*
D12*
%TO.P,T6,2,Pin_2*%
%TO.N,VIN*%
X97500000Y-45540000D03*
%TO.P,T6,3,Pin_3*%
%TO.N,S9*%
X97500000Y-43000000D03*
%TD*%
D15*
%TO.P,C9,1*%
%TO.N,GND*%
X80000000Y-102080000D03*
D16*
%TO.P,C9,2*%
%TO.N,VIN*%
X87500000Y-102080000D03*
%TD*%
D22*
%TO.P,R4,1*%
%TO.N,VD Reading*%
X98060000Y-79250000D03*
D23*
%TO.P,R4,2*%
%TO.N,VIN*%
X90440000Y-79250000D03*
%TD*%
D11*
%TO.P,U3,1*%
%TO.N,GND*%
X141289500Y-65125000D03*
D26*
%TO.P,U3,2*%
%TO.N,+3.3V*%
X138749500Y-65125000D03*
%TO.P,U3,3*%
%TO.N,CE*%
X141289500Y-62585000D03*
%TO.P,U3,4*%
%TO.N,CSN*%
X138749500Y-62585000D03*
%TO.P,U3,5*%
%TO.N,SCK*%
X141289500Y-60045000D03*
%TO.P,U3,6*%
%TO.N,MOSI*%
X138749500Y-60045000D03*
%TO.P,U3,7*%
%TO.N,MISO*%
X141289500Y-57505000D03*
%TO.P,U3,8*%
%TO.N,N/C*%
X138749500Y-57505000D03*
%TD*%
D16*
%TO.P,REF\u002A\u002A,2*%
%TO.N,Button*%
X124750000Y-78250000D03*
X118250000Y-78250000D03*
%TO.P,REF\u002A\u002A,1*%
%TO.N,+3.3V*%
X124750000Y-73750000D03*
X118250000Y-73750000D03*
%TD*%
D27*
%TO.N,GND*%
X105525000Y-110560000D03*
X96275000Y-75365000D03*
X96250000Y-69300000D03*
X108750000Y-83975000D03*
X108450000Y-74825000D03*
X106200000Y-84150000D03*
X105900000Y-75000000D03*
%TO.N,+5V*%
X101325000Y-80825000D03*
X101025000Y-71725000D03*
X108750000Y-81000000D03*
X108450000Y-71875000D03*
X113000000Y-99750000D03*
X96250000Y-71200000D03*
X92750000Y-71500000D03*
%TD*%
D28*
%TO.N,+5V*%
X101700000Y-71050000D02*
X103000000Y-69750000D01*
X93200000Y-71050000D02*
X101700000Y-71050000D01*
X92750000Y-71500000D02*
X93200000Y-71050000D01*
D29*
X113000000Y-99750000D02*
X111550000Y-98300000D01*
X111550000Y-98300000D02*
X105700000Y-98300000D01*
D30*
%TO.N,VD Reading*%
X150854000Y-83187292D02*
X150854000Y-81626000D01*
X150207292Y-83834000D02*
X150854000Y-83187292D01*
X150854000Y-81626000D02*
X164990000Y-67490000D01*
X116166000Y-83834000D02*
X150207292Y-83834000D01*
X115750000Y-84250000D02*
X116166000Y-83834000D01*
X115750000Y-99750000D02*
X115750000Y-84250000D01*
X104750000Y-104250000D02*
X111250000Y-104250000D01*
X111250000Y-104250000D02*
X115750000Y-99750000D01*
X99310000Y-98810000D02*
X104750000Y-104250000D01*
X99310000Y-80500000D02*
X99310000Y-98810000D01*
X98060000Y-79250000D02*
X99310000Y-80500000D01*
D29*
%TO.N,Button*%
X118250000Y-78250000D02*
X124750000Y-78250000D01*
%TO.N,+3.3V*%
X118500000Y-73500000D02*
X118250000Y-73750000D01*
X149354840Y-73524000D02*
X149330840Y-73500000D01*
X155514450Y-73524000D02*
X149354840Y-73524000D01*
X161444000Y-60876000D02*
X161444000Y-67594450D01*
X161444000Y-67594450D02*
X155514450Y-73524000D01*
X149330840Y-73500000D02*
X118500000Y-73500000D01*
X164990000Y-57330000D02*
X161444000Y-60876000D01*
X131880000Y-105680000D02*
X149750000Y-87810000D01*
X131880000Y-107450000D02*
X131880000Y-105680000D01*
D28*
%TO.N,+5V*%
X112500000Y-71750000D02*
X112375000Y-71875000D01*
X162896000Y-49896000D02*
X162250000Y-49250000D01*
X112500000Y-57500000D02*
X112500000Y-71750000D01*
X108750000Y-78500000D02*
X108500000Y-78250000D01*
X117250000Y-52750000D02*
X112500000Y-57500000D01*
X112500000Y-71750000D02*
X112500000Y-80000000D01*
X108500000Y-78250000D02*
X103900000Y-78250000D01*
X108750000Y-81000000D02*
X108750000Y-78500000D01*
X112375000Y-71875000D02*
X108450000Y-71875000D01*
X162896000Y-50186000D02*
X162896000Y-49896000D01*
X143250000Y-52750000D02*
X117250000Y-52750000D01*
X103900000Y-78250000D02*
X101325000Y-80825000D01*
X162250000Y-49250000D02*
X146750000Y-49250000D01*
X108450000Y-71450000D02*
X106750000Y-69750000D01*
X101325000Y-80825000D02*
X101300000Y-80850000D01*
X111475000Y-81025000D02*
X108750000Y-81025000D01*
X165000000Y-52290000D02*
X162896000Y-50186000D01*
X106750000Y-69750000D02*
X103000000Y-69750000D01*
X108450000Y-71875000D02*
X108450000Y-71450000D01*
X108750000Y-81025000D02*
X108750000Y-81000000D01*
X112500000Y-80000000D02*
X111475000Y-81025000D01*
X146750000Y-49250000D02*
X143250000Y-52750000D01*
X112500000Y-80000000D02*
X112500000Y-91500000D01*
X103000000Y-69750000D02*
X101025000Y-71725000D01*
X112500000Y-91500000D02*
X105700000Y-98300000D01*
%TD*%
M02*
